G04 MADE WITH FRITZING*
G04 WWW.FRITZING.ORG*
G04 DOUBLE SIDED*
G04 HOLES PLATED*
G04 CONTOUR ON CENTER OF CONTOUR VECTOR*
%FSLAX26Y26*%
%MOIN*%
%ADD10C,0.074000*%
%ADD11C,0.075000*%
%ADD12C,0.062992*%
%ADD13C,0.066000*%
%ADD14C,0.110000*%
%ADD15C,0.082000*%
%ADD16C,0.085000*%
%ADD17C,0.074667*%
%ADD18C,0.074695*%
%ADD19C,0.124033*%
%ADD20C,0.081700*%
%ADD21C,0.081705*%
%ADD22C,0.033464*%
%ADD23R,0.050000X0.025000*%
%ADD24R,0.062992X0.062992*%
%ADD25R,0.082000X0.082000*%
%ADD26R,0.075000X0.075000*%
%ADD27C,0.024000*%
%ADD28R,0.001000X0.001000*%
G04 COPPER1*
%FSLAX26Y26*%
%MOIN*%
D10*
X1714920Y394280D03*
X1458920Y394280D03*
X1714920Y216280D03*
X1458920Y216280D03*
X1714920Y394280D03*
X1458920Y394280D03*
X1714920Y216280D03*
X1458920Y216280D03*
X1714920Y394280D03*
X1458920Y394280D03*
X1714920Y216280D03*
X1458920Y216280D03*
X468289Y396810D03*
X212289Y396810D03*
X468289Y218810D03*
X212289Y218810D03*
X468289Y396810D03*
X212289Y396810D03*
X468289Y218810D03*
X212289Y218810D03*
X468289Y396810D03*
X212289Y396810D03*
X468289Y218810D03*
X212289Y218810D03*
D11*
X1110360Y750050D03*
X810360Y750050D03*
D12*
X964030Y584630D03*
X964030Y486200D03*
X964030Y584630D03*
X964030Y486200D03*
D10*
X856512Y1527417D03*
X1056510Y1527417D03*
X856512Y1527417D03*
X1056510Y1527417D03*
D13*
X907077Y1671066D03*
X1005500Y1671066D03*
X1005500Y1749066D03*
X907077Y1749066D03*
D14*
X719290Y1856066D03*
X1193290Y1856066D03*
D13*
X907077Y1671066D03*
X1005500Y1671066D03*
X1005500Y1749066D03*
X907077Y1749066D03*
D14*
X719290Y1856066D03*
X1193290Y1856066D03*
D11*
X1111040Y1406565D03*
X811040Y1406565D03*
X673967Y1537032D03*
X673967Y1237032D03*
D15*
X1281340Y1745095D03*
X1281340Y1447095D03*
X1277060Y1283850D03*
X1277060Y985850D03*
D11*
X811078Y1284683D03*
X1111080Y1284683D03*
X811078Y1184683D03*
X1111080Y1184683D03*
X811078Y1084683D03*
X1111080Y1084683D03*
X811078Y984683D03*
X1111080Y984683D03*
X1110870Y852590D03*
X810870Y852590D03*
D16*
X1832850Y404010D03*
X1832850Y207160D03*
X1340720Y207160D03*
X1340720Y404010D03*
X1832850Y404010D03*
X1832850Y207160D03*
X1340720Y207160D03*
X1340720Y404010D03*
X1832850Y404010D03*
X1832850Y207160D03*
X1340720Y207160D03*
X1340720Y404010D03*
X586882Y404340D03*
X586882Y207490D03*
X94756Y207490D03*
X94756Y404340D03*
X586882Y404340D03*
X586882Y207490D03*
X94756Y207490D03*
X94756Y404340D03*
X586882Y404340D03*
X586882Y207490D03*
X94756Y207490D03*
X94756Y404340D03*
D17*
X1718480Y1245476D03*
X1618480Y1245462D03*
D18*
X1518470Y1245476D03*
D19*
X1812630Y1540754D03*
X1424330Y1540754D03*
D17*
X1718480Y1245476D03*
X1618480Y1245462D03*
D18*
X1518470Y1245476D03*
D19*
X1812630Y1540754D03*
X1424330Y1540754D03*
D17*
X405654Y1247150D03*
X305654Y1247136D03*
D18*
X205640Y1247150D03*
D19*
X499806Y1542428D03*
X111501Y1542428D03*
D17*
X405654Y1247150D03*
X305654Y1247136D03*
D18*
X205640Y1247150D03*
D19*
X499806Y1542428D03*
X111501Y1542428D03*
D20*
X1809150Y861000D03*
X1614060Y762600D03*
X1614060Y668100D03*
D21*
X1614050Y959300D03*
D20*
X1614050Y1053800D03*
D22*
X1809150Y668100D03*
X1809150Y1054000D03*
D23*
X1413820Y658460D03*
X1413820Y693890D03*
D24*
X964030Y584628D03*
X964030Y584628D03*
D25*
X1281340Y1746095D03*
X1277060Y1284850D03*
D26*
X811078Y1284683D03*
D27*
X192330Y398090D02*
X118329Y402840D01*
D02*
X192381Y216890D02*
X118269Y209760D01*
D02*
X1438990Y395920D02*
X1364270Y402080D01*
D02*
X1438980Y214740D02*
X1364280Y208980D01*
D02*
X810780Y835090D02*
X810445Y767550D01*
D02*
X1023500Y1748807D02*
X1260360Y1745397D01*
D02*
X232289Y396810D02*
X448289Y396810D01*
D02*
X1148280Y1856067D02*
X764278Y1856067D01*
D02*
X1614040Y983672D02*
X1614040Y1029541D01*
D02*
X1478920Y394280D02*
X1694920Y394280D01*
D28*
X1002500Y1760630D02*
X1007500Y1760630D01*
X1000500Y1759630D02*
X1010500Y1759630D01*
X998500Y1758630D02*
X1012500Y1758630D01*
X997500Y1757630D02*
X1014500Y1757630D01*
X996500Y1756630D02*
X1017500Y1756630D01*
X995500Y1755630D02*
X1019500Y1755630D01*
X995500Y1754630D02*
X1021500Y1754630D01*
X994500Y1753630D02*
X1023500Y1753630D01*
X994500Y1752630D02*
X1025500Y1752630D01*
X994500Y1751630D02*
X1027500Y1751630D01*
X994500Y1750630D02*
X1029500Y1750630D01*
X993500Y1749630D02*
X1031500Y1749630D01*
X993500Y1748630D02*
X1033500Y1748630D01*
X994500Y1747630D02*
X1034500Y1747630D01*
X994500Y1746630D02*
X1036500Y1746630D01*
X994500Y1745630D02*
X1038500Y1745630D01*
X994500Y1744630D02*
X1040500Y1744630D01*
X995500Y1743630D02*
X1041500Y1743630D01*
X995500Y1742630D02*
X1043500Y1742630D01*
X996500Y1741630D02*
X1045500Y1741630D01*
X997500Y1740630D02*
X1047500Y1740630D01*
X998500Y1739630D02*
X1048500Y1739630D01*
X1000500Y1738630D02*
X1050500Y1738630D01*
X1002500Y1737630D02*
X1052500Y1737630D01*
X1004500Y1736630D02*
X1053500Y1736630D01*
X1006500Y1735630D02*
X1055500Y1735630D01*
X1008500Y1734630D02*
X1056500Y1734630D01*
X1010500Y1733630D02*
X1058500Y1733630D01*
X1012500Y1732630D02*
X1060500Y1732630D01*
X1014500Y1731630D02*
X1061500Y1731630D01*
X1016500Y1730630D02*
X1063500Y1730630D01*
X1018500Y1729630D02*
X1064500Y1729630D01*
X1020500Y1728630D02*
X1066500Y1728630D01*
X1022500Y1727630D02*
X1067500Y1727630D01*
X1024500Y1726630D02*
X1068500Y1726630D01*
X1026500Y1725630D02*
X1070500Y1725630D01*
X1027500Y1724630D02*
X1071500Y1724630D01*
X1029500Y1723630D02*
X1073500Y1723630D01*
X1031500Y1722630D02*
X1074500Y1722630D01*
X1032500Y1721630D02*
X1075500Y1721630D01*
X1034500Y1720630D02*
X1077500Y1720630D01*
X1036500Y1719630D02*
X1078500Y1719630D01*
X1038500Y1718630D02*
X1080500Y1718630D01*
X1039500Y1717630D02*
X1081500Y1717630D01*
X1041500Y1716630D02*
X1082500Y1716630D01*
X1043500Y1715630D02*
X1084500Y1715630D01*
X1044500Y1714630D02*
X1085500Y1714630D01*
X1046500Y1713630D02*
X1086500Y1713630D01*
X1047500Y1712630D02*
X1087500Y1712630D01*
X1049500Y1711630D02*
X1089500Y1711630D01*
X1050500Y1710630D02*
X1090500Y1710630D01*
X1052500Y1709630D02*
X1091500Y1709630D01*
X1053500Y1708630D02*
X1092500Y1708630D01*
X1055500Y1707630D02*
X1093500Y1707630D01*
X1056500Y1706630D02*
X1095500Y1706630D01*
X1058500Y1705630D02*
X1096500Y1705630D01*
X1059500Y1704630D02*
X1097500Y1704630D01*
X1060500Y1703630D02*
X1098500Y1703630D01*
X1062500Y1702630D02*
X1099500Y1702630D01*
X1063500Y1701630D02*
X1101500Y1701630D01*
X1065500Y1700630D02*
X1102500Y1700630D01*
X1066500Y1699630D02*
X1103500Y1699630D01*
X1067500Y1698630D02*
X1104500Y1698630D01*
X1069500Y1697630D02*
X1105500Y1697630D01*
X1070500Y1696630D02*
X1106500Y1696630D01*
X1071500Y1695630D02*
X1107500Y1695630D01*
X1073500Y1694630D02*
X1108500Y1694630D01*
X1074500Y1693630D02*
X1109500Y1693630D01*
X1075500Y1692630D02*
X1110500Y1692630D01*
X1076500Y1691630D02*
X1111500Y1691630D01*
X1078500Y1690630D02*
X1112500Y1690630D01*
X1079500Y1689630D02*
X1113500Y1689630D01*
X1080500Y1688630D02*
X1114500Y1688630D01*
X1081500Y1687630D02*
X1115500Y1687630D01*
X1082500Y1686630D02*
X1116500Y1686630D01*
X1083500Y1685630D02*
X1117500Y1685630D01*
X1085500Y1684630D02*
X1118500Y1684630D01*
X1086500Y1683630D02*
X1119500Y1683630D01*
X1002500Y1682630D02*
X1008500Y1682630D01*
X1087500Y1682630D02*
X1120500Y1682630D01*
X1000500Y1681630D02*
X1010500Y1681630D01*
X1088500Y1681630D02*
X1121500Y1681630D01*
X998500Y1680630D02*
X1012500Y1680630D01*
X1089500Y1680630D02*
X1122500Y1680630D01*
X997500Y1679630D02*
X1013500Y1679630D01*
X1090500Y1679630D02*
X1123500Y1679630D01*
X996500Y1678630D02*
X1014500Y1678630D01*
X1091500Y1678630D02*
X1124500Y1678630D01*
X995500Y1677630D02*
X1014500Y1677630D01*
X1092500Y1677630D02*
X1125500Y1677630D01*
X995500Y1676630D02*
X1015500Y1676630D01*
X1093500Y1676630D02*
X1126500Y1676630D01*
X994500Y1675630D02*
X1015500Y1675630D01*
X1094500Y1675630D02*
X1127500Y1675630D01*
X994500Y1674630D02*
X1016500Y1674630D01*
X1096500Y1674630D02*
X1127500Y1674630D01*
X994500Y1673630D02*
X1016500Y1673630D01*
X1097500Y1673630D02*
X1128500Y1673630D01*
X994500Y1672630D02*
X1016500Y1672630D01*
X1098500Y1672630D02*
X1129500Y1672630D01*
X993500Y1671630D02*
X1016500Y1671630D01*
X1098500Y1671630D02*
X1130500Y1671630D01*
X993500Y1670630D02*
X1016500Y1670630D01*
X1099500Y1670630D02*
X1131500Y1670630D01*
X993500Y1669630D02*
X1016500Y1669630D01*
X1100500Y1669630D02*
X1132500Y1669630D01*
X993500Y1668630D02*
X1016500Y1668630D01*
X1101500Y1668630D02*
X1133500Y1668630D01*
X993500Y1667630D02*
X1016500Y1667630D01*
X1102500Y1667630D02*
X1133500Y1667630D01*
X993500Y1666630D02*
X1016500Y1666630D01*
X1103500Y1666630D02*
X1134500Y1666630D01*
X993500Y1665630D02*
X1016500Y1665630D01*
X1104500Y1665630D02*
X1135500Y1665630D01*
X992500Y1664630D02*
X1016500Y1664630D01*
X1105500Y1664630D02*
X1136500Y1664630D01*
X992500Y1663630D02*
X1015500Y1663630D01*
X1106500Y1663630D02*
X1136500Y1663630D01*
X992500Y1662630D02*
X1015500Y1662630D01*
X1107500Y1662630D02*
X1137500Y1662630D01*
X992500Y1661630D02*
X1015500Y1661630D01*
X1108500Y1661630D02*
X1138500Y1661630D01*
X992500Y1660630D02*
X1015500Y1660630D01*
X1109500Y1660630D02*
X1139500Y1660630D01*
X991500Y1659630D02*
X1015500Y1659630D01*
X1110500Y1659630D02*
X1140500Y1659630D01*
X991500Y1658630D02*
X1015500Y1658630D01*
X1111500Y1658630D02*
X1140500Y1658630D01*
X991500Y1657630D02*
X1014500Y1657630D01*
X1111500Y1657630D02*
X1141500Y1657630D01*
X991500Y1656630D02*
X1014500Y1656630D01*
X1112500Y1656630D02*
X1142500Y1656630D01*
X990500Y1655630D02*
X1014500Y1655630D01*
X1113500Y1655630D02*
X1142500Y1655630D01*
X990500Y1654630D02*
X1014500Y1654630D01*
X1114500Y1654630D02*
X1143500Y1654630D01*
X990500Y1653630D02*
X1014500Y1653630D01*
X1115500Y1653630D02*
X1144500Y1653630D01*
X990500Y1652630D02*
X1013500Y1652630D01*
X1116500Y1652630D02*
X1144500Y1652630D01*
X989500Y1651630D02*
X1013500Y1651630D01*
X1116500Y1651630D02*
X1145500Y1651630D01*
X989500Y1650630D02*
X1013500Y1650630D01*
X1117500Y1650630D02*
X1146500Y1650630D01*
X989500Y1649630D02*
X1013500Y1649630D01*
X1118500Y1649630D02*
X1146500Y1649630D01*
X988500Y1648630D02*
X1012500Y1648630D01*
X1119500Y1648630D02*
X1147500Y1648630D01*
X988500Y1647630D02*
X1012500Y1647630D01*
X1120500Y1647630D02*
X1148500Y1647630D01*
X987500Y1646630D02*
X1012500Y1646630D01*
X1120500Y1646630D02*
X1148500Y1646630D01*
X987500Y1645630D02*
X1011500Y1645630D01*
X1121500Y1645630D02*
X1149500Y1645630D01*
X987500Y1644630D02*
X1011500Y1644630D01*
X1122500Y1644630D02*
X1150500Y1644630D01*
X986500Y1643630D02*
X1011500Y1643630D01*
X1123500Y1643630D02*
X1150500Y1643630D01*
X986500Y1642630D02*
X1010500Y1642630D01*
X1123500Y1642630D02*
X1151500Y1642630D01*
X985500Y1641630D02*
X1010500Y1641630D01*
X1124500Y1641630D02*
X1151500Y1641630D01*
X985500Y1640630D02*
X1010500Y1640630D01*
X1125500Y1640630D02*
X1152500Y1640630D01*
X984500Y1639630D02*
X1009500Y1639630D01*
X1125500Y1639630D02*
X1153500Y1639630D01*
X984500Y1638630D02*
X1009500Y1638630D01*
X1126500Y1638630D02*
X1153500Y1638630D01*
X983500Y1637630D02*
X1009500Y1637630D01*
X1127500Y1637630D02*
X1154500Y1637630D01*
X983500Y1636630D02*
X1008500Y1636630D01*
X1127500Y1636630D02*
X1154500Y1636630D01*
X982500Y1635630D02*
X1008500Y1635630D01*
X1128500Y1635630D02*
X1155500Y1635630D01*
X797500Y1634630D02*
X803500Y1634630D01*
X981500Y1634630D02*
X1007500Y1634630D01*
X1129500Y1634630D02*
X1155500Y1634630D01*
X779500Y1633630D02*
X821500Y1633630D01*
X981500Y1633630D02*
X1007500Y1633630D01*
X1129500Y1633630D02*
X1156500Y1633630D01*
X770500Y1632630D02*
X831500Y1632630D01*
X980500Y1632630D02*
X1007500Y1632630D01*
X1130500Y1632630D02*
X1157500Y1632630D01*
X764500Y1631630D02*
X838500Y1631630D01*
X979500Y1631630D02*
X1006500Y1631630D01*
X1131500Y1631630D02*
X1157500Y1631630D01*
X759500Y1630630D02*
X844500Y1630630D01*
X978500Y1630630D02*
X1006500Y1630630D01*
X1131500Y1630630D02*
X1158500Y1630630D01*
X754500Y1629630D02*
X850500Y1629630D01*
X977500Y1629630D02*
X1005500Y1629630D01*
X1132500Y1629630D02*
X1158500Y1629630D01*
X751500Y1628630D02*
X855500Y1628630D01*
X977500Y1628630D02*
X1004500Y1628630D01*
X1132500Y1628630D02*
X1159500Y1628630D01*
X747500Y1627630D02*
X860500Y1627630D01*
X976500Y1627630D02*
X1004500Y1627630D01*
X1133500Y1627630D02*
X1159500Y1627630D01*
X744500Y1626630D02*
X864500Y1626630D01*
X975500Y1626630D02*
X1003500Y1626630D01*
X1134500Y1626630D02*
X1160500Y1626630D01*
X741500Y1625630D02*
X868500Y1625630D01*
X974500Y1625630D02*
X1003500Y1625630D01*
X1134500Y1625630D02*
X1160500Y1625630D01*
X738500Y1624630D02*
X872500Y1624630D01*
X972500Y1624630D02*
X1002500Y1624630D01*
X1135500Y1624630D02*
X1161500Y1624630D01*
X735500Y1623630D02*
X876500Y1623630D01*
X971500Y1623630D02*
X1002500Y1623630D01*
X1135500Y1623630D02*
X1161500Y1623630D01*
X733500Y1622630D02*
X880500Y1622630D01*
X970500Y1622630D02*
X1001500Y1622630D01*
X1136500Y1622630D02*
X1161500Y1622630D01*
X730500Y1621630D02*
X883500Y1621630D01*
X969500Y1621630D02*
X1000500Y1621630D01*
X1136500Y1621630D02*
X1162500Y1621630D01*
X728500Y1620630D02*
X886500Y1620630D01*
X967500Y1620630D02*
X1000500Y1620630D01*
X1137500Y1620630D02*
X1162500Y1620630D01*
X726500Y1619630D02*
X889500Y1619630D01*
X965500Y1619630D02*
X999500Y1619630D01*
X1138500Y1619630D02*
X1163500Y1619630D01*
X724500Y1618630D02*
X892500Y1618630D01*
X964500Y1618630D02*
X998500Y1618630D01*
X1138500Y1618630D02*
X1163500Y1618630D01*
X722500Y1617630D02*
X895500Y1617630D01*
X962500Y1617630D02*
X997500Y1617630D01*
X1139500Y1617630D02*
X1164500Y1617630D01*
X720500Y1616630D02*
X899500Y1616630D01*
X959500Y1616630D02*
X997500Y1616630D01*
X1139500Y1616630D02*
X1164500Y1616630D01*
X718500Y1615630D02*
X903500Y1615630D01*
X957500Y1615630D02*
X996500Y1615630D01*
X1140500Y1615630D02*
X1164500Y1615630D01*
X717500Y1614630D02*
X907500Y1614630D01*
X954500Y1614630D02*
X995500Y1614630D01*
X1140500Y1614630D02*
X1165500Y1614630D01*
X715500Y1613630D02*
X912500Y1613630D01*
X950500Y1613630D02*
X994500Y1613630D01*
X1140500Y1613630D02*
X1165500Y1613630D01*
X714500Y1612630D02*
X919500Y1612630D01*
X943500Y1612630D02*
X993500Y1612630D01*
X1141500Y1612630D02*
X1166500Y1612630D01*
X712500Y1611630D02*
X992500Y1611630D01*
X1141500Y1611630D02*
X1166500Y1611630D01*
X711500Y1610630D02*
X796500Y1610630D01*
X803500Y1610630D02*
X991500Y1610630D01*
X1142500Y1610630D02*
X1166500Y1610630D01*
X709500Y1609630D02*
X778500Y1609630D01*
X821500Y1609630D02*
X990500Y1609630D01*
X1142500Y1609630D02*
X1167500Y1609630D01*
X708500Y1608630D02*
X770500Y1608630D01*
X830500Y1608630D02*
X989500Y1608630D01*
X1143500Y1608630D02*
X1167500Y1608630D01*
X706500Y1607630D02*
X765500Y1607630D01*
X837500Y1607630D02*
X988500Y1607630D01*
X1143500Y1607630D02*
X1168500Y1607630D01*
X705500Y1606630D02*
X760500Y1606630D01*
X843500Y1606630D02*
X987500Y1606630D01*
X1144500Y1606630D02*
X1168500Y1606630D01*
X704500Y1605630D02*
X756500Y1605630D01*
X848500Y1605630D02*
X986500Y1605630D01*
X1144500Y1605630D02*
X1168500Y1605630D01*
X703500Y1604630D02*
X752500Y1604630D01*
X854500Y1604630D02*
X985500Y1604630D01*
X1144500Y1604630D02*
X1169500Y1604630D01*
X701500Y1603630D02*
X749500Y1603630D01*
X858500Y1603630D02*
X984500Y1603630D01*
X1145500Y1603630D02*
X1169500Y1603630D01*
X700500Y1602630D02*
X746500Y1602630D01*
X862500Y1602630D02*
X982500Y1602630D01*
X1145500Y1602630D02*
X1169500Y1602630D01*
X699500Y1601630D02*
X743500Y1601630D01*
X866500Y1601630D02*
X981500Y1601630D01*
X1145500Y1601630D02*
X1170500Y1601630D01*
X698500Y1600630D02*
X741500Y1600630D01*
X870500Y1600630D02*
X979500Y1600630D01*
X1146500Y1600630D02*
X1170500Y1600630D01*
X697500Y1599630D02*
X739500Y1599630D01*
X874500Y1599630D02*
X977500Y1599630D01*
X1146500Y1599630D02*
X1170500Y1599630D01*
X696500Y1598630D02*
X737500Y1598630D01*
X877500Y1598630D02*
X976500Y1598630D01*
X1147500Y1598630D02*
X1171500Y1598630D01*
X695500Y1597630D02*
X734500Y1597630D01*
X880500Y1597630D02*
X974500Y1597630D01*
X1147500Y1597630D02*
X1171500Y1597630D01*
X694500Y1596630D02*
X733500Y1596630D01*
X883500Y1596630D02*
X972500Y1596630D01*
X1147500Y1596630D02*
X1171500Y1596630D01*
X693500Y1595630D02*
X731500Y1595630D01*
X886500Y1595630D02*
X970500Y1595630D01*
X1148500Y1595630D02*
X1171500Y1595630D01*
X692500Y1594630D02*
X729500Y1594630D01*
X889500Y1594630D02*
X967500Y1594630D01*
X1148500Y1594630D02*
X1172500Y1594630D01*
X691500Y1593630D02*
X727500Y1593630D01*
X893500Y1593630D02*
X965500Y1593630D01*
X1148500Y1593630D02*
X1172500Y1593630D01*
X690500Y1592630D02*
X726500Y1592630D01*
X897500Y1592630D02*
X962500Y1592630D01*
X1149500Y1592630D02*
X1172500Y1592630D01*
X689500Y1591630D02*
X724500Y1591630D01*
X901500Y1591630D02*
X959500Y1591630D01*
X1149500Y1591630D02*
X1172500Y1591630D01*
X688500Y1590630D02*
X723500Y1590630D01*
X906500Y1590630D02*
X955500Y1590630D01*
X1149500Y1590630D02*
X1173500Y1590630D01*
X687500Y1589630D02*
X721500Y1589630D01*
X912500Y1589630D02*
X950500Y1589630D01*
X1149500Y1589630D02*
X1173500Y1589630D01*
X687500Y1588630D02*
X720500Y1588630D01*
X919500Y1588630D02*
X943500Y1588630D01*
X1150500Y1588630D02*
X1173500Y1588630D01*
X686500Y1587630D02*
X719500Y1587630D01*
X1150500Y1587630D02*
X1173500Y1587630D01*
X685500Y1586630D02*
X717500Y1586630D01*
X1150500Y1586630D02*
X1174500Y1586630D01*
X684500Y1585630D02*
X716500Y1585630D01*
X1150500Y1585630D02*
X1174500Y1585630D01*
X683500Y1584630D02*
X715500Y1584630D01*
X1151500Y1584630D02*
X1174500Y1584630D01*
X683500Y1583630D02*
X714500Y1583630D01*
X1151500Y1583630D02*
X1174500Y1583630D01*
X682500Y1582630D02*
X713500Y1582630D01*
X1151500Y1582630D02*
X1175500Y1582630D01*
X681500Y1581630D02*
X712500Y1581630D01*
X1151500Y1581630D02*
X1175500Y1581630D01*
X681500Y1580630D02*
X711500Y1580630D01*
X1152500Y1580630D02*
X1175500Y1580630D01*
X680500Y1579630D02*
X710500Y1579630D01*
X1152500Y1579630D02*
X1175500Y1579630D01*
X679500Y1578630D02*
X709500Y1578630D01*
X1152500Y1578630D02*
X1175500Y1578630D01*
X679500Y1577630D02*
X708500Y1577630D01*
X1152500Y1577630D02*
X1175500Y1577630D01*
X678500Y1576630D02*
X707500Y1576630D01*
X1152500Y1576630D02*
X1176500Y1576630D01*
X677500Y1575630D02*
X706500Y1575630D01*
X1153500Y1575630D02*
X1176500Y1575630D01*
X677500Y1574630D02*
X705500Y1574630D01*
X1153500Y1574630D02*
X1176500Y1574630D01*
X676500Y1573630D02*
X704500Y1573630D01*
X1153500Y1573630D02*
X1176500Y1573630D01*
X676500Y1572630D02*
X704500Y1572630D01*
X1153500Y1572630D02*
X1176500Y1572630D01*
X675500Y1571630D02*
X703500Y1571630D01*
X1153500Y1571630D02*
X1176500Y1571630D01*
X675500Y1570630D02*
X702500Y1570630D01*
X1153500Y1570630D02*
X1176500Y1570630D01*
X674500Y1569630D02*
X701500Y1569630D01*
X1153500Y1569630D02*
X1177500Y1569630D01*
X674500Y1568630D02*
X701500Y1568630D01*
X1154500Y1568630D02*
X1177500Y1568630D01*
X673500Y1567630D02*
X700500Y1567630D01*
X1154500Y1567630D02*
X1177500Y1567630D01*
X672500Y1566630D02*
X699500Y1566630D01*
X1154500Y1566630D02*
X1177500Y1566630D01*
X672500Y1565630D02*
X699500Y1565630D01*
X1154500Y1565630D02*
X1177500Y1565630D01*
X671500Y1564630D02*
X698500Y1564630D01*
X1154500Y1564630D02*
X1177500Y1564630D01*
X671500Y1563630D02*
X697500Y1563630D01*
X1154500Y1563630D02*
X1177500Y1563630D01*
X671500Y1562630D02*
X697500Y1562630D01*
X1154500Y1562630D02*
X1177500Y1562630D01*
X670500Y1561630D02*
X696500Y1561630D01*
X1154500Y1561630D02*
X1177500Y1561630D01*
X670500Y1560630D02*
X695500Y1560630D01*
X1154500Y1560630D02*
X1177500Y1560630D01*
X669500Y1559630D02*
X695500Y1559630D01*
X1154500Y1559630D02*
X1178500Y1559630D01*
X669500Y1558630D02*
X694500Y1558630D01*
X1155500Y1558630D02*
X1178500Y1558630D01*
X668500Y1557630D02*
X694500Y1557630D01*
X1155500Y1557630D02*
X1178500Y1557630D01*
X668500Y1556630D02*
X693500Y1556630D01*
X1155500Y1556630D02*
X1178500Y1556630D01*
X668500Y1555630D02*
X693500Y1555630D01*
X1155500Y1555630D02*
X1178500Y1555630D01*
X667500Y1554630D02*
X692500Y1554630D01*
X1155500Y1554630D02*
X1178500Y1554630D01*
X667500Y1553630D02*
X692500Y1553630D01*
X1155500Y1553630D02*
X1178500Y1553630D01*
X666500Y1552630D02*
X691500Y1552630D01*
X1155500Y1552630D02*
X1178500Y1552630D01*
X666500Y1551630D02*
X691500Y1551630D01*
X1155500Y1551630D02*
X1178500Y1551630D01*
X666500Y1550630D02*
X690500Y1550630D01*
X1155500Y1550630D02*
X1178500Y1550630D01*
X665500Y1549630D02*
X690500Y1549630D01*
X1155500Y1549630D02*
X1178500Y1549630D01*
X665500Y1548630D02*
X690500Y1548630D01*
X1155500Y1548630D02*
X1178500Y1548630D01*
X665500Y1547630D02*
X689500Y1547630D01*
X1155500Y1547630D02*
X1178500Y1547630D01*
X664500Y1546630D02*
X689500Y1546630D01*
X1155500Y1546630D02*
X1178500Y1546630D01*
X664500Y1545630D02*
X688500Y1545630D01*
X1155500Y1545630D02*
X1178500Y1545630D01*
X664500Y1544630D02*
X688500Y1544630D01*
X1155500Y1544630D02*
X1178500Y1544630D01*
X663500Y1543630D02*
X688500Y1543630D01*
X1155500Y1543630D02*
X1178500Y1543630D01*
X663500Y1542630D02*
X687500Y1542630D01*
X1155500Y1542630D02*
X1178500Y1542630D01*
X663500Y1541630D02*
X687500Y1541630D01*
X1155500Y1541630D02*
X1178500Y1541630D01*
X662500Y1540630D02*
X687500Y1540630D01*
X1155500Y1540630D02*
X1178500Y1540630D01*
X662500Y1539630D02*
X686500Y1539630D01*
X1155500Y1539630D02*
X1178500Y1539630D01*
X662500Y1538630D02*
X686500Y1538630D01*
X1052500Y1538630D02*
X1060500Y1538630D01*
X1154500Y1538630D02*
X1177500Y1538630D01*
X662500Y1537630D02*
X686500Y1537630D01*
X1050500Y1537630D02*
X1062500Y1537630D01*
X1154500Y1537630D02*
X1177500Y1537630D01*
X662500Y1536630D02*
X685500Y1536630D01*
X1049500Y1536630D02*
X1063500Y1536630D01*
X1154500Y1536630D02*
X1177500Y1536630D01*
X662500Y1535630D02*
X685500Y1535630D01*
X1048500Y1535630D02*
X1064500Y1535630D01*
X1154500Y1535630D02*
X1177500Y1535630D01*
X662500Y1534630D02*
X685500Y1534630D01*
X1047500Y1534630D02*
X1065500Y1534630D01*
X1154500Y1534630D02*
X1177500Y1534630D01*
X662500Y1533630D02*
X684500Y1533630D01*
X1046500Y1533630D02*
X1066500Y1533630D01*
X1154500Y1533630D02*
X1177500Y1533630D01*
X663500Y1532630D02*
X684500Y1532630D01*
X1045500Y1532630D02*
X1066500Y1532630D01*
X1154500Y1532630D02*
X1177500Y1532630D01*
X663500Y1531630D02*
X684500Y1531630D01*
X1044500Y1531630D02*
X1067500Y1531630D01*
X1154500Y1531630D02*
X1177500Y1531630D01*
X664500Y1530630D02*
X683500Y1530630D01*
X1043500Y1530630D02*
X1067500Y1530630D01*
X1154500Y1530630D02*
X1177500Y1530630D01*
X665500Y1529630D02*
X682500Y1529630D01*
X1042500Y1529630D02*
X1067500Y1529630D01*
X1154500Y1529630D02*
X1177500Y1529630D01*
X665500Y1528630D02*
X681500Y1528630D01*
X1042500Y1528630D02*
X1067500Y1528630D01*
X1153500Y1528630D02*
X1177500Y1528630D01*
X667500Y1527630D02*
X680500Y1527630D01*
X1041500Y1527630D02*
X1067500Y1527630D01*
X1153500Y1527630D02*
X1176500Y1527630D01*
X668500Y1526630D02*
X679500Y1526630D01*
X1040500Y1526630D02*
X1067500Y1526630D01*
X1153500Y1526630D02*
X1176500Y1526630D01*
X670500Y1525630D02*
X676500Y1525630D01*
X1039500Y1525630D02*
X1067500Y1525630D01*
X1153500Y1525630D02*
X1176500Y1525630D01*
X1038500Y1524630D02*
X1067500Y1524630D01*
X1153500Y1524630D02*
X1176500Y1524630D01*
X1038500Y1523630D02*
X1067500Y1523630D01*
X1153500Y1523630D02*
X1176500Y1523630D01*
X1037500Y1522630D02*
X1066500Y1522630D01*
X1153500Y1522630D02*
X1176500Y1522630D01*
X1036500Y1521630D02*
X1066500Y1521630D01*
X1152500Y1521630D02*
X1176500Y1521630D01*
X1035500Y1520630D02*
X1065500Y1520630D01*
X1152500Y1520630D02*
X1176500Y1520630D01*
X1035500Y1519630D02*
X1064500Y1519630D01*
X1152500Y1519630D02*
X1175500Y1519630D01*
X1034500Y1518630D02*
X1064500Y1518630D01*
X1152500Y1518630D02*
X1175500Y1518630D01*
X1033500Y1517630D02*
X1063500Y1517630D01*
X1152500Y1517630D02*
X1175500Y1517630D01*
X1033500Y1516630D02*
X1062500Y1516630D01*
X1152500Y1516630D02*
X1175500Y1516630D01*
X1032500Y1515630D02*
X1061500Y1515630D01*
X1151500Y1515630D02*
X1175500Y1515630D01*
X1031500Y1514630D02*
X1060500Y1514630D01*
X1151500Y1514630D02*
X1174500Y1514630D01*
X1031500Y1513630D02*
X1059500Y1513630D01*
X1151500Y1513630D02*
X1174500Y1513630D01*
X1030500Y1512630D02*
X1059500Y1512630D01*
X1151500Y1512630D02*
X1174500Y1512630D01*
X1029500Y1511630D02*
X1058500Y1511630D01*
X1150500Y1511630D02*
X1174500Y1511630D01*
X1028500Y1510630D02*
X1057500Y1510630D01*
X1150500Y1510630D02*
X1174500Y1510630D01*
X1028500Y1509630D02*
X1056500Y1509630D01*
X1150500Y1509630D02*
X1173500Y1509630D01*
X1027500Y1508630D02*
X1055500Y1508630D01*
X1150500Y1508630D02*
X1173500Y1508630D01*
X1026500Y1507630D02*
X1055500Y1507630D01*
X1149500Y1507630D02*
X1173500Y1507630D01*
X1026500Y1506630D02*
X1054500Y1506630D01*
X1149500Y1506630D02*
X1173500Y1506630D01*
X1025500Y1505630D02*
X1053500Y1505630D01*
X1149500Y1505630D02*
X1173500Y1505630D01*
X1025500Y1504630D02*
X1052500Y1504630D01*
X1149500Y1504630D02*
X1172500Y1504630D01*
X1024500Y1503630D02*
X1052500Y1503630D01*
X1148500Y1503630D02*
X1172500Y1503630D01*
X1023500Y1502630D02*
X1051500Y1502630D01*
X1148500Y1502630D02*
X1172500Y1502630D01*
X1023500Y1501630D02*
X1050500Y1501630D01*
X1148500Y1501630D02*
X1172500Y1501630D01*
X1022500Y1500630D02*
X1050500Y1500630D01*
X1147500Y1500630D02*
X1171500Y1500630D01*
X1022500Y1499630D02*
X1049500Y1499630D01*
X1147500Y1499630D02*
X1171500Y1499630D01*
X1021500Y1498630D02*
X1048500Y1498630D01*
X1147500Y1498630D02*
X1171500Y1498630D01*
X1020500Y1497630D02*
X1048500Y1497630D01*
X1147500Y1497630D02*
X1170500Y1497630D01*
X1020500Y1496630D02*
X1047500Y1496630D01*
X1146500Y1496630D02*
X1170500Y1496630D01*
X1019500Y1495630D02*
X1046500Y1495630D01*
X1146500Y1495630D02*
X1170500Y1495630D01*
X1019500Y1494630D02*
X1046500Y1494630D01*
X1146500Y1494630D02*
X1170500Y1494630D01*
X1018500Y1493630D02*
X1045500Y1493630D01*
X1145500Y1493630D02*
X1169500Y1493630D01*
X1018500Y1492630D02*
X1044500Y1492630D01*
X1145500Y1492630D02*
X1169500Y1492630D01*
X1017500Y1491630D02*
X1044500Y1491630D01*
X1145500Y1491630D02*
X1169500Y1491630D01*
X1017500Y1490630D02*
X1043500Y1490630D01*
X1144500Y1490630D02*
X1168500Y1490630D01*
X1016500Y1489630D02*
X1043500Y1489630D01*
X1144500Y1489630D02*
X1168500Y1489630D01*
X1016500Y1488630D02*
X1042500Y1488630D01*
X1143500Y1488630D02*
X1168500Y1488630D01*
X1015500Y1487630D02*
X1041500Y1487630D01*
X1143500Y1487630D02*
X1167500Y1487630D01*
X1015500Y1486630D02*
X1041500Y1486630D01*
X1143500Y1486630D02*
X1167500Y1486630D01*
X1014500Y1485630D02*
X1040500Y1485630D01*
X1142500Y1485630D02*
X1167500Y1485630D01*
X1014500Y1484630D02*
X1040500Y1484630D01*
X1142500Y1484630D02*
X1166500Y1484630D01*
X1013500Y1483630D02*
X1039500Y1483630D01*
X1142500Y1483630D02*
X1166500Y1483630D01*
X1013500Y1482630D02*
X1039500Y1482630D01*
X1141500Y1482630D02*
X1166500Y1482630D01*
X1012500Y1481630D02*
X1038500Y1481630D01*
X1141500Y1481630D02*
X1165500Y1481630D01*
X1012500Y1480630D02*
X1037500Y1480630D01*
X1140500Y1480630D02*
X1165500Y1480630D01*
X1011500Y1479630D02*
X1037500Y1479630D01*
X1140500Y1479630D02*
X1165500Y1479630D01*
X1011500Y1478630D02*
X1036500Y1478630D01*
X1140500Y1478630D02*
X1164500Y1478630D01*
X1011500Y1477630D02*
X1036500Y1477630D01*
X1139500Y1477630D02*
X1164500Y1477630D01*
X1010500Y1476630D02*
X1035500Y1476630D01*
X1139500Y1476630D02*
X1164500Y1476630D01*
X1010500Y1475630D02*
X1035500Y1475630D01*
X1138500Y1475630D02*
X1163500Y1475630D01*
X1009500Y1474630D02*
X1034500Y1474630D01*
X1138500Y1474630D02*
X1163500Y1474630D01*
X1009500Y1473630D02*
X1034500Y1473630D01*
X1137500Y1473630D02*
X1162500Y1473630D01*
X1008500Y1472630D02*
X1034500Y1472630D01*
X1137500Y1472630D02*
X1162500Y1472630D01*
X1008500Y1471630D02*
X1033500Y1471630D01*
X1136500Y1471630D02*
X1162500Y1471630D01*
X1008500Y1470630D02*
X1033500Y1470630D01*
X1136500Y1470630D02*
X1161500Y1470630D01*
X1007500Y1469630D02*
X1032500Y1469630D01*
X1136500Y1469630D02*
X1161500Y1469630D01*
X1007500Y1468630D02*
X1032500Y1468630D01*
X1135500Y1468630D02*
X1160500Y1468630D01*
X1007500Y1467630D02*
X1031500Y1467630D01*
X1135500Y1467630D02*
X1160500Y1467630D01*
X1006500Y1466630D02*
X1031500Y1466630D01*
X1134500Y1466630D02*
X1159500Y1466630D01*
X1006500Y1465630D02*
X1030500Y1465630D01*
X1134500Y1465630D02*
X1159500Y1465630D01*
X1006500Y1464630D02*
X1030500Y1464630D01*
X1133500Y1464630D02*
X1159500Y1464630D01*
X1005500Y1463630D02*
X1030500Y1463630D01*
X1133500Y1463630D02*
X1158500Y1463630D01*
X1005500Y1462630D02*
X1029500Y1462630D01*
X1132500Y1462630D02*
X1158500Y1462630D01*
X1005500Y1461630D02*
X1023500Y1461630D01*
X1029500Y1461630D02*
X1029500Y1461630D01*
X1132500Y1461630D02*
X1157500Y1461630D01*
X1004500Y1460630D02*
X1029500Y1460630D01*
X1131500Y1460630D02*
X1157500Y1460630D01*
X1004500Y1459630D02*
X1028500Y1459630D01*
X1131500Y1459630D02*
X1156500Y1459630D01*
X1004500Y1458630D02*
X1028500Y1458630D01*
X1130500Y1458630D02*
X1156500Y1458630D01*
X1003500Y1457630D02*
X1027500Y1457630D01*
X1130500Y1457630D02*
X1155500Y1457630D01*
X1003500Y1456630D02*
X1027500Y1456630D01*
X1129500Y1456630D02*
X1155500Y1456630D01*
X1003500Y1455630D02*
X1027500Y1455630D01*
X1128500Y1455630D02*
X1154500Y1455630D01*
X1002500Y1454630D02*
X1026500Y1454630D01*
X1128500Y1454630D02*
X1154500Y1454630D01*
X1002500Y1453630D02*
X1026500Y1453630D01*
X1127500Y1453630D02*
X1153500Y1453630D01*
X1002500Y1452630D02*
X1026500Y1452630D01*
X1127500Y1452630D02*
X1153500Y1452630D01*
X1002500Y1451630D02*
X1026500Y1451630D01*
X1126500Y1451630D02*
X1152500Y1451630D01*
X1001500Y1450630D02*
X1025500Y1450630D01*
X1126500Y1450630D02*
X1152500Y1450630D01*
X1001500Y1449630D02*
X1025500Y1449630D01*
X1125500Y1449630D02*
X1151500Y1449630D01*
X1001500Y1448630D02*
X1025500Y1448630D01*
X1125500Y1448630D02*
X1151500Y1448630D01*
X1001500Y1447630D02*
X1024500Y1447630D01*
X1124500Y1447630D02*
X1150500Y1447630D01*
X1000500Y1446630D02*
X1024500Y1446630D01*
X1123500Y1446630D02*
X1150500Y1446630D01*
X1000500Y1445630D02*
X1024500Y1445630D01*
X1123500Y1445630D02*
X1149500Y1445630D01*
X1000500Y1444630D02*
X1024500Y1444630D01*
X1122500Y1444630D02*
X1149500Y1444630D01*
X1000500Y1443630D02*
X1023500Y1443630D01*
X1122500Y1443630D02*
X1148500Y1443630D01*
X1000500Y1442630D02*
X1023500Y1442630D01*
X1121500Y1442630D02*
X1148500Y1442630D01*
X1000500Y1441630D02*
X1023500Y1441630D01*
X1120500Y1441630D02*
X1147500Y1441630D01*
X999500Y1440630D02*
X1023500Y1440630D01*
X1120500Y1440630D02*
X1147500Y1440630D01*
X999500Y1439630D02*
X1023500Y1439630D01*
X1119500Y1439630D02*
X1146500Y1439630D01*
X999500Y1438630D02*
X1022500Y1438630D01*
X1118500Y1438630D02*
X1145500Y1438630D01*
X999500Y1437630D02*
X1022500Y1437630D01*
X1118500Y1437630D02*
X1145500Y1437630D01*
X999500Y1436630D02*
X1022500Y1436630D01*
X1117500Y1436630D02*
X1144500Y1436630D01*
X998500Y1435630D02*
X1022500Y1435630D01*
X1117500Y1435630D02*
X1144500Y1435630D01*
X998500Y1434630D02*
X1022500Y1434630D01*
X1116500Y1434630D02*
X1143500Y1434630D01*
X998500Y1433630D02*
X1021500Y1433630D01*
X1115500Y1433630D02*
X1143500Y1433630D01*
X998500Y1432630D02*
X1021500Y1432630D01*
X1115500Y1432630D02*
X1142500Y1432630D01*
X998500Y1431630D02*
X1021500Y1431630D01*
X1114500Y1431630D02*
X1141500Y1431630D01*
X998500Y1430630D02*
X1021500Y1430630D01*
X1113500Y1430630D02*
X1141500Y1430630D01*
X998500Y1429630D02*
X1021500Y1429630D01*
X1113500Y1429630D02*
X1140500Y1429630D01*
X998500Y1428630D02*
X1021500Y1428630D01*
X1112500Y1428630D02*
X1139500Y1428630D01*
X998500Y1427630D02*
X1021500Y1427630D01*
X1111500Y1427630D02*
X1139500Y1427630D01*
X998500Y1426630D02*
X1021500Y1426630D01*
X1111500Y1426630D02*
X1138500Y1426630D01*
X998500Y1425630D02*
X1020500Y1425630D01*
X1110500Y1425630D02*
X1138500Y1425630D01*
X997500Y1424630D02*
X1020500Y1424630D01*
X1109500Y1424630D02*
X1137500Y1424630D01*
X997500Y1423630D02*
X1020500Y1423630D01*
X1109500Y1423630D02*
X1136500Y1423630D01*
X997500Y1422630D02*
X1020500Y1422630D01*
X1108500Y1422630D02*
X1136500Y1422630D01*
X997500Y1421630D02*
X1020500Y1421630D01*
X1107500Y1421630D02*
X1135500Y1421630D01*
X997500Y1420630D02*
X1020500Y1420630D01*
X1106500Y1420630D02*
X1134500Y1420630D01*
X997500Y1419630D02*
X1020500Y1419630D01*
X1106500Y1419630D02*
X1134500Y1419630D01*
X997500Y1418630D02*
X1020500Y1418630D01*
X1105500Y1418630D02*
X1133500Y1418630D01*
X997500Y1417630D02*
X1020500Y1417630D01*
X1104500Y1417630D02*
X1132500Y1417630D01*
X997500Y1416630D02*
X1020500Y1416630D01*
X1103500Y1416630D02*
X1132500Y1416630D01*
X997500Y1415630D02*
X1020500Y1415630D01*
X1103500Y1415630D02*
X1131500Y1415630D01*
X997500Y1414630D02*
X1020500Y1414630D01*
X1102500Y1414630D02*
X1130500Y1414630D01*
X997500Y1413630D02*
X1020500Y1413630D01*
X1101500Y1413630D02*
X1130500Y1413630D01*
X997500Y1412630D02*
X1020500Y1412630D01*
X1101500Y1412630D02*
X1129500Y1412630D01*
X997500Y1411630D02*
X1020500Y1411630D01*
X1100500Y1411630D02*
X1128500Y1411630D01*
X997500Y1410630D02*
X1020500Y1410630D01*
X1100500Y1410630D02*
X1128500Y1410630D01*
X997500Y1409630D02*
X1020500Y1409630D01*
X1099500Y1409630D02*
X1127500Y1409630D01*
X998500Y1408630D02*
X1020500Y1408630D01*
X1099500Y1408630D02*
X1126500Y1408630D01*
X998500Y1407630D02*
X1020500Y1407630D01*
X1099500Y1407630D02*
X1126500Y1407630D01*
X998500Y1406630D02*
X1020500Y1406630D01*
X1099500Y1406630D02*
X1125500Y1406630D01*
X998500Y1405630D02*
X1021500Y1405630D01*
X1099500Y1405630D02*
X1124500Y1405630D01*
X998500Y1404630D02*
X1021500Y1404630D01*
X1099500Y1404630D02*
X1123500Y1404630D01*
X998500Y1403630D02*
X1021500Y1403630D01*
X1099500Y1403630D02*
X1123500Y1403630D01*
X998500Y1402630D02*
X1021500Y1402630D01*
X1100500Y1402630D02*
X1122500Y1402630D01*
X998500Y1401630D02*
X1021500Y1401630D01*
X1100500Y1401630D02*
X1121500Y1401630D01*
X998500Y1400630D02*
X1021500Y1400630D01*
X1101500Y1400630D02*
X1120500Y1400630D01*
X998500Y1399630D02*
X1021500Y1399630D01*
X1101500Y1399630D02*
X1120500Y1399630D01*
X999500Y1398630D02*
X1022500Y1398630D01*
X1102500Y1398630D02*
X1119500Y1398630D01*
X999500Y1397630D02*
X1022500Y1397630D01*
X1103500Y1397630D02*
X1118500Y1397630D01*
X999500Y1396630D02*
X1022500Y1396630D01*
X1104500Y1396630D02*
X1117500Y1396630D01*
X999500Y1395630D02*
X1022500Y1395630D01*
X1106500Y1395630D02*
X1115500Y1395630D01*
X999500Y1394630D02*
X1022500Y1394630D01*
X999500Y1393630D02*
X1023500Y1393630D01*
X1000500Y1392630D02*
X1023500Y1392630D01*
X1000500Y1391630D02*
X1023500Y1391630D01*
X1000500Y1390630D02*
X1023500Y1390630D01*
X1366500Y1390630D02*
X1464500Y1390630D01*
X1000500Y1389630D02*
X1024500Y1389630D01*
X1335500Y1389630D02*
X1492500Y1389630D01*
X1000500Y1388630D02*
X1024500Y1388630D01*
X1314500Y1388630D02*
X1511500Y1388630D01*
X1001500Y1387630D02*
X1024500Y1387630D01*
X1268500Y1387630D02*
X1274500Y1387630D01*
X1297500Y1387630D02*
X1527500Y1387630D01*
X1001500Y1386630D02*
X1025500Y1386630D01*
X1249500Y1386630D02*
X1540500Y1386630D01*
X1001500Y1385630D02*
X1025500Y1385630D01*
X1241500Y1385630D02*
X1552500Y1385630D01*
X1001500Y1384630D02*
X1025500Y1384630D01*
X1235500Y1384630D02*
X1562500Y1384630D01*
X1002500Y1383630D02*
X1026500Y1383630D01*
X1231500Y1383630D02*
X1572500Y1383630D01*
X1002500Y1382630D02*
X1026500Y1382630D01*
X1227500Y1382630D02*
X1581500Y1382630D01*
X1002500Y1381630D02*
X1026500Y1381630D01*
X1224500Y1381630D02*
X1589500Y1381630D01*
X1002500Y1380630D02*
X1027500Y1380630D01*
X1222500Y1380630D02*
X1597500Y1380630D01*
X1003500Y1379630D02*
X1027500Y1379630D01*
X1219500Y1379630D02*
X1604500Y1379630D01*
X1003500Y1378630D02*
X1028500Y1378630D01*
X1217500Y1378630D02*
X1611500Y1378630D01*
X1003500Y1377630D02*
X1028500Y1377630D01*
X1215500Y1377630D02*
X1617500Y1377630D01*
X1004500Y1376630D02*
X1028500Y1376630D01*
X1213500Y1376630D02*
X1624500Y1376630D01*
X1004500Y1375630D02*
X1029500Y1375630D01*
X1211500Y1375630D02*
X1629500Y1375630D01*
X1004500Y1374630D02*
X1029500Y1374630D01*
X1209500Y1374630D02*
X1635500Y1374630D01*
X1005500Y1373630D02*
X1030500Y1373630D01*
X1208500Y1373630D02*
X1640500Y1373630D01*
X1005500Y1372630D02*
X1030500Y1372630D01*
X1206500Y1372630D02*
X1646500Y1372630D01*
X1006500Y1371630D02*
X1031500Y1371630D01*
X1205500Y1371630D02*
X1650500Y1371630D01*
X1006500Y1370630D02*
X1031500Y1370630D01*
X1204500Y1370630D02*
X1655500Y1370630D01*
X1006500Y1369630D02*
X1032500Y1369630D01*
X1203500Y1369630D02*
X1660500Y1369630D01*
X1007500Y1368630D02*
X1032500Y1368630D01*
X1201500Y1368630D02*
X1664500Y1368630D01*
X1007500Y1367630D02*
X1033500Y1367630D01*
X1200500Y1367630D02*
X1668500Y1367630D01*
X1008500Y1366630D02*
X1033500Y1366630D01*
X1199500Y1366630D02*
X1365500Y1366630D01*
X1465500Y1366630D02*
X1672500Y1366630D01*
X1008500Y1365630D02*
X1034500Y1365630D01*
X1199500Y1365630D02*
X1335500Y1365630D01*
X1492500Y1365630D02*
X1676500Y1365630D01*
X1008500Y1364630D02*
X1035500Y1364630D01*
X1198500Y1364630D02*
X1313500Y1364630D01*
X1511500Y1364630D02*
X1680500Y1364630D01*
X1009500Y1363630D02*
X1035500Y1363630D01*
X1197500Y1363630D02*
X1265500Y1363630D01*
X1275500Y1363630D02*
X1297500Y1363630D01*
X1527500Y1363630D02*
X1684500Y1363630D01*
X1009500Y1362630D02*
X1036500Y1362630D01*
X1196500Y1362630D02*
X1249500Y1362630D01*
X1540500Y1362630D02*
X1687500Y1362630D01*
X1010500Y1361630D02*
X1036500Y1361630D01*
X1195500Y1361630D02*
X1242500Y1361630D01*
X1552500Y1361630D02*
X1691500Y1361630D01*
X1010500Y1360630D02*
X1037500Y1360630D01*
X1195500Y1360630D02*
X1237500Y1360630D01*
X1562500Y1360630D02*
X1694500Y1360630D01*
X1011500Y1359630D02*
X1038500Y1359630D01*
X1194500Y1359630D02*
X1233500Y1359630D01*
X1572500Y1359630D02*
X1698500Y1359630D01*
X1011500Y1358630D02*
X1038500Y1358630D01*
X1193500Y1358630D02*
X1230500Y1358630D01*
X1580500Y1358630D02*
X1701500Y1358630D01*
X1012500Y1357630D02*
X1039500Y1357630D01*
X1193500Y1357630D02*
X1227500Y1357630D01*
X1589500Y1357630D02*
X1704500Y1357630D01*
X1012500Y1356630D02*
X1040500Y1356630D01*
X1192500Y1356630D02*
X1225500Y1356630D01*
X1597500Y1356630D02*
X1707500Y1356630D01*
X1013500Y1355630D02*
X1040500Y1355630D01*
X1192500Y1355630D02*
X1223500Y1355630D01*
X1603500Y1355630D02*
X1710500Y1355630D01*
X1014500Y1354630D02*
X1041500Y1354630D01*
X1191500Y1354630D02*
X1221500Y1354630D01*
X1610500Y1354630D02*
X1713500Y1354630D01*
X1014500Y1353630D02*
X1042500Y1353630D01*
X1191500Y1353630D02*
X1220500Y1353630D01*
X1617500Y1353630D02*
X1715500Y1353630D01*
X1015500Y1352630D02*
X1042500Y1352630D01*
X1190500Y1352630D02*
X1219500Y1352630D01*
X1623500Y1352630D02*
X1718500Y1352630D01*
X1015500Y1351630D02*
X1043500Y1351630D01*
X1190500Y1351630D02*
X1217500Y1351630D01*
X1628500Y1351630D02*
X1721500Y1351630D01*
X1016500Y1350630D02*
X1044500Y1350630D01*
X1190500Y1350630D02*
X1216500Y1350630D01*
X1634500Y1350630D02*
X1723500Y1350630D01*
X1017500Y1349630D02*
X1045500Y1349630D01*
X1189500Y1349630D02*
X1216500Y1349630D01*
X1639500Y1349630D02*
X1726500Y1349630D01*
X1017500Y1348630D02*
X1046500Y1348630D01*
X1189500Y1348630D02*
X1215500Y1348630D01*
X1644500Y1348630D02*
X1728500Y1348630D01*
X1018500Y1347630D02*
X1046500Y1347630D01*
X1188500Y1347630D02*
X1214500Y1347630D01*
X1649500Y1347630D02*
X1731500Y1347630D01*
X1018500Y1346630D02*
X1047500Y1346630D01*
X1188500Y1346630D02*
X1213500Y1346630D01*
X1653500Y1346630D02*
X1733500Y1346630D01*
X1019500Y1345630D02*
X1048500Y1345630D01*
X1188500Y1345630D02*
X1213500Y1345630D01*
X1658500Y1345630D02*
X1735500Y1345630D01*
X1020500Y1344630D02*
X1049500Y1344630D01*
X1188500Y1344630D02*
X1212500Y1344630D01*
X1663500Y1344630D02*
X1737500Y1344630D01*
X1020500Y1343630D02*
X1050500Y1343630D01*
X1187500Y1343630D02*
X1211500Y1343630D01*
X1667500Y1343630D02*
X1740500Y1343630D01*
X1021500Y1342630D02*
X1051500Y1342630D01*
X1187500Y1342630D02*
X1211500Y1342630D01*
X1671500Y1342630D02*
X1742500Y1342630D01*
X1022500Y1341630D02*
X1052500Y1341630D01*
X1192500Y1341630D02*
X1211500Y1341630D01*
X1675500Y1341630D02*
X1744500Y1341630D01*
X1023500Y1340630D02*
X1052500Y1340630D01*
X1187500Y1340630D02*
X1210500Y1340630D01*
X1678500Y1340630D02*
X1746500Y1340630D01*
X1023500Y1339630D02*
X1053500Y1339630D01*
X1186500Y1339630D02*
X1210500Y1339630D01*
X1682500Y1339630D02*
X1748500Y1339630D01*
X1024500Y1338630D02*
X1054500Y1338630D01*
X1186500Y1338630D02*
X1210500Y1338630D01*
X1685500Y1338630D02*
X1749500Y1338630D01*
X1025500Y1337630D02*
X1055500Y1337630D01*
X1186500Y1337630D02*
X1209500Y1337630D01*
X1689500Y1337630D02*
X1751500Y1337630D01*
X1026500Y1336630D02*
X1056500Y1336630D01*
X1186500Y1336630D02*
X1209500Y1336630D01*
X1692500Y1336630D02*
X1753500Y1336630D01*
X1026500Y1335630D02*
X1057500Y1335630D01*
X1186500Y1335630D02*
X1209500Y1335630D01*
X1695500Y1335630D02*
X1755500Y1335630D01*
X1027500Y1334630D02*
X1058500Y1334630D01*
X1185500Y1334630D02*
X1209500Y1334630D01*
X1698500Y1334630D02*
X1757500Y1334630D01*
X1028500Y1333630D02*
X1059500Y1333630D01*
X1185500Y1333630D02*
X1208500Y1333630D01*
X1701500Y1333630D02*
X1758500Y1333630D01*
X1029500Y1332630D02*
X1061500Y1332630D01*
X1185500Y1332630D02*
X1208500Y1332630D01*
X1704500Y1332630D02*
X1760500Y1332630D01*
X1030500Y1331630D02*
X1062500Y1331630D01*
X1185500Y1331630D02*
X1208500Y1331630D01*
X1707500Y1331630D02*
X1761500Y1331630D01*
X1031500Y1330630D02*
X1063500Y1330630D01*
X1185500Y1330630D02*
X1208500Y1330630D01*
X1709500Y1330630D02*
X1763500Y1330630D01*
X1031500Y1329630D02*
X1064500Y1329630D01*
X1185500Y1329630D02*
X1208500Y1329630D01*
X1712500Y1329630D02*
X1765500Y1329630D01*
X1032500Y1328630D02*
X1065500Y1328630D01*
X1185500Y1328630D02*
X1208500Y1328630D01*
X1715500Y1328630D02*
X1766500Y1328630D01*
X1033500Y1327630D02*
X1066500Y1327630D01*
X1185500Y1327630D02*
X1208500Y1327630D01*
X1717500Y1327630D02*
X1768500Y1327630D01*
X1034500Y1326630D02*
X1067500Y1326630D01*
X1184500Y1326630D02*
X1207500Y1326630D01*
X1720500Y1326630D02*
X1769500Y1326630D01*
X1035500Y1325630D02*
X1069500Y1325630D01*
X1184500Y1325630D02*
X1207500Y1325630D01*
X1722500Y1325630D02*
X1770500Y1325630D01*
X1036500Y1324630D02*
X1070500Y1324630D01*
X1184500Y1324630D02*
X1207500Y1324630D01*
X1724500Y1324630D02*
X1772500Y1324630D01*
X1037500Y1323630D02*
X1071500Y1323630D01*
X1184500Y1323630D02*
X1207500Y1323630D01*
X1727500Y1323630D02*
X1773500Y1323630D01*
X1038500Y1322630D02*
X1072500Y1322630D01*
X1184500Y1322630D02*
X1207500Y1322630D01*
X1729500Y1322630D02*
X1774500Y1322630D01*
X1039500Y1321630D02*
X1074500Y1321630D01*
X1184500Y1321630D02*
X1207500Y1321630D01*
X1731500Y1321630D02*
X1776500Y1321630D01*
X1040500Y1320630D02*
X1075500Y1320630D01*
X1184500Y1320630D02*
X1207500Y1320630D01*
X1733500Y1320630D02*
X1777500Y1320630D01*
X1041500Y1319630D02*
X1076500Y1319630D01*
X1184500Y1319630D02*
X1207500Y1319630D01*
X1735500Y1319630D02*
X1778500Y1319630D01*
X1042500Y1318630D02*
X1078500Y1318630D01*
X1184500Y1318630D02*
X1207500Y1318630D01*
X1737500Y1318630D02*
X1780500Y1318630D01*
X1043500Y1317630D02*
X1079500Y1317630D01*
X1184500Y1317630D02*
X1207500Y1317630D01*
X1739500Y1317630D02*
X1781500Y1317630D01*
X1044500Y1316630D02*
X1080500Y1316630D01*
X1184500Y1316630D02*
X1207500Y1316630D01*
X1741500Y1316630D02*
X1782500Y1316630D01*
X1045500Y1315630D02*
X1082500Y1315630D01*
X1184500Y1315630D02*
X1207500Y1315630D01*
X1743500Y1315630D02*
X1783500Y1315630D01*
X1046500Y1314630D02*
X1083500Y1314630D01*
X1184500Y1314630D02*
X1207500Y1314630D01*
X1744500Y1314630D02*
X1784500Y1314630D01*
X1047500Y1313630D02*
X1085500Y1313630D01*
X1184500Y1313630D02*
X1207500Y1313630D01*
X1746500Y1313630D02*
X1785500Y1313630D01*
X1048500Y1312630D02*
X1086500Y1312630D01*
X1184500Y1312630D02*
X1207500Y1312630D01*
X1748500Y1312630D02*
X1786500Y1312630D01*
X1049500Y1311630D02*
X1088500Y1311630D01*
X1184500Y1311630D02*
X1207500Y1311630D01*
X1749500Y1311630D02*
X1787500Y1311630D01*
X1051500Y1310630D02*
X1089500Y1310630D01*
X1184500Y1310630D02*
X1207500Y1310630D01*
X1751500Y1310630D02*
X1788500Y1310630D01*
X1052500Y1309630D02*
X1091500Y1309630D01*
X1184500Y1309630D02*
X1207500Y1309630D01*
X1753500Y1309630D02*
X1789500Y1309630D01*
X1053500Y1308630D02*
X1092500Y1308630D01*
X1184500Y1308630D02*
X1207500Y1308630D01*
X1754500Y1308630D02*
X1790500Y1308630D01*
X1054500Y1307630D02*
X1094500Y1307630D01*
X1184500Y1307630D02*
X1207500Y1307630D01*
X1756500Y1307630D02*
X1791500Y1307630D01*
X1055500Y1306630D02*
X1096500Y1306630D01*
X1183500Y1306630D02*
X1207500Y1306630D01*
X1757500Y1306630D02*
X1792500Y1306630D01*
X1057500Y1305630D02*
X1097500Y1305630D01*
X1183500Y1305630D02*
X1206500Y1305630D01*
X1758500Y1305630D02*
X1793500Y1305630D01*
X1058500Y1304630D02*
X1099500Y1304630D01*
X1183500Y1304630D02*
X1206500Y1304630D01*
X1760500Y1304630D02*
X1794500Y1304630D01*
X1059500Y1303630D02*
X1101500Y1303630D01*
X1183500Y1303630D02*
X1206500Y1303630D01*
X1761500Y1303630D02*
X1794500Y1303630D01*
X1060500Y1302630D02*
X1102500Y1302630D01*
X1183500Y1302630D02*
X1206500Y1302630D01*
X1762500Y1302630D02*
X1795500Y1302630D01*
X1062500Y1301630D02*
X1104500Y1301630D01*
X1183500Y1301630D02*
X1206500Y1301630D01*
X1764500Y1301630D02*
X1796500Y1301630D01*
X1063500Y1300630D02*
X1106500Y1300630D01*
X1183500Y1300630D02*
X1206500Y1300630D01*
X1765500Y1300630D02*
X1797500Y1300630D01*
X1064500Y1299630D02*
X1108500Y1299630D01*
X1183500Y1299630D02*
X1206500Y1299630D01*
X1766500Y1299630D02*
X1798500Y1299630D01*
X1066500Y1298630D02*
X1109500Y1298630D01*
X1183500Y1298630D02*
X1206500Y1298630D01*
X1767500Y1298630D02*
X1798500Y1298630D01*
X1067500Y1297630D02*
X1111500Y1297630D01*
X1183500Y1297630D02*
X1206500Y1297630D01*
X1768500Y1297630D02*
X1799500Y1297630D01*
X1068500Y1296630D02*
X1113500Y1296630D01*
X1183500Y1296630D02*
X1206500Y1296630D01*
X1769500Y1296630D02*
X1800500Y1296630D01*
X1070500Y1295630D02*
X1115500Y1295630D01*
X1183500Y1295630D02*
X1206500Y1295630D01*
X1275500Y1295630D02*
X1278500Y1295630D01*
X1770500Y1295630D02*
X1800500Y1295630D01*
X1071500Y1294630D02*
X1117500Y1294630D01*
X1183500Y1294630D02*
X1206500Y1294630D01*
X1272500Y1294630D02*
X1281500Y1294630D01*
X1771500Y1294630D02*
X1801500Y1294630D01*
X1073500Y1293630D02*
X1118500Y1293630D01*
X1183500Y1293630D02*
X1206500Y1293630D01*
X1270500Y1293630D02*
X1283500Y1293630D01*
X1772500Y1293630D02*
X1802500Y1293630D01*
X1074500Y1292630D02*
X1119500Y1292630D01*
X1183500Y1292630D02*
X1206500Y1292630D01*
X1269500Y1292630D02*
X1284500Y1292630D01*
X1773500Y1292630D02*
X1802500Y1292630D01*
X1076500Y1291630D02*
X1120500Y1291630D01*
X1183500Y1291630D02*
X1206500Y1291630D01*
X1268500Y1291630D02*
X1285500Y1291630D01*
X1774500Y1291630D02*
X1803500Y1291630D01*
X1077500Y1290630D02*
X1120500Y1290630D01*
X1183500Y1290630D02*
X1206500Y1290630D01*
X1267500Y1290630D02*
X1286500Y1290630D01*
X1775500Y1290630D02*
X1803500Y1290630D01*
X1079500Y1289630D02*
X1121500Y1289630D01*
X1183500Y1289630D02*
X1206500Y1289630D01*
X1266500Y1289630D02*
X1287500Y1289630D01*
X1776500Y1289630D02*
X1804500Y1289630D01*
X1080500Y1288630D02*
X1121500Y1288630D01*
X1183500Y1288630D02*
X1206500Y1288630D01*
X1266500Y1288630D02*
X1287500Y1288630D01*
X1777500Y1288630D02*
X1805500Y1288630D01*
X1082500Y1287630D02*
X1122500Y1287630D01*
X1183500Y1287630D02*
X1206500Y1287630D01*
X1266500Y1287630D02*
X1288500Y1287630D01*
X1778500Y1287630D02*
X1805500Y1287630D01*
X1083500Y1286630D02*
X1122500Y1286630D01*
X1183500Y1286630D02*
X1206500Y1286630D01*
X1265500Y1286630D02*
X1288500Y1286630D01*
X1778500Y1286630D02*
X1806500Y1286630D01*
X1085500Y1285630D02*
X1122500Y1285630D01*
X1183500Y1285630D02*
X1206500Y1285630D01*
X1265500Y1285630D02*
X1289500Y1285630D01*
X1779500Y1285630D02*
X1806500Y1285630D01*
X1087500Y1284630D02*
X1122500Y1284630D01*
X1182500Y1284630D02*
X1206500Y1284630D01*
X1265500Y1284630D02*
X1289500Y1284630D01*
X1780500Y1284630D02*
X1807500Y1284630D01*
X1088500Y1283630D02*
X1122500Y1283630D01*
X1182500Y1283630D02*
X1205500Y1283630D01*
X1265500Y1283630D02*
X1290500Y1283630D01*
X1781500Y1283630D02*
X1807500Y1283630D01*
X1090500Y1282630D02*
X1122500Y1282630D01*
X1182500Y1282630D02*
X1205500Y1282630D01*
X1265500Y1282630D02*
X1291500Y1282630D01*
X1781500Y1282630D02*
X1808500Y1282630D01*
X1092500Y1281630D02*
X1122500Y1281630D01*
X1182500Y1281630D02*
X1205500Y1281630D01*
X1265500Y1281630D02*
X1291500Y1281630D01*
X1782500Y1281630D02*
X1808500Y1281630D01*
X1094500Y1280630D02*
X1121500Y1280630D01*
X1182500Y1280630D02*
X1205500Y1280630D01*
X1265500Y1280630D02*
X1292500Y1280630D01*
X1783500Y1280630D02*
X1808500Y1280630D01*
X1095500Y1279630D02*
X1121500Y1279630D01*
X1182500Y1279630D02*
X1205500Y1279630D01*
X1266500Y1279630D02*
X1292500Y1279630D01*
X1783500Y1279630D02*
X1809500Y1279630D01*
X1097500Y1278630D02*
X1120500Y1278630D01*
X1182500Y1278630D02*
X1205500Y1278630D01*
X1266500Y1278630D02*
X1293500Y1278630D01*
X1784500Y1278630D02*
X1809500Y1278630D01*
X1099500Y1277630D02*
X1120500Y1277630D01*
X1182500Y1277630D02*
X1205500Y1277630D01*
X1267500Y1277630D02*
X1294500Y1277630D01*
X1785500Y1277630D02*
X1810500Y1277630D01*
X1101500Y1276630D02*
X1119500Y1276630D01*
X1181500Y1276630D02*
X1205500Y1276630D01*
X1267500Y1276630D02*
X1294500Y1276630D01*
X1785500Y1276630D02*
X1810500Y1276630D01*
X1103500Y1275630D02*
X1118500Y1275630D01*
X1181500Y1275630D02*
X1205500Y1275630D01*
X1268500Y1275630D02*
X1295500Y1275630D01*
X1786500Y1275630D02*
X1810500Y1275630D01*
X1104500Y1274630D02*
X1116500Y1274630D01*
X1181500Y1274630D02*
X1204500Y1274630D01*
X1269500Y1274630D02*
X1295500Y1274630D01*
X1786500Y1274630D02*
X1811500Y1274630D01*
X1107500Y1273630D02*
X1114500Y1273630D01*
X1181500Y1273630D02*
X1204500Y1273630D01*
X1269500Y1273630D02*
X1296500Y1273630D01*
X1787500Y1273630D02*
X1811500Y1273630D01*
X1181500Y1272630D02*
X1204500Y1272630D01*
X1270500Y1272630D02*
X1296500Y1272630D01*
X1787500Y1272630D02*
X1811500Y1272630D01*
X1181500Y1271630D02*
X1204500Y1271630D01*
X1270500Y1271630D02*
X1297500Y1271630D01*
X1788500Y1271630D02*
X1812500Y1271630D01*
X1180500Y1270630D02*
X1204500Y1270630D01*
X1271500Y1270630D02*
X1297500Y1270630D01*
X1788500Y1270630D02*
X1812500Y1270630D01*
X1180500Y1269630D02*
X1204500Y1269630D01*
X1271500Y1269630D02*
X1298500Y1269630D01*
X1788500Y1269630D02*
X1812500Y1269630D01*
X1180500Y1268630D02*
X1203500Y1268630D01*
X1272500Y1268630D02*
X1299500Y1268630D01*
X1789500Y1268630D02*
X1813500Y1268630D01*
X1180500Y1267630D02*
X1203500Y1267630D01*
X1273500Y1267630D02*
X1299500Y1267630D01*
X1789500Y1267630D02*
X1813500Y1267630D01*
X1180500Y1266630D02*
X1203500Y1266630D01*
X1273500Y1266630D02*
X1300500Y1266630D01*
X1789500Y1266630D02*
X1813500Y1266630D01*
X1179500Y1265630D02*
X1203500Y1265630D01*
X1274500Y1265630D02*
X1300500Y1265630D01*
X1790500Y1265630D02*
X1813500Y1265630D01*
X1179500Y1264630D02*
X1203500Y1264630D01*
X1274500Y1264630D02*
X1301500Y1264630D01*
X1790500Y1264630D02*
X1813500Y1264630D01*
X1179500Y1263630D02*
X1202500Y1263630D01*
X1275500Y1263630D02*
X1301500Y1263630D01*
X1790500Y1263630D02*
X1814500Y1263630D01*
X1178500Y1262630D02*
X1202500Y1262630D01*
X1275500Y1262630D02*
X1302500Y1262630D01*
X1791500Y1262630D02*
X1814500Y1262630D01*
X1178500Y1261630D02*
X1202500Y1261630D01*
X1276500Y1261630D02*
X1302500Y1261630D01*
X1791500Y1261630D02*
X1814500Y1261630D01*
X1178500Y1260630D02*
X1202500Y1260630D01*
X1276500Y1260630D02*
X1303500Y1260630D01*
X1791500Y1260630D02*
X1814500Y1260630D01*
X1177500Y1259630D02*
X1201500Y1259630D01*
X1277500Y1259630D02*
X1303500Y1259630D01*
X1791500Y1259630D02*
X1814500Y1259630D01*
X202500Y1258630D02*
X208500Y1258630D01*
X302500Y1258630D02*
X308500Y1258630D01*
X1177500Y1258630D02*
X1201500Y1258630D01*
X1278500Y1258630D02*
X1304500Y1258630D01*
X1792500Y1258630D02*
X1815500Y1258630D01*
X200500Y1257630D02*
X210500Y1257630D01*
X300500Y1257630D02*
X310500Y1257630D01*
X1177500Y1257630D02*
X1201500Y1257630D01*
X1278500Y1257630D02*
X1304500Y1257630D01*
X1792500Y1257630D02*
X1815500Y1257630D01*
X198500Y1256630D02*
X212500Y1256630D01*
X298500Y1256630D02*
X312500Y1256630D01*
X1176500Y1256630D02*
X1201500Y1256630D01*
X1279500Y1256630D02*
X1305500Y1256630D01*
X1514500Y1256630D02*
X1522500Y1256630D01*
X1614500Y1256630D02*
X1622500Y1256630D01*
X1792500Y1256630D02*
X1815500Y1256630D01*
X197500Y1255630D02*
X213500Y1255630D01*
X297500Y1255630D02*
X313500Y1255630D01*
X1176500Y1255630D02*
X1200500Y1255630D01*
X1279500Y1255630D02*
X1306500Y1255630D01*
X1512500Y1255630D02*
X1524500Y1255630D01*
X1612500Y1255630D02*
X1624500Y1255630D01*
X1792500Y1255630D02*
X1815500Y1255630D01*
X196500Y1254630D02*
X214500Y1254630D01*
X296500Y1254630D02*
X314500Y1254630D01*
X1176500Y1254630D02*
X1200500Y1254630D01*
X1280500Y1254630D02*
X1306500Y1254630D01*
X1511500Y1254630D02*
X1525500Y1254630D01*
X1611500Y1254630D02*
X1625500Y1254630D01*
X1792500Y1254630D02*
X1815500Y1254630D01*
X196500Y1253630D02*
X215500Y1253630D01*
X296500Y1253630D02*
X315500Y1253630D01*
X1175500Y1253630D02*
X1200500Y1253630D01*
X1280500Y1253630D02*
X1307500Y1253630D01*
X1510500Y1253630D02*
X1526500Y1253630D01*
X1610500Y1253630D02*
X1626500Y1253630D01*
X1792500Y1253630D02*
X1815500Y1253630D01*
X195500Y1252630D02*
X215500Y1252630D01*
X295500Y1252630D02*
X315500Y1252630D01*
X1175500Y1252630D02*
X1199500Y1252630D01*
X1281500Y1252630D02*
X1307500Y1252630D01*
X1509500Y1252630D02*
X1527500Y1252630D01*
X1609500Y1252630D02*
X1627500Y1252630D01*
X1792500Y1252630D02*
X1815500Y1252630D01*
X194500Y1251630D02*
X216500Y1251630D01*
X295500Y1251630D02*
X316500Y1251630D01*
X1174500Y1251630D02*
X1199500Y1251630D01*
X1281500Y1251630D02*
X1308500Y1251630D01*
X1508500Y1251630D02*
X1528500Y1251630D01*
X1608500Y1251630D02*
X1628500Y1251630D01*
X1792500Y1251630D02*
X1815500Y1251630D01*
X194500Y1250630D02*
X216500Y1250630D01*
X294500Y1250630D02*
X316500Y1250630D01*
X1174500Y1250630D02*
X1199500Y1250630D01*
X1282500Y1250630D02*
X1308500Y1250630D01*
X1508500Y1250630D02*
X1528500Y1250630D01*
X1607500Y1250630D02*
X1628500Y1250630D01*
X1792500Y1250630D02*
X1815500Y1250630D01*
X194500Y1249630D02*
X216500Y1249630D01*
X294500Y1249630D02*
X316500Y1249630D01*
X1173500Y1249630D02*
X1198500Y1249630D01*
X1283500Y1249630D02*
X1309500Y1249630D01*
X1507500Y1249630D02*
X1529500Y1249630D01*
X1607500Y1249630D02*
X1629500Y1249630D01*
X1792500Y1249630D02*
X1815500Y1249630D01*
X194500Y1248630D02*
X216500Y1248630D01*
X294500Y1248630D02*
X316500Y1248630D01*
X1173500Y1248630D02*
X1198500Y1248630D01*
X1283500Y1248630D02*
X1309500Y1248630D01*
X1507500Y1248630D02*
X1529500Y1248630D01*
X1606500Y1248630D02*
X1629500Y1248630D01*
X1792500Y1248630D02*
X1816500Y1248630D01*
X194500Y1247630D02*
X217500Y1247630D01*
X294500Y1247630D02*
X317500Y1247630D01*
X1172500Y1247630D02*
X1198500Y1247630D01*
X1284500Y1247630D02*
X1310500Y1247630D01*
X1507500Y1247630D02*
X1529500Y1247630D01*
X1606500Y1247630D02*
X1629500Y1247630D01*
X1792500Y1247630D02*
X1816500Y1247630D01*
X194500Y1246630D02*
X217500Y1246630D01*
X294500Y1246630D02*
X317500Y1246630D01*
X1172500Y1246630D02*
X1197500Y1246630D01*
X1284500Y1246630D02*
X1310500Y1246630D01*
X1506500Y1246630D02*
X1529500Y1246630D01*
X1605500Y1246630D02*
X1629500Y1246630D01*
X1793500Y1246630D02*
X1816500Y1246630D01*
X194500Y1245630D02*
X217500Y1245630D01*
X294500Y1245630D02*
X317500Y1245630D01*
X1171500Y1245630D02*
X1197500Y1245630D01*
X1285500Y1245630D02*
X1311500Y1245630D01*
X1506500Y1245630D02*
X1529500Y1245630D01*
X1604500Y1245630D02*
X1629500Y1245630D01*
X1793500Y1245630D02*
X1816500Y1245630D01*
X194500Y1244630D02*
X217500Y1244630D01*
X294500Y1244630D02*
X317500Y1244630D01*
X1171500Y1244630D02*
X1196500Y1244630D01*
X1285500Y1244630D02*
X1311500Y1244630D01*
X1506500Y1244630D02*
X1529500Y1244630D01*
X1604500Y1244630D02*
X1629500Y1244630D01*
X1793500Y1244630D02*
X1816500Y1244630D01*
X193500Y1243630D02*
X216500Y1243630D01*
X294500Y1243630D02*
X317500Y1243630D01*
X1170500Y1243630D02*
X1196500Y1243630D01*
X1286500Y1243630D02*
X1312500Y1243630D01*
X1506500Y1243630D02*
X1529500Y1243630D01*
X1603500Y1243630D02*
X1629500Y1243630D01*
X1793500Y1243630D02*
X1816500Y1243630D01*
X193500Y1242630D02*
X216500Y1242630D01*
X294500Y1242630D02*
X317500Y1242630D01*
X1170500Y1242630D02*
X1196500Y1242630D01*
X1286500Y1242630D02*
X1312500Y1242630D01*
X1506500Y1242630D02*
X1529500Y1242630D01*
X1602500Y1242630D02*
X1629500Y1242630D01*
X1793500Y1242630D02*
X1816500Y1242630D01*
X193500Y1241630D02*
X216500Y1241630D01*
X294500Y1241630D02*
X317500Y1241630D01*
X1169500Y1241630D02*
X1195500Y1241630D01*
X1287500Y1241630D02*
X1313500Y1241630D01*
X1506500Y1241630D02*
X1529500Y1241630D01*
X1602500Y1241630D02*
X1629500Y1241630D01*
X1793500Y1241630D02*
X1816500Y1241630D01*
X193500Y1240630D02*
X216500Y1240630D01*
X294500Y1240630D02*
X317500Y1240630D01*
X1168500Y1240630D02*
X1195500Y1240630D01*
X1287500Y1240630D02*
X1313500Y1240630D01*
X1506500Y1240630D02*
X1529500Y1240630D01*
X1601500Y1240630D02*
X1628500Y1240630D01*
X1793500Y1240630D02*
X1816500Y1240630D01*
X193500Y1239630D02*
X216500Y1239630D01*
X294500Y1239630D02*
X317500Y1239630D01*
X1168500Y1239630D02*
X1194500Y1239630D01*
X1288500Y1239630D02*
X1314500Y1239630D01*
X1506500Y1239630D02*
X1529500Y1239630D01*
X1601500Y1239630D02*
X1628500Y1239630D01*
X1793500Y1239630D02*
X1816500Y1239630D01*
X193500Y1238630D02*
X216500Y1238630D01*
X294500Y1238630D02*
X317500Y1238630D01*
X1167500Y1238630D02*
X1194500Y1238630D01*
X1288500Y1238630D02*
X1314500Y1238630D01*
X1506500Y1238630D02*
X1529500Y1238630D01*
X1600500Y1238630D02*
X1627500Y1238630D01*
X1793500Y1238630D02*
X1816500Y1238630D01*
X193500Y1237630D02*
X216500Y1237630D01*
X294500Y1237630D02*
X317500Y1237630D01*
X1166500Y1237630D02*
X1193500Y1237630D01*
X1289500Y1237630D02*
X1315500Y1237630D01*
X1506500Y1237630D02*
X1529500Y1237630D01*
X1599500Y1237630D02*
X1627500Y1237630D01*
X1793500Y1237630D02*
X1816500Y1237630D01*
X193500Y1236630D02*
X216500Y1236630D01*
X294500Y1236630D02*
X317500Y1236630D01*
X1165500Y1236630D02*
X1193500Y1236630D01*
X1289500Y1236630D02*
X1315500Y1236630D01*
X1506500Y1236630D02*
X1529500Y1236630D01*
X1599500Y1236630D02*
X1626500Y1236630D01*
X1793500Y1236630D02*
X1816500Y1236630D01*
X193500Y1235630D02*
X216500Y1235630D01*
X294500Y1235630D02*
X317500Y1235630D01*
X1165500Y1235630D02*
X1192500Y1235630D01*
X1290500Y1235630D02*
X1316500Y1235630D01*
X1506500Y1235630D02*
X1529500Y1235630D01*
X1598500Y1235630D02*
X1625500Y1235630D01*
X1793500Y1235630D02*
X1817500Y1235630D01*
X193500Y1234630D02*
X216500Y1234630D01*
X294500Y1234630D02*
X317500Y1234630D01*
X1164500Y1234630D02*
X1192500Y1234630D01*
X1290500Y1234630D02*
X1316500Y1234630D01*
X1506500Y1234630D02*
X1529500Y1234630D01*
X1598500Y1234630D02*
X1625500Y1234630D01*
X1794500Y1234630D02*
X1817500Y1234630D01*
X193500Y1233630D02*
X216500Y1233630D01*
X294500Y1233630D02*
X317500Y1233630D01*
X1163500Y1233630D02*
X1191500Y1233630D01*
X1291500Y1233630D02*
X1317500Y1233630D01*
X1506500Y1233630D02*
X1529500Y1233630D01*
X1597500Y1233630D02*
X1624500Y1233630D01*
X1794500Y1233630D02*
X1817500Y1233630D01*
X193500Y1232630D02*
X216500Y1232630D01*
X294500Y1232630D02*
X317500Y1232630D01*
X1162500Y1232630D02*
X1191500Y1232630D01*
X1292500Y1232630D02*
X1317500Y1232630D01*
X1506500Y1232630D02*
X1529500Y1232630D01*
X1597500Y1232630D02*
X1624500Y1232630D01*
X1794500Y1232630D02*
X1817500Y1232630D01*
X193500Y1231630D02*
X216500Y1231630D01*
X294500Y1231630D02*
X317500Y1231630D01*
X1161500Y1231630D02*
X1190500Y1231630D01*
X1292500Y1231630D02*
X1318500Y1231630D01*
X1505500Y1231630D02*
X1529500Y1231630D01*
X1596500Y1231630D02*
X1623500Y1231630D01*
X1794500Y1231630D02*
X1817500Y1231630D01*
X193500Y1230630D02*
X216500Y1230630D01*
X294500Y1230630D02*
X317500Y1230630D01*
X1160500Y1230630D02*
X1189500Y1230630D01*
X1293500Y1230630D02*
X1318500Y1230630D01*
X1505500Y1230630D02*
X1528500Y1230630D01*
X1595500Y1230630D02*
X1622500Y1230630D01*
X1794500Y1230630D02*
X1817500Y1230630D01*
X193500Y1229630D02*
X216500Y1229630D01*
X294500Y1229630D02*
X317500Y1229630D01*
X1160500Y1229630D02*
X1189500Y1229630D01*
X1293500Y1229630D02*
X1319500Y1229630D01*
X1505500Y1229630D02*
X1528500Y1229630D01*
X1595500Y1229630D02*
X1622500Y1229630D01*
X1794500Y1229630D02*
X1817500Y1229630D01*
X193500Y1228630D02*
X216500Y1228630D01*
X294500Y1228630D02*
X317500Y1228630D01*
X1159500Y1228630D02*
X1188500Y1228630D01*
X1294500Y1228630D02*
X1319500Y1228630D01*
X1505500Y1228630D02*
X1528500Y1228630D01*
X1594500Y1228630D02*
X1621500Y1228630D01*
X1794500Y1228630D02*
X1817500Y1228630D01*
X193500Y1227630D02*
X216500Y1227630D01*
X294500Y1227630D02*
X317500Y1227630D01*
X1158500Y1227630D02*
X1187500Y1227630D01*
X1294500Y1227630D02*
X1320500Y1227630D01*
X1505500Y1227630D02*
X1528500Y1227630D01*
X1594500Y1227630D02*
X1620500Y1227630D01*
X1794500Y1227630D02*
X1817500Y1227630D01*
X193500Y1226630D02*
X216500Y1226630D01*
X294500Y1226630D02*
X317500Y1226630D01*
X1157500Y1226630D02*
X1187500Y1226630D01*
X1295500Y1226630D02*
X1320500Y1226630D01*
X1505500Y1226630D02*
X1528500Y1226630D01*
X1593500Y1226630D02*
X1620500Y1226630D01*
X1794500Y1226630D02*
X1817500Y1226630D01*
X193500Y1225630D02*
X216500Y1225630D01*
X295500Y1225630D02*
X318500Y1225630D01*
X1155500Y1225630D02*
X1186500Y1225630D01*
X1295500Y1225630D02*
X1321500Y1225630D01*
X1505500Y1225630D02*
X1528500Y1225630D01*
X1592500Y1225630D02*
X1619500Y1225630D01*
X1794500Y1225630D02*
X1817500Y1225630D01*
X193500Y1224630D02*
X216500Y1224630D01*
X295500Y1224630D02*
X318500Y1224630D01*
X1154500Y1224630D02*
X1185500Y1224630D01*
X1296500Y1224630D02*
X1321500Y1224630D01*
X1505500Y1224630D02*
X1528500Y1224630D01*
X1592500Y1224630D02*
X1619500Y1224630D01*
X1794500Y1224630D02*
X1817500Y1224630D01*
X193500Y1223630D02*
X216500Y1223630D01*
X295500Y1223630D02*
X318500Y1223630D01*
X1153500Y1223630D02*
X1185500Y1223630D01*
X1296500Y1223630D02*
X1322500Y1223630D01*
X1505500Y1223630D02*
X1528500Y1223630D01*
X1591500Y1223630D02*
X1618500Y1223630D01*
X1794500Y1223630D02*
X1817500Y1223630D01*
X193500Y1222630D02*
X216500Y1222630D01*
X295500Y1222630D02*
X318500Y1222630D01*
X1152500Y1222630D02*
X1184500Y1222630D01*
X1297500Y1222630D02*
X1322500Y1222630D01*
X1505500Y1222630D02*
X1528500Y1222630D01*
X1591500Y1222630D02*
X1617500Y1222630D01*
X1794500Y1222630D02*
X1817500Y1222630D01*
X193500Y1221630D02*
X216500Y1221630D01*
X295500Y1221630D02*
X318500Y1221630D01*
X1151500Y1221630D02*
X1183500Y1221630D01*
X1297500Y1221630D02*
X1323500Y1221630D01*
X1505500Y1221630D02*
X1528500Y1221630D01*
X1590500Y1221630D02*
X1617500Y1221630D01*
X1794500Y1221630D02*
X1817500Y1221630D01*
X193500Y1220630D02*
X216500Y1220630D01*
X295500Y1220630D02*
X318500Y1220630D01*
X1150500Y1220630D02*
X1182500Y1220630D01*
X1298500Y1220630D02*
X1323500Y1220630D01*
X1505500Y1220630D02*
X1528500Y1220630D01*
X1590500Y1220630D02*
X1616500Y1220630D01*
X1794500Y1220630D02*
X1817500Y1220630D01*
X193500Y1219630D02*
X216500Y1219630D01*
X295500Y1219630D02*
X318500Y1219630D01*
X1149500Y1219630D02*
X1182500Y1219630D01*
X1298500Y1219630D02*
X1324500Y1219630D01*
X1504500Y1219630D02*
X1528500Y1219630D01*
X1589500Y1219630D02*
X1616500Y1219630D01*
X1794500Y1219630D02*
X1817500Y1219630D01*
X193500Y1218630D02*
X216500Y1218630D01*
X295500Y1218630D02*
X318500Y1218630D01*
X1147500Y1218630D02*
X1181500Y1218630D01*
X1298500Y1218630D02*
X1324500Y1218630D01*
X1504500Y1218630D02*
X1527500Y1218630D01*
X1589500Y1218630D02*
X1615500Y1218630D01*
X1794500Y1218630D02*
X1817500Y1218630D01*
X193500Y1217630D02*
X216500Y1217630D01*
X295500Y1217630D02*
X318500Y1217630D01*
X1146500Y1217630D02*
X1180500Y1217630D01*
X1299500Y1217630D02*
X1324500Y1217630D01*
X1504500Y1217630D02*
X1527500Y1217630D01*
X1588500Y1217630D02*
X1615500Y1217630D01*
X1794500Y1217630D02*
X1817500Y1217630D01*
X193500Y1216630D02*
X216500Y1216630D01*
X295500Y1216630D02*
X318500Y1216630D01*
X1145500Y1216630D02*
X1179500Y1216630D01*
X1299500Y1216630D02*
X1325500Y1216630D01*
X1504500Y1216630D02*
X1527500Y1216630D01*
X1588500Y1216630D02*
X1614500Y1216630D01*
X1794500Y1216630D02*
X1817500Y1216630D01*
X193500Y1215630D02*
X216500Y1215630D01*
X295500Y1215630D02*
X318500Y1215630D01*
X1143500Y1215630D02*
X1178500Y1215630D01*
X1300500Y1215630D02*
X1325500Y1215630D01*
X1504500Y1215630D02*
X1527500Y1215630D01*
X1587500Y1215630D02*
X1613500Y1215630D01*
X1794500Y1215630D02*
X1817500Y1215630D01*
X193500Y1214630D02*
X216500Y1214630D01*
X296500Y1214630D02*
X319500Y1214630D01*
X1142500Y1214630D02*
X1177500Y1214630D01*
X1300500Y1214630D02*
X1326500Y1214630D01*
X1504500Y1214630D02*
X1527500Y1214630D01*
X1586500Y1214630D02*
X1613500Y1214630D01*
X1794500Y1214630D02*
X1817500Y1214630D01*
X193500Y1213630D02*
X216500Y1213630D01*
X296500Y1213630D02*
X319500Y1213630D01*
X1141500Y1213630D02*
X1176500Y1213630D01*
X1301500Y1213630D02*
X1326500Y1213630D01*
X1504500Y1213630D02*
X1527500Y1213630D01*
X1586500Y1213630D02*
X1612500Y1213630D01*
X1794500Y1213630D02*
X1817500Y1213630D01*
X193500Y1212630D02*
X216500Y1212630D01*
X296500Y1212630D02*
X319500Y1212630D01*
X1139500Y1212630D02*
X1175500Y1212630D01*
X1301500Y1212630D02*
X1327500Y1212630D01*
X1504500Y1212630D02*
X1527500Y1212630D01*
X1585500Y1212630D02*
X1612500Y1212630D01*
X1794500Y1212630D02*
X1817500Y1212630D01*
X193500Y1211630D02*
X216500Y1211630D01*
X296500Y1211630D02*
X319500Y1211630D01*
X1138500Y1211630D02*
X1175500Y1211630D01*
X1302500Y1211630D02*
X1327500Y1211630D01*
X1504500Y1211630D02*
X1527500Y1211630D01*
X1585500Y1211630D02*
X1611500Y1211630D01*
X1794500Y1211630D02*
X1817500Y1211630D01*
X193500Y1210630D02*
X216500Y1210630D01*
X296500Y1210630D02*
X319500Y1210630D01*
X1136500Y1210630D02*
X1174500Y1210630D01*
X1302500Y1210630D02*
X1328500Y1210630D01*
X1504500Y1210630D02*
X1527500Y1210630D01*
X1584500Y1210630D02*
X1611500Y1210630D01*
X1794500Y1210630D02*
X1817500Y1210630D01*
X193500Y1209630D02*
X216500Y1209630D01*
X296500Y1209630D02*
X319500Y1209630D01*
X1134500Y1209630D02*
X1173500Y1209630D01*
X1303500Y1209630D02*
X1328500Y1209630D01*
X1504500Y1209630D02*
X1527500Y1209630D01*
X1584500Y1209630D02*
X1610500Y1209630D01*
X1794500Y1209630D02*
X1817500Y1209630D01*
X193500Y1208630D02*
X216500Y1208630D01*
X296500Y1208630D02*
X319500Y1208630D01*
X1133500Y1208630D02*
X1172500Y1208630D01*
X1303500Y1208630D02*
X1329500Y1208630D01*
X1503500Y1208630D02*
X1527500Y1208630D01*
X1583500Y1208630D02*
X1609500Y1208630D01*
X1794500Y1208630D02*
X1817500Y1208630D01*
X193500Y1207630D02*
X216500Y1207630D01*
X296500Y1207630D02*
X320500Y1207630D01*
X1131500Y1207630D02*
X1170500Y1207630D01*
X1304500Y1207630D02*
X1329500Y1207630D01*
X1503500Y1207630D02*
X1526500Y1207630D01*
X1583500Y1207630D02*
X1609500Y1207630D01*
X1794500Y1207630D02*
X1817500Y1207630D01*
X193500Y1206630D02*
X216500Y1206630D01*
X297500Y1206630D02*
X320500Y1206630D01*
X1129500Y1206630D02*
X1169500Y1206630D01*
X1304500Y1206630D02*
X1329500Y1206630D01*
X1503500Y1206630D02*
X1526500Y1206630D01*
X1582500Y1206630D02*
X1608500Y1206630D01*
X1794500Y1206630D02*
X1817500Y1206630D01*
X193500Y1205630D02*
X216500Y1205630D01*
X297500Y1205630D02*
X320500Y1205630D01*
X1127500Y1205630D02*
X1168500Y1205630D01*
X1305500Y1205630D02*
X1330500Y1205630D01*
X1503500Y1205630D02*
X1526500Y1205630D01*
X1582500Y1205630D02*
X1608500Y1205630D01*
X1794500Y1205630D02*
X1817500Y1205630D01*
X193500Y1204630D02*
X216500Y1204630D01*
X297500Y1204630D02*
X320500Y1204630D01*
X1125500Y1204630D02*
X1167500Y1204630D01*
X1305500Y1204630D02*
X1330500Y1204630D01*
X1503500Y1204630D02*
X1526500Y1204630D01*
X1581500Y1204630D02*
X1607500Y1204630D01*
X1793500Y1204630D02*
X1816500Y1204630D01*
X193500Y1203630D02*
X216500Y1203630D01*
X297500Y1203630D02*
X320500Y1203630D01*
X1124500Y1203630D02*
X1166500Y1203630D01*
X1306500Y1203630D02*
X1331500Y1203630D01*
X1503500Y1203630D02*
X1526500Y1203630D01*
X1581500Y1203630D02*
X1607500Y1203630D01*
X1793500Y1203630D02*
X1816500Y1203630D01*
X193500Y1202630D02*
X216500Y1202630D01*
X297500Y1202630D02*
X320500Y1202630D01*
X1122500Y1202630D02*
X1165500Y1202630D01*
X1306500Y1202630D02*
X1331500Y1202630D01*
X1503500Y1202630D02*
X1526500Y1202630D01*
X1580500Y1202630D02*
X1606500Y1202630D01*
X1793500Y1202630D02*
X1816500Y1202630D01*
X193500Y1201630D02*
X216500Y1201630D01*
X297500Y1201630D02*
X321500Y1201630D01*
X1119500Y1201630D02*
X1164500Y1201630D01*
X1307500Y1201630D02*
X1332500Y1201630D01*
X1503500Y1201630D02*
X1526500Y1201630D01*
X1580500Y1201630D02*
X1606500Y1201630D01*
X1793500Y1201630D02*
X1816500Y1201630D01*
X193500Y1200630D02*
X216500Y1200630D01*
X298500Y1200630D02*
X321500Y1200630D01*
X1117500Y1200630D02*
X1162500Y1200630D01*
X1307500Y1200630D02*
X1332500Y1200630D01*
X1503500Y1200630D02*
X1526500Y1200630D01*
X1579500Y1200630D02*
X1605500Y1200630D01*
X1793500Y1200630D02*
X1816500Y1200630D01*
X193500Y1199630D02*
X216500Y1199630D01*
X298500Y1199630D02*
X321500Y1199630D01*
X1115500Y1199630D02*
X1161500Y1199630D01*
X1308500Y1199630D02*
X1333500Y1199630D01*
X1502500Y1199630D02*
X1526500Y1199630D01*
X1578500Y1199630D02*
X1605500Y1199630D01*
X1793500Y1199630D02*
X1816500Y1199630D01*
X193500Y1198630D02*
X216500Y1198630D01*
X298500Y1198630D02*
X321500Y1198630D01*
X1113500Y1198630D02*
X1160500Y1198630D01*
X1308500Y1198630D02*
X1333500Y1198630D01*
X1502500Y1198630D02*
X1525500Y1198630D01*
X1578500Y1198630D02*
X1604500Y1198630D01*
X1793500Y1198630D02*
X1816500Y1198630D01*
X193500Y1197630D02*
X216500Y1197630D01*
X298500Y1197630D02*
X321500Y1197630D01*
X1111500Y1197630D02*
X1158500Y1197630D01*
X1308500Y1197630D02*
X1333500Y1197630D01*
X1502500Y1197630D02*
X1525500Y1197630D01*
X1577500Y1197630D02*
X1604500Y1197630D01*
X1792500Y1197630D02*
X1816500Y1197630D01*
X193500Y1196630D02*
X216500Y1196630D01*
X298500Y1196630D02*
X321500Y1196630D01*
X1108500Y1196630D02*
X1157500Y1196630D01*
X1309500Y1196630D02*
X1334500Y1196630D01*
X1502500Y1196630D02*
X1525500Y1196630D01*
X1577500Y1196630D02*
X1603500Y1196630D01*
X1792500Y1196630D02*
X1815500Y1196630D01*
X193500Y1195630D02*
X216500Y1195630D01*
X298500Y1195630D02*
X322500Y1195630D01*
X1106500Y1195630D02*
X1156500Y1195630D01*
X1309500Y1195630D02*
X1334500Y1195630D01*
X1502500Y1195630D02*
X1525500Y1195630D01*
X1576500Y1195630D02*
X1603500Y1195630D01*
X1792500Y1195630D02*
X1815500Y1195630D01*
X193500Y1194630D02*
X216500Y1194630D01*
X299500Y1194630D02*
X322500Y1194630D01*
X1104500Y1194630D02*
X1154500Y1194630D01*
X1310500Y1194630D02*
X1335500Y1194630D01*
X1502500Y1194630D02*
X1525500Y1194630D01*
X1576500Y1194630D02*
X1602500Y1194630D01*
X1792500Y1194630D02*
X1815500Y1194630D01*
X193500Y1193630D02*
X216500Y1193630D01*
X299500Y1193630D02*
X322500Y1193630D01*
X1103500Y1193630D02*
X1153500Y1193630D01*
X1310500Y1193630D02*
X1335500Y1193630D01*
X1502500Y1193630D02*
X1525500Y1193630D01*
X1575500Y1193630D02*
X1601500Y1193630D01*
X1792500Y1193630D02*
X1815500Y1193630D01*
X193500Y1192630D02*
X216500Y1192630D01*
X299500Y1192630D02*
X322500Y1192630D01*
X1102500Y1192630D02*
X1151500Y1192630D01*
X1311500Y1192630D02*
X1336500Y1192630D01*
X1502500Y1192630D02*
X1525500Y1192630D01*
X1575500Y1192630D02*
X1601500Y1192630D01*
X1791500Y1192630D02*
X1815500Y1192630D01*
X193500Y1191630D02*
X216500Y1191630D01*
X299500Y1191630D02*
X323500Y1191630D01*
X1101500Y1191630D02*
X1150500Y1191630D01*
X1311500Y1191630D02*
X1336500Y1191630D01*
X1502500Y1191630D02*
X1525500Y1191630D01*
X1574500Y1191630D02*
X1600500Y1191630D01*
X1791500Y1191630D02*
X1815500Y1191630D01*
X193500Y1190630D02*
X216500Y1190630D01*
X299500Y1190630D02*
X323500Y1190630D01*
X1101500Y1190630D02*
X1148500Y1190630D01*
X1312500Y1190630D02*
X1337500Y1190630D01*
X1501500Y1190630D02*
X1525500Y1190630D01*
X1574500Y1190630D02*
X1600500Y1190630D01*
X1791500Y1190630D02*
X1814500Y1190630D01*
X193500Y1189630D02*
X216500Y1189630D01*
X300500Y1189630D02*
X323500Y1189630D01*
X1100500Y1189630D02*
X1147500Y1189630D01*
X1312500Y1189630D02*
X1337500Y1189630D01*
X1501500Y1189630D02*
X1524500Y1189630D01*
X1573500Y1189630D02*
X1599500Y1189630D01*
X1791500Y1189630D02*
X1814500Y1189630D01*
X193500Y1188630D02*
X216500Y1188630D01*
X300500Y1188630D02*
X323500Y1188630D01*
X1100500Y1188630D02*
X1145500Y1188630D01*
X1313500Y1188630D02*
X1337500Y1188630D01*
X1501500Y1188630D02*
X1524500Y1188630D01*
X1573500Y1188630D02*
X1599500Y1188630D01*
X1791500Y1188630D02*
X1814500Y1188630D01*
X193500Y1187630D02*
X216500Y1187630D01*
X300500Y1187630D02*
X324500Y1187630D01*
X1099500Y1187630D02*
X1143500Y1187630D01*
X1313500Y1187630D02*
X1338500Y1187630D01*
X1501500Y1187630D02*
X1524500Y1187630D01*
X1572500Y1187630D02*
X1598500Y1187630D01*
X1790500Y1187630D02*
X1814500Y1187630D01*
X193500Y1186630D02*
X216500Y1186630D01*
X300500Y1186630D02*
X324500Y1186630D01*
X1099500Y1186630D02*
X1141500Y1186630D01*
X1313500Y1186630D02*
X1338500Y1186630D01*
X1501500Y1186630D02*
X1524500Y1186630D01*
X1572500Y1186630D02*
X1598500Y1186630D01*
X1790500Y1186630D02*
X1813500Y1186630D01*
X193500Y1185630D02*
X216500Y1185630D01*
X301500Y1185630D02*
X324500Y1185630D01*
X1099500Y1185630D02*
X1140500Y1185630D01*
X1314500Y1185630D02*
X1339500Y1185630D01*
X1501500Y1185630D02*
X1524500Y1185630D01*
X1571500Y1185630D02*
X1597500Y1185630D01*
X1790500Y1185630D02*
X1813500Y1185630D01*
X193500Y1184630D02*
X216500Y1184630D01*
X301500Y1184630D02*
X324500Y1184630D01*
X1099500Y1184630D02*
X1138500Y1184630D01*
X1314500Y1184630D02*
X1339500Y1184630D01*
X1501500Y1184630D02*
X1524500Y1184630D01*
X1571500Y1184630D02*
X1597500Y1184630D01*
X1790500Y1184630D02*
X1813500Y1184630D01*
X193500Y1183630D02*
X216500Y1183630D01*
X301500Y1183630D02*
X325500Y1183630D01*
X1099500Y1183630D02*
X1136500Y1183630D01*
X1315500Y1183630D02*
X1339500Y1183630D01*
X1501500Y1183630D02*
X1524500Y1183630D01*
X1571500Y1183630D02*
X1596500Y1183630D01*
X1789500Y1183630D02*
X1813500Y1183630D01*
X193500Y1182630D02*
X216500Y1182630D01*
X301500Y1182630D02*
X325500Y1182630D01*
X1099500Y1182630D02*
X1134500Y1182630D01*
X1315500Y1182630D02*
X1340500Y1182630D01*
X1500500Y1182630D02*
X1524500Y1182630D01*
X1570500Y1182630D02*
X1596500Y1182630D01*
X1789500Y1182630D02*
X1813500Y1182630D01*
X193500Y1181630D02*
X216500Y1181630D01*
X302500Y1181630D02*
X325500Y1181630D01*
X1099500Y1181630D02*
X1132500Y1181630D01*
X1316500Y1181630D02*
X1340500Y1181630D01*
X1500500Y1181630D02*
X1523500Y1181630D01*
X1570500Y1181630D02*
X1595500Y1181630D01*
X1789500Y1181630D02*
X1812500Y1181630D01*
X193500Y1180630D02*
X216500Y1180630D01*
X302500Y1180630D02*
X325500Y1180630D01*
X1100500Y1180630D02*
X1130500Y1180630D01*
X1316500Y1180630D02*
X1341500Y1180630D01*
X1500500Y1180630D02*
X1523500Y1180630D01*
X1569500Y1180630D02*
X1595500Y1180630D01*
X1789500Y1180630D02*
X1812500Y1180630D01*
X193500Y1179630D02*
X216500Y1179630D01*
X302500Y1179630D02*
X326500Y1179630D01*
X1100500Y1179630D02*
X1128500Y1179630D01*
X1316500Y1179630D02*
X1341500Y1179630D01*
X1500500Y1179630D02*
X1523500Y1179630D01*
X1569500Y1179630D02*
X1594500Y1179630D01*
X1788500Y1179630D02*
X1812500Y1179630D01*
X193500Y1178630D02*
X216500Y1178630D01*
X302500Y1178630D02*
X326500Y1178630D01*
X1101500Y1178630D02*
X1126500Y1178630D01*
X1317500Y1178630D02*
X1341500Y1178630D01*
X1500500Y1178630D02*
X1523500Y1178630D01*
X1568500Y1178630D02*
X1594500Y1178630D01*
X1788500Y1178630D02*
X1812500Y1178630D01*
X193500Y1177630D02*
X216500Y1177630D01*
X303500Y1177630D02*
X326500Y1177630D01*
X1101500Y1177630D02*
X1124500Y1177630D01*
X1317500Y1177630D02*
X1342500Y1177630D01*
X1500500Y1177630D02*
X1523500Y1177630D01*
X1568500Y1177630D02*
X1593500Y1177630D01*
X1788500Y1177630D02*
X1811500Y1177630D01*
X193500Y1176630D02*
X216500Y1176630D01*
X303500Y1176630D02*
X327500Y1176630D01*
X1102500Y1176630D02*
X1122500Y1176630D01*
X1318500Y1176630D02*
X1342500Y1176630D01*
X1500500Y1176630D02*
X1523500Y1176630D01*
X1567500Y1176630D02*
X1593500Y1176630D01*
X1787500Y1176630D02*
X1811500Y1176630D01*
X193500Y1175630D02*
X217500Y1175630D01*
X303500Y1175630D02*
X327500Y1175630D01*
X1103500Y1175630D02*
X1119500Y1175630D01*
X1318500Y1175630D02*
X1343500Y1175630D01*
X1500500Y1175630D02*
X1523500Y1175630D01*
X1567500Y1175630D02*
X1592500Y1175630D01*
X1787500Y1175630D02*
X1811500Y1175630D01*
X194500Y1174630D02*
X217500Y1174630D01*
X304500Y1174630D02*
X327500Y1174630D01*
X1105500Y1174630D02*
X1117500Y1174630D01*
X1318500Y1174630D02*
X1343500Y1174630D01*
X1499500Y1174630D02*
X1523500Y1174630D01*
X1566500Y1174630D02*
X1592500Y1174630D01*
X1787500Y1174630D02*
X1811500Y1174630D01*
X194500Y1173630D02*
X217500Y1173630D01*
X304500Y1173630D02*
X328500Y1173630D01*
X1107500Y1173630D02*
X1115500Y1173630D01*
X1319500Y1173630D02*
X1344500Y1173630D01*
X1499500Y1173630D02*
X1522500Y1173630D01*
X1566500Y1173630D02*
X1591500Y1173630D01*
X1786500Y1173630D02*
X1810500Y1173630D01*
X194500Y1172630D02*
X217500Y1172630D01*
X304500Y1172630D02*
X328500Y1172630D01*
X1319500Y1172630D02*
X1344500Y1172630D01*
X1499500Y1172630D02*
X1522500Y1172630D01*
X1565500Y1172630D02*
X1591500Y1172630D01*
X1786500Y1172630D02*
X1810500Y1172630D01*
X194500Y1171630D02*
X217500Y1171630D01*
X304500Y1171630D02*
X328500Y1171630D01*
X1320500Y1171630D02*
X1344500Y1171630D01*
X1499500Y1171630D02*
X1522500Y1171630D01*
X1565500Y1171630D02*
X1590500Y1171630D01*
X1786500Y1171630D02*
X1810500Y1171630D01*
X194500Y1170630D02*
X217500Y1170630D01*
X305500Y1170630D02*
X329500Y1170630D01*
X1320500Y1170630D02*
X1345500Y1170630D01*
X1499500Y1170630D02*
X1522500Y1170630D01*
X1564500Y1170630D02*
X1590500Y1170630D01*
X1785500Y1170630D02*
X1810500Y1170630D01*
X194500Y1169630D02*
X217500Y1169630D01*
X305500Y1169630D02*
X329500Y1169630D01*
X1321500Y1169630D02*
X1345500Y1169630D01*
X1499500Y1169630D02*
X1522500Y1169630D01*
X1564500Y1169630D02*
X1589500Y1169630D01*
X1785500Y1169630D02*
X1809500Y1169630D01*
X194500Y1168630D02*
X217500Y1168630D01*
X305500Y1168630D02*
X330500Y1168630D01*
X1321500Y1168630D02*
X1346500Y1168630D01*
X1499500Y1168630D02*
X1522500Y1168630D01*
X1563500Y1168630D02*
X1589500Y1168630D01*
X1785500Y1168630D02*
X1809500Y1168630D01*
X194500Y1167630D02*
X217500Y1167630D01*
X306500Y1167630D02*
X330500Y1167630D01*
X1321500Y1167630D02*
X1346500Y1167630D01*
X1498500Y1167630D02*
X1522500Y1167630D01*
X1563500Y1167630D02*
X1588500Y1167630D01*
X1784500Y1167630D02*
X1809500Y1167630D01*
X194500Y1166630D02*
X217500Y1166630D01*
X306500Y1166630D02*
X330500Y1166630D01*
X1322500Y1166630D02*
X1346500Y1166630D01*
X1498500Y1166630D02*
X1522500Y1166630D01*
X1563500Y1166630D02*
X1588500Y1166630D01*
X1784500Y1166630D02*
X1808500Y1166630D01*
X194500Y1165630D02*
X217500Y1165630D01*
X306500Y1165630D02*
X331500Y1165630D01*
X1322500Y1165630D02*
X1347500Y1165630D01*
X1498500Y1165630D02*
X1521500Y1165630D01*
X1562500Y1165630D02*
X1588500Y1165630D01*
X1784500Y1165630D02*
X1808500Y1165630D01*
X194500Y1164630D02*
X217500Y1164630D01*
X307500Y1164630D02*
X331500Y1164630D01*
X1323500Y1164630D02*
X1347500Y1164630D01*
X1498500Y1164630D02*
X1521500Y1164630D01*
X1562500Y1164630D02*
X1587500Y1164630D01*
X1783500Y1164630D02*
X1808500Y1164630D01*
X194500Y1163630D02*
X217500Y1163630D01*
X307500Y1163630D02*
X332500Y1163630D01*
X1323500Y1163630D02*
X1347500Y1163630D01*
X1498500Y1163630D02*
X1521500Y1163630D01*
X1561500Y1163630D02*
X1587500Y1163630D01*
X1783500Y1163630D02*
X1807500Y1163630D01*
X194500Y1162630D02*
X217500Y1162630D01*
X307500Y1162630D02*
X332500Y1162630D01*
X1323500Y1162630D02*
X1348500Y1162630D01*
X1498500Y1162630D02*
X1521500Y1162630D01*
X1561500Y1162630D02*
X1586500Y1162630D01*
X1783500Y1162630D02*
X1807500Y1162630D01*
X194500Y1161630D02*
X218500Y1161630D01*
X308500Y1161630D02*
X332500Y1161630D01*
X1324500Y1161630D02*
X1348500Y1161630D01*
X1498500Y1161630D02*
X1521500Y1161630D01*
X1560500Y1161630D02*
X1586500Y1161630D01*
X1782500Y1161630D02*
X1807500Y1161630D01*
X195500Y1160630D02*
X218500Y1160630D01*
X308500Y1160630D02*
X333500Y1160630D01*
X1324500Y1160630D02*
X1349500Y1160630D01*
X1497500Y1160630D02*
X1521500Y1160630D01*
X1560500Y1160630D02*
X1585500Y1160630D01*
X1782500Y1160630D02*
X1806500Y1160630D01*
X195500Y1159630D02*
X218500Y1159630D01*
X309500Y1159630D02*
X333500Y1159630D01*
X1325500Y1159630D02*
X1349500Y1159630D01*
X1497500Y1159630D02*
X1521500Y1159630D01*
X1559500Y1159630D02*
X1585500Y1159630D01*
X1781500Y1159630D02*
X1806500Y1159630D01*
X195500Y1158630D02*
X218500Y1158630D01*
X309500Y1158630D02*
X334500Y1158630D01*
X1325500Y1158630D02*
X1349500Y1158630D01*
X1497500Y1158630D02*
X1520500Y1158630D01*
X1559500Y1158630D02*
X1584500Y1158630D01*
X1781500Y1158630D02*
X1806500Y1158630D01*
X195500Y1157630D02*
X218500Y1157630D01*
X309500Y1157630D02*
X334500Y1157630D01*
X1325500Y1157630D02*
X1350500Y1157630D01*
X1497500Y1157630D02*
X1520500Y1157630D01*
X1559500Y1157630D02*
X1584500Y1157630D01*
X1781500Y1157630D02*
X1805500Y1157630D01*
X195500Y1156630D02*
X218500Y1156630D01*
X310500Y1156630D02*
X335500Y1156630D01*
X1326500Y1156630D02*
X1350500Y1156630D01*
X1497500Y1156630D02*
X1520500Y1156630D01*
X1558500Y1156630D02*
X1583500Y1156630D01*
X1780500Y1156630D02*
X1805500Y1156630D01*
X195500Y1155630D02*
X218500Y1155630D01*
X310500Y1155630D02*
X335500Y1155630D01*
X1326500Y1155630D02*
X1350500Y1155630D01*
X1497500Y1155630D02*
X1520500Y1155630D01*
X1558500Y1155630D02*
X1583500Y1155630D01*
X1780500Y1155630D02*
X1805500Y1155630D01*
X195500Y1154630D02*
X218500Y1154630D01*
X311500Y1154630D02*
X336500Y1154630D01*
X1327500Y1154630D02*
X1351500Y1154630D01*
X1497500Y1154630D02*
X1520500Y1154630D01*
X1557500Y1154630D02*
X1583500Y1154630D01*
X1779500Y1154630D02*
X1804500Y1154630D01*
X195500Y1153630D02*
X218500Y1153630D01*
X311500Y1153630D02*
X336500Y1153630D01*
X1327500Y1153630D02*
X1351500Y1153630D01*
X1496500Y1153630D02*
X1520500Y1153630D01*
X1557500Y1153630D02*
X1582500Y1153630D01*
X1779500Y1153630D02*
X1804500Y1153630D01*
X195500Y1152630D02*
X218500Y1152630D01*
X311500Y1152630D02*
X337500Y1152630D01*
X1327500Y1152630D02*
X1352500Y1152630D01*
X1496500Y1152630D02*
X1520500Y1152630D01*
X1556500Y1152630D02*
X1582500Y1152630D01*
X1778500Y1152630D02*
X1803500Y1152630D01*
X195500Y1151630D02*
X218500Y1151630D01*
X312500Y1151630D02*
X337500Y1151630D01*
X1328500Y1151630D02*
X1352500Y1151630D01*
X1496500Y1151630D02*
X1519500Y1151630D01*
X1556500Y1151630D02*
X1581500Y1151630D01*
X1778500Y1151630D02*
X1803500Y1151630D01*
X195500Y1150630D02*
X219500Y1150630D01*
X312500Y1150630D02*
X338500Y1150630D01*
X1328500Y1150630D02*
X1352500Y1150630D01*
X1496500Y1150630D02*
X1519500Y1150630D01*
X1556500Y1150630D02*
X1581500Y1150630D01*
X1778500Y1150630D02*
X1803500Y1150630D01*
X195500Y1149630D02*
X219500Y1149630D01*
X313500Y1149630D02*
X338500Y1149630D01*
X1328500Y1149630D02*
X1353500Y1149630D01*
X1496500Y1149630D02*
X1519500Y1149630D01*
X1555500Y1149630D02*
X1580500Y1149630D01*
X1777500Y1149630D02*
X1802500Y1149630D01*
X196500Y1148630D02*
X219500Y1148630D01*
X313500Y1148630D02*
X339500Y1148630D01*
X1329500Y1148630D02*
X1353500Y1148630D01*
X1496500Y1148630D02*
X1519500Y1148630D01*
X1555500Y1148630D02*
X1580500Y1148630D01*
X1777500Y1148630D02*
X1802500Y1148630D01*
X196500Y1147630D02*
X219500Y1147630D01*
X314500Y1147630D02*
X340500Y1147630D01*
X1329500Y1147630D02*
X1353500Y1147630D01*
X1495500Y1147630D02*
X1519500Y1147630D01*
X1554500Y1147630D02*
X1579500Y1147630D01*
X1776500Y1147630D02*
X1801500Y1147630D01*
X196500Y1146630D02*
X219500Y1146630D01*
X314500Y1146630D02*
X340500Y1146630D01*
X1330500Y1146630D02*
X1354500Y1146630D01*
X1495500Y1146630D02*
X1519500Y1146630D01*
X1554500Y1146630D02*
X1579500Y1146630D01*
X1776500Y1146630D02*
X1801500Y1146630D01*
X196500Y1145630D02*
X219500Y1145630D01*
X315500Y1145630D02*
X341500Y1145630D01*
X1330500Y1145630D02*
X1354500Y1145630D01*
X1495500Y1145630D02*
X1518500Y1145630D01*
X1554500Y1145630D02*
X1579500Y1145630D01*
X1775500Y1145630D02*
X1801500Y1145630D01*
X196500Y1144630D02*
X219500Y1144630D01*
X315500Y1144630D02*
X341500Y1144630D01*
X1330500Y1144630D02*
X1354500Y1144630D01*
X1495500Y1144630D02*
X1518500Y1144630D01*
X1553500Y1144630D02*
X1578500Y1144630D01*
X1775500Y1144630D02*
X1800500Y1144630D01*
X196500Y1143630D02*
X219500Y1143630D01*
X316500Y1143630D02*
X342500Y1143630D01*
X1331500Y1143630D02*
X1355500Y1143630D01*
X1495500Y1143630D02*
X1518500Y1143630D01*
X1553500Y1143630D02*
X1578500Y1143630D01*
X1774500Y1143630D02*
X1800500Y1143630D01*
X196500Y1142630D02*
X219500Y1142630D01*
X316500Y1142630D02*
X343500Y1142630D01*
X1331500Y1142630D02*
X1355500Y1142630D01*
X1495500Y1142630D02*
X1518500Y1142630D01*
X1552500Y1142630D02*
X1577500Y1142630D01*
X1774500Y1142630D02*
X1799500Y1142630D01*
X196500Y1141630D02*
X220500Y1141630D01*
X317500Y1141630D02*
X343500Y1141630D01*
X1331500Y1141630D02*
X1355500Y1141630D01*
X1495500Y1141630D02*
X1518500Y1141630D01*
X1552500Y1141630D02*
X1577500Y1141630D01*
X1773500Y1141630D02*
X1799500Y1141630D01*
X197500Y1140630D02*
X220500Y1140630D01*
X317500Y1140630D02*
X344500Y1140630D01*
X1332500Y1140630D02*
X1356500Y1140630D01*
X1494500Y1140630D02*
X1518500Y1140630D01*
X1551500Y1140630D02*
X1576500Y1140630D01*
X1773500Y1140630D02*
X1798500Y1140630D01*
X197500Y1139630D02*
X220500Y1139630D01*
X318500Y1139630D02*
X345500Y1139630D01*
X1332500Y1139630D02*
X1356500Y1139630D01*
X1494500Y1139630D02*
X1518500Y1139630D01*
X1551500Y1139630D02*
X1576500Y1139630D01*
X1772500Y1139630D02*
X1798500Y1139630D01*
X197500Y1138630D02*
X220500Y1138630D01*
X318500Y1138630D02*
X345500Y1138630D01*
X1333500Y1138630D02*
X1356500Y1138630D01*
X1494500Y1138630D02*
X1517500Y1138630D01*
X1551500Y1138630D02*
X1576500Y1138630D01*
X1772500Y1138630D02*
X1797500Y1138630D01*
X197500Y1137630D02*
X220500Y1137630D01*
X319500Y1137630D02*
X346500Y1137630D01*
X1333500Y1137630D02*
X1357500Y1137630D01*
X1494500Y1137630D02*
X1517500Y1137630D01*
X1550500Y1137630D02*
X1575500Y1137630D01*
X1771500Y1137630D02*
X1797500Y1137630D01*
X197500Y1136630D02*
X220500Y1136630D01*
X319500Y1136630D02*
X347500Y1136630D01*
X1333500Y1136630D02*
X1357500Y1136630D01*
X1494500Y1136630D02*
X1517500Y1136630D01*
X1550500Y1136630D02*
X1575500Y1136630D01*
X1771500Y1136630D02*
X1797500Y1136630D01*
X197500Y1135630D02*
X220500Y1135630D01*
X320500Y1135630D02*
X348500Y1135630D01*
X1334500Y1135630D02*
X1357500Y1135630D01*
X1493500Y1135630D02*
X1517500Y1135630D01*
X1549500Y1135630D02*
X1574500Y1135630D01*
X1770500Y1135630D02*
X1796500Y1135630D01*
X197500Y1134630D02*
X220500Y1134630D01*
X321500Y1134630D02*
X348500Y1134630D01*
X1334500Y1134630D02*
X1358500Y1134630D01*
X1493500Y1134630D02*
X1517500Y1134630D01*
X1549500Y1134630D02*
X1574500Y1134630D01*
X1770500Y1134630D02*
X1796500Y1134630D01*
X197500Y1133630D02*
X221500Y1133630D01*
X321500Y1133630D02*
X349500Y1133630D01*
X1334500Y1133630D02*
X1358500Y1133630D01*
X1493500Y1133630D02*
X1516500Y1133630D01*
X1549500Y1133630D02*
X1574500Y1133630D01*
X1769500Y1133630D02*
X1795500Y1133630D01*
X198500Y1132630D02*
X221500Y1132630D01*
X322500Y1132630D02*
X350500Y1132630D01*
X1335500Y1132630D02*
X1358500Y1132630D01*
X1493500Y1132630D02*
X1516500Y1132630D01*
X1548500Y1132630D02*
X1573500Y1132630D01*
X1769500Y1132630D02*
X1795500Y1132630D01*
X198500Y1131630D02*
X221500Y1131630D01*
X322500Y1131630D02*
X351500Y1131630D01*
X1335500Y1131630D02*
X1359500Y1131630D01*
X1493500Y1131630D02*
X1516500Y1131630D01*
X1548500Y1131630D02*
X1573500Y1131630D01*
X1768500Y1131630D02*
X1794500Y1131630D01*
X198500Y1130630D02*
X221500Y1130630D01*
X323500Y1130630D02*
X351500Y1130630D01*
X1335500Y1130630D02*
X1359500Y1130630D01*
X1493500Y1130630D02*
X1516500Y1130630D01*
X1548500Y1130630D02*
X1572500Y1130630D01*
X1768500Y1130630D02*
X1794500Y1130630D01*
X198500Y1129630D02*
X221500Y1129630D01*
X324500Y1129630D02*
X352500Y1129630D01*
X1336500Y1129630D02*
X1359500Y1129630D01*
X1492500Y1129630D02*
X1516500Y1129630D01*
X1547500Y1129630D02*
X1572500Y1129630D01*
X1767500Y1129630D02*
X1793500Y1129630D01*
X198500Y1128630D02*
X221500Y1128630D01*
X324500Y1128630D02*
X353500Y1128630D01*
X1336500Y1128630D02*
X1360500Y1128630D01*
X1492500Y1128630D02*
X1516500Y1128630D01*
X1547500Y1128630D02*
X1572500Y1128630D01*
X1767500Y1128630D02*
X1793500Y1128630D01*
X198500Y1127630D02*
X221500Y1127630D01*
X325500Y1127630D02*
X354500Y1127630D01*
X1336500Y1127630D02*
X1360500Y1127630D01*
X1492500Y1127630D02*
X1515500Y1127630D01*
X1546500Y1127630D02*
X1571500Y1127630D01*
X1766500Y1127630D02*
X1792500Y1127630D01*
X198500Y1126630D02*
X222500Y1126630D01*
X326500Y1126630D02*
X355500Y1126630D01*
X1337500Y1126630D02*
X1360500Y1126630D01*
X1492500Y1126630D02*
X1515500Y1126630D01*
X1546500Y1126630D02*
X1571500Y1126630D01*
X1766500Y1126630D02*
X1792500Y1126630D01*
X198500Y1125630D02*
X222500Y1125630D01*
X326500Y1125630D02*
X356500Y1125630D01*
X1337500Y1125630D02*
X1361500Y1125630D01*
X1492500Y1125630D02*
X1515500Y1125630D01*
X1546500Y1125630D02*
X1570500Y1125630D01*
X1765500Y1125630D02*
X1791500Y1125630D01*
X199500Y1124630D02*
X222500Y1124630D01*
X327500Y1124630D02*
X357500Y1124630D01*
X1337500Y1124630D02*
X1361500Y1124630D01*
X1492500Y1124630D02*
X1515500Y1124630D01*
X1545500Y1124630D02*
X1570500Y1124630D01*
X1765500Y1124630D02*
X1791500Y1124630D01*
X199500Y1123630D02*
X222500Y1123630D01*
X328500Y1123630D02*
X357500Y1123630D01*
X1338500Y1123630D02*
X1361500Y1123630D01*
X1491500Y1123630D02*
X1515500Y1123630D01*
X1545500Y1123630D02*
X1570500Y1123630D01*
X1764500Y1123630D02*
X1790500Y1123630D01*
X199500Y1122630D02*
X222500Y1122630D01*
X328500Y1122630D02*
X358500Y1122630D01*
X1338500Y1122630D02*
X1362500Y1122630D01*
X1491500Y1122630D02*
X1515500Y1122630D01*
X1544500Y1122630D02*
X1569500Y1122630D01*
X1764500Y1122630D02*
X1790500Y1122630D01*
X199500Y1121630D02*
X222500Y1121630D01*
X329500Y1121630D02*
X359500Y1121630D01*
X1338500Y1121630D02*
X1362500Y1121630D01*
X1491500Y1121630D02*
X1514500Y1121630D01*
X1544500Y1121630D02*
X1569500Y1121630D01*
X1763500Y1121630D02*
X1789500Y1121630D01*
X199500Y1120630D02*
X223500Y1120630D01*
X330500Y1120630D02*
X360500Y1120630D01*
X1339500Y1120630D02*
X1362500Y1120630D01*
X1491500Y1120630D02*
X1514500Y1120630D01*
X1544500Y1120630D02*
X1568500Y1120630D01*
X1763500Y1120630D02*
X1789500Y1120630D01*
X199500Y1119630D02*
X223500Y1119630D01*
X331500Y1119630D02*
X361500Y1119630D01*
X1339500Y1119630D02*
X1362500Y1119630D01*
X1491500Y1119630D02*
X1514500Y1119630D01*
X1543500Y1119630D02*
X1568500Y1119630D01*
X1762500Y1119630D02*
X1788500Y1119630D01*
X200500Y1118630D02*
X223500Y1118630D01*
X331500Y1118630D02*
X362500Y1118630D01*
X1339500Y1118630D02*
X1363500Y1118630D01*
X1491500Y1118630D02*
X1514500Y1118630D01*
X1543500Y1118630D02*
X1568500Y1118630D01*
X1761500Y1118630D02*
X1788500Y1118630D01*
X200500Y1117630D02*
X223500Y1117630D01*
X332500Y1117630D02*
X363500Y1117630D01*
X1339500Y1117630D02*
X1363500Y1117630D01*
X1490500Y1117630D02*
X1514500Y1117630D01*
X1543500Y1117630D02*
X1567500Y1117630D01*
X1761500Y1117630D02*
X1787500Y1117630D01*
X200500Y1116630D02*
X223500Y1116630D01*
X333500Y1116630D02*
X365500Y1116630D01*
X1340500Y1116630D02*
X1363500Y1116630D01*
X1490500Y1116630D02*
X1514500Y1116630D01*
X1542500Y1116630D02*
X1567500Y1116630D01*
X1760500Y1116630D02*
X1787500Y1116630D01*
X200500Y1115630D02*
X223500Y1115630D01*
X334500Y1115630D02*
X366500Y1115630D01*
X1340500Y1115630D02*
X1364500Y1115630D01*
X1490500Y1115630D02*
X1513500Y1115630D01*
X1542500Y1115630D02*
X1566500Y1115630D01*
X1760500Y1115630D02*
X1786500Y1115630D01*
X200500Y1114630D02*
X224500Y1114630D01*
X335500Y1114630D02*
X367500Y1114630D01*
X1340500Y1114630D02*
X1364500Y1114630D01*
X1490500Y1114630D02*
X1513500Y1114630D01*
X1542500Y1114630D02*
X1566500Y1114630D01*
X1759500Y1114630D02*
X1786500Y1114630D01*
X200500Y1113630D02*
X224500Y1113630D01*
X335500Y1113630D02*
X368500Y1113630D01*
X1341500Y1113630D02*
X1364500Y1113630D01*
X1490500Y1113630D02*
X1513500Y1113630D01*
X1541500Y1113630D02*
X1566500Y1113630D01*
X1759500Y1113630D02*
X1785500Y1113630D01*
X201500Y1112630D02*
X224500Y1112630D01*
X336500Y1112630D02*
X369500Y1112630D01*
X1341500Y1112630D02*
X1365500Y1112630D01*
X1489500Y1112630D02*
X1513500Y1112630D01*
X1541500Y1112630D02*
X1565500Y1112630D01*
X1758500Y1112630D02*
X1785500Y1112630D01*
X201500Y1111630D02*
X224500Y1111630D01*
X337500Y1111630D02*
X370500Y1111630D01*
X1341500Y1111630D02*
X1365500Y1111630D01*
X1489500Y1111630D02*
X1513500Y1111630D01*
X1541500Y1111630D02*
X1565500Y1111630D01*
X1758500Y1111630D02*
X1784500Y1111630D01*
X201500Y1110630D02*
X224500Y1110630D01*
X338500Y1110630D02*
X371500Y1110630D01*
X1342500Y1110630D02*
X1365500Y1110630D01*
X1489500Y1110630D02*
X1512500Y1110630D01*
X1540500Y1110630D02*
X1565500Y1110630D01*
X1757500Y1110630D02*
X1783500Y1110630D01*
X201500Y1109630D02*
X224500Y1109630D01*
X339500Y1109630D02*
X373500Y1109630D01*
X1342500Y1109630D02*
X1365500Y1109630D01*
X1489500Y1109630D02*
X1512500Y1109630D01*
X1540500Y1109630D02*
X1564500Y1109630D01*
X1756500Y1109630D02*
X1783500Y1109630D01*
X201500Y1108630D02*
X225500Y1108630D01*
X340500Y1108630D02*
X374500Y1108630D01*
X1342500Y1108630D02*
X1366500Y1108630D01*
X1489500Y1108630D02*
X1512500Y1108630D01*
X1539500Y1108630D02*
X1564500Y1108630D01*
X1756500Y1108630D02*
X1782500Y1108630D01*
X201500Y1107630D02*
X225500Y1107630D01*
X341500Y1107630D02*
X375500Y1107630D01*
X1342500Y1107630D02*
X1366500Y1107630D01*
X1488500Y1107630D02*
X1512500Y1107630D01*
X1539500Y1107630D02*
X1564500Y1107630D01*
X1755500Y1107630D02*
X1782500Y1107630D01*
X202500Y1106630D02*
X225500Y1106630D01*
X342500Y1106630D02*
X377500Y1106630D01*
X1343500Y1106630D02*
X1366500Y1106630D01*
X1488500Y1106630D02*
X1512500Y1106630D01*
X1539500Y1106630D02*
X1563500Y1106630D01*
X1755500Y1106630D02*
X1781500Y1106630D01*
X202500Y1105630D02*
X225500Y1105630D01*
X343500Y1105630D02*
X378500Y1105630D01*
X1343500Y1105630D02*
X1366500Y1105630D01*
X1488500Y1105630D02*
X1511500Y1105630D01*
X1538500Y1105630D02*
X1563500Y1105630D01*
X1754500Y1105630D02*
X1781500Y1105630D01*
X202500Y1104630D02*
X225500Y1104630D01*
X344500Y1104630D02*
X380500Y1104630D01*
X1343500Y1104630D02*
X1367500Y1104630D01*
X1488500Y1104630D02*
X1511500Y1104630D01*
X1538500Y1104630D02*
X1563500Y1104630D01*
X1753500Y1104630D02*
X1780500Y1104630D01*
X202500Y1103630D02*
X226500Y1103630D01*
X345500Y1103630D02*
X381500Y1103630D01*
X1344500Y1103630D02*
X1367500Y1103630D01*
X1488500Y1103630D02*
X1511500Y1103630D01*
X1538500Y1103630D02*
X1562500Y1103630D01*
X1753500Y1103630D02*
X1780500Y1103630D01*
X202500Y1102630D02*
X226500Y1102630D01*
X346500Y1102630D02*
X383500Y1102630D01*
X1344500Y1102630D02*
X1367500Y1102630D01*
X1487500Y1102630D02*
X1511500Y1102630D01*
X1537500Y1102630D02*
X1562500Y1102630D01*
X1752500Y1102630D02*
X1779500Y1102630D01*
X203500Y1101630D02*
X226500Y1101630D01*
X347500Y1101630D02*
X384500Y1101630D01*
X1344500Y1101630D02*
X1368500Y1101630D01*
X1487500Y1101630D02*
X1511500Y1101630D01*
X1537500Y1101630D02*
X1561500Y1101630D01*
X1752500Y1101630D02*
X1778500Y1101630D01*
X203500Y1100630D02*
X226500Y1100630D01*
X348500Y1100630D02*
X386500Y1100630D01*
X1344500Y1100630D02*
X1368500Y1100630D01*
X1487500Y1100630D02*
X1510500Y1100630D01*
X1537500Y1100630D02*
X1561500Y1100630D01*
X1751500Y1100630D02*
X1778500Y1100630D01*
X203500Y1099630D02*
X226500Y1099630D01*
X349500Y1099630D02*
X387500Y1099630D01*
X1345500Y1099630D02*
X1368500Y1099630D01*
X1487500Y1099630D02*
X1510500Y1099630D01*
X1536500Y1099630D02*
X1561500Y1099630D01*
X1750500Y1099630D02*
X1777500Y1099630D01*
X203500Y1098630D02*
X227500Y1098630D01*
X350500Y1098630D02*
X389500Y1098630D01*
X1345500Y1098630D02*
X1368500Y1098630D01*
X1487500Y1098630D02*
X1510500Y1098630D01*
X1536500Y1098630D02*
X1560500Y1098630D01*
X1750500Y1098630D02*
X1777500Y1098630D01*
X203500Y1097630D02*
X227500Y1097630D01*
X351500Y1097630D02*
X391500Y1097630D01*
X1345500Y1097630D02*
X1369500Y1097630D01*
X1486500Y1097630D02*
X1510500Y1097630D01*
X1536500Y1097630D02*
X1560500Y1097630D01*
X1749500Y1097630D02*
X1776500Y1097630D01*
X204500Y1096630D02*
X227500Y1096630D01*
X352500Y1096630D02*
X393500Y1096630D01*
X810500Y1096630D02*
X811500Y1096630D01*
X1346500Y1096630D02*
X1369500Y1096630D01*
X1486500Y1096630D02*
X1510500Y1096630D01*
X1536500Y1096630D02*
X1560500Y1096630D01*
X1749500Y1096630D02*
X1776500Y1096630D01*
X204500Y1095630D02*
X227500Y1095630D01*
X353500Y1095630D02*
X394500Y1095630D01*
X804500Y1095630D02*
X815500Y1095630D01*
X1346500Y1095630D02*
X1369500Y1095630D01*
X1486500Y1095630D02*
X1509500Y1095630D01*
X1535500Y1095630D02*
X1559500Y1095630D01*
X1748500Y1095630D02*
X1775500Y1095630D01*
X204500Y1094630D02*
X227500Y1094630D01*
X355500Y1094630D02*
X396500Y1094630D01*
X799500Y1094630D02*
X817500Y1094630D01*
X1346500Y1094630D02*
X1369500Y1094630D01*
X1486500Y1094630D02*
X1509500Y1094630D01*
X1535500Y1094630D02*
X1559500Y1094630D01*
X1747500Y1094630D02*
X1774500Y1094630D01*
X204500Y1093630D02*
X228500Y1093630D01*
X356500Y1093630D02*
X398500Y1093630D01*
X793500Y1093630D02*
X818500Y1093630D01*
X1346500Y1093630D02*
X1370500Y1093630D01*
X1486500Y1093630D02*
X1509500Y1093630D01*
X1535500Y1093630D02*
X1559500Y1093630D01*
X1747500Y1093630D02*
X1774500Y1093630D01*
X204500Y1092630D02*
X228500Y1092630D01*
X357500Y1092630D02*
X400500Y1092630D01*
X788500Y1092630D02*
X819500Y1092630D01*
X1347500Y1092630D02*
X1370500Y1092630D01*
X1485500Y1092630D02*
X1509500Y1092630D01*
X1534500Y1092630D02*
X1558500Y1092630D01*
X1746500Y1092630D02*
X1773500Y1092630D01*
X205500Y1091630D02*
X228500Y1091630D01*
X358500Y1091630D02*
X402500Y1091630D01*
X783500Y1091630D02*
X820500Y1091630D01*
X1347500Y1091630D02*
X1370500Y1091630D01*
X1485500Y1091630D02*
X1509500Y1091630D01*
X1534500Y1091630D02*
X1558500Y1091630D01*
X1746500Y1091630D02*
X1773500Y1091630D01*
X205500Y1090630D02*
X228500Y1090630D01*
X360500Y1090630D02*
X405500Y1090630D01*
X777500Y1090630D02*
X820500Y1090630D01*
X1347500Y1090630D02*
X1370500Y1090630D01*
X1485500Y1090630D02*
X1509500Y1090630D01*
X1534500Y1090630D02*
X1558500Y1090630D01*
X1745500Y1090630D02*
X1772500Y1090630D01*
X205500Y1089630D02*
X229500Y1089630D01*
X361500Y1089630D02*
X407500Y1089630D01*
X772500Y1089630D02*
X821500Y1089630D01*
X1347500Y1089630D02*
X1371500Y1089630D01*
X1485500Y1089630D02*
X1508500Y1089630D01*
X1533500Y1089630D02*
X1557500Y1089630D01*
X1744500Y1089630D02*
X1771500Y1089630D01*
X205500Y1088630D02*
X229500Y1088630D01*
X362500Y1088630D02*
X409500Y1088630D01*
X766500Y1088630D02*
X821500Y1088630D01*
X1348500Y1088630D02*
X1371500Y1088630D01*
X1485500Y1088630D02*
X1508500Y1088630D01*
X1533500Y1088630D02*
X1557500Y1088630D01*
X1744500Y1088630D02*
X1771500Y1088630D01*
X205500Y1087630D02*
X229500Y1087630D01*
X364500Y1087630D02*
X412500Y1087630D01*
X760500Y1087630D02*
X822500Y1087630D01*
X1348500Y1087630D02*
X1371500Y1087630D01*
X1484500Y1087630D02*
X1508500Y1087630D01*
X1533500Y1087630D02*
X1557500Y1087630D01*
X1743500Y1087630D02*
X1770500Y1087630D01*
X206500Y1086630D02*
X229500Y1086630D01*
X365500Y1086630D02*
X414500Y1086630D01*
X754500Y1086630D02*
X822500Y1086630D01*
X1348500Y1086630D02*
X1371500Y1086630D01*
X1484500Y1086630D02*
X1508500Y1086630D01*
X1532500Y1086630D02*
X1556500Y1086630D01*
X1743500Y1086630D02*
X1770500Y1086630D01*
X206500Y1085630D02*
X230500Y1085630D01*
X366500Y1085630D02*
X417500Y1085630D01*
X749500Y1085630D02*
X822500Y1085630D01*
X1348500Y1085630D02*
X1371500Y1085630D01*
X1484500Y1085630D02*
X1508500Y1085630D01*
X1532500Y1085630D02*
X1556500Y1085630D01*
X1742500Y1085630D02*
X1769500Y1085630D01*
X206500Y1084630D02*
X230500Y1084630D01*
X368500Y1084630D02*
X420500Y1084630D01*
X743500Y1084630D02*
X822500Y1084630D01*
X1349500Y1084630D02*
X1372500Y1084630D01*
X1484500Y1084630D02*
X1507500Y1084630D01*
X1532500Y1084630D02*
X1556500Y1084630D01*
X1741500Y1084630D02*
X1768500Y1084630D01*
X206500Y1083630D02*
X230500Y1083630D01*
X369500Y1083630D02*
X423500Y1083630D01*
X736500Y1083630D02*
X822500Y1083630D01*
X1349500Y1083630D02*
X1372500Y1083630D01*
X1484500Y1083630D02*
X1507500Y1083630D01*
X1531500Y1083630D02*
X1556500Y1083630D01*
X1741500Y1083630D02*
X1768500Y1083630D01*
X207500Y1082630D02*
X230500Y1082630D01*
X371500Y1082630D02*
X426500Y1082630D01*
X730500Y1082630D02*
X822500Y1082630D01*
X1349500Y1082630D02*
X1372500Y1082630D01*
X1483500Y1082630D02*
X1507500Y1082630D01*
X1531500Y1082630D02*
X1555500Y1082630D01*
X1740500Y1082630D02*
X1767500Y1082630D01*
X207500Y1081630D02*
X230500Y1081630D01*
X372500Y1081630D02*
X429500Y1081630D01*
X724500Y1081630D02*
X822500Y1081630D01*
X1349500Y1081630D02*
X1372500Y1081630D01*
X1483500Y1081630D02*
X1507500Y1081630D01*
X1531500Y1081630D02*
X1555500Y1081630D01*
X1740500Y1081630D02*
X1767500Y1081630D01*
X207500Y1080630D02*
X231500Y1080630D01*
X374500Y1080630D02*
X432500Y1080630D01*
X717500Y1080630D02*
X821500Y1080630D01*
X1349500Y1080630D02*
X1372500Y1080630D01*
X1483500Y1080630D02*
X1506500Y1080630D01*
X1531500Y1080630D02*
X1555500Y1080630D01*
X1739500Y1080630D02*
X1766500Y1080630D01*
X207500Y1079630D02*
X231500Y1079630D01*
X376500Y1079630D02*
X435500Y1079630D01*
X710500Y1079630D02*
X821500Y1079630D01*
X1350500Y1079630D02*
X1373500Y1079630D01*
X1483500Y1079630D02*
X1506500Y1079630D01*
X1530500Y1079630D02*
X1554500Y1079630D01*
X1738500Y1079630D02*
X1765500Y1079630D01*
X208500Y1078630D02*
X231500Y1078630D01*
X377500Y1078630D02*
X438500Y1078630D01*
X703500Y1078630D02*
X820500Y1078630D01*
X1350500Y1078630D02*
X1373500Y1078630D01*
X1482500Y1078630D02*
X1506500Y1078630D01*
X1530500Y1078630D02*
X1554500Y1078630D01*
X1738500Y1078630D02*
X1765500Y1078630D01*
X208500Y1077630D02*
X232500Y1077630D01*
X379500Y1077630D02*
X442500Y1077630D01*
X696500Y1077630D02*
X820500Y1077630D01*
X1350500Y1077630D02*
X1373500Y1077630D01*
X1482500Y1077630D02*
X1506500Y1077630D01*
X1530500Y1077630D02*
X1554500Y1077630D01*
X1737500Y1077630D02*
X1764500Y1077630D01*
X208500Y1076630D02*
X232500Y1076630D01*
X381500Y1076630D02*
X446500Y1076630D01*
X689500Y1076630D02*
X819500Y1076630D01*
X1350500Y1076630D02*
X1373500Y1076630D01*
X1482500Y1076630D02*
X1506500Y1076630D01*
X1529500Y1076630D02*
X1553500Y1076630D01*
X1737500Y1076630D02*
X1764500Y1076630D01*
X208500Y1075630D02*
X232500Y1075630D01*
X382500Y1075630D02*
X451500Y1075630D01*
X682500Y1075630D02*
X818500Y1075630D01*
X1351500Y1075630D02*
X1374500Y1075630D01*
X1482500Y1075630D02*
X1505500Y1075630D01*
X1529500Y1075630D02*
X1553500Y1075630D01*
X1736500Y1075630D02*
X1763500Y1075630D01*
X209500Y1074630D02*
X232500Y1074630D01*
X384500Y1074630D02*
X455500Y1074630D01*
X674500Y1074630D02*
X816500Y1074630D01*
X1351500Y1074630D02*
X1374500Y1074630D01*
X1482500Y1074630D02*
X1505500Y1074630D01*
X1529500Y1074630D02*
X1553500Y1074630D01*
X1735500Y1074630D02*
X1762500Y1074630D01*
X209500Y1073630D02*
X233500Y1073630D01*
X386500Y1073630D02*
X460500Y1073630D01*
X665500Y1073630D02*
X814500Y1073630D01*
X1351500Y1073630D02*
X1374500Y1073630D01*
X1481500Y1073630D02*
X1505500Y1073630D01*
X1529500Y1073630D02*
X1553500Y1073630D01*
X1735500Y1073630D02*
X1762500Y1073630D01*
X209500Y1072630D02*
X233500Y1072630D01*
X388500Y1072630D02*
X465500Y1072630D01*
X657500Y1072630D02*
X811500Y1072630D01*
X1351500Y1072630D02*
X1374500Y1072630D01*
X1481500Y1072630D02*
X1505500Y1072630D01*
X1528500Y1072630D02*
X1552500Y1072630D01*
X1734500Y1072630D02*
X1761500Y1072630D01*
X209500Y1071630D02*
X233500Y1071630D01*
X390500Y1071630D02*
X471500Y1071630D01*
X647500Y1071630D02*
X805500Y1071630D01*
X1351500Y1071630D02*
X1374500Y1071630D01*
X1481500Y1071630D02*
X1504500Y1071630D01*
X1528500Y1071630D02*
X1552500Y1071630D01*
X1734500Y1071630D02*
X1761500Y1071630D01*
X210500Y1070630D02*
X233500Y1070630D01*
X392500Y1070630D02*
X478500Y1070630D01*
X638500Y1070630D02*
X800500Y1070630D01*
X1352500Y1070630D02*
X1374500Y1070630D01*
X1481500Y1070630D02*
X1504500Y1070630D01*
X1528500Y1070630D02*
X1552500Y1070630D01*
X1733500Y1070630D02*
X1760500Y1070630D01*
X210500Y1069630D02*
X234500Y1069630D01*
X394500Y1069630D02*
X486500Y1069630D01*
X626500Y1069630D02*
X795500Y1069630D01*
X1352500Y1069630D02*
X1375500Y1069630D01*
X1480500Y1069630D02*
X1504500Y1069630D01*
X1527500Y1069630D02*
X1551500Y1069630D01*
X1732500Y1069630D02*
X1759500Y1069630D01*
X210500Y1068630D02*
X234500Y1068630D01*
X396500Y1068630D02*
X495500Y1068630D01*
X614500Y1068630D02*
X789500Y1068630D01*
X1352500Y1068630D02*
X1375500Y1068630D01*
X1480500Y1068630D02*
X1504500Y1068630D01*
X1527500Y1068630D02*
X1551500Y1068630D01*
X1732500Y1068630D02*
X1759500Y1068630D01*
X210500Y1067630D02*
X234500Y1067630D01*
X399500Y1067630D02*
X507500Y1067630D01*
X598500Y1067630D02*
X784500Y1067630D01*
X1352500Y1067630D02*
X1375500Y1067630D01*
X1480500Y1067630D02*
X1504500Y1067630D01*
X1527500Y1067630D02*
X1551500Y1067630D01*
X1731500Y1067630D02*
X1758500Y1067630D01*
X211500Y1066630D02*
X234500Y1066630D01*
X401500Y1066630D02*
X524500Y1066630D01*
X577500Y1066630D02*
X778500Y1066630D01*
X1352500Y1066630D02*
X1375500Y1066630D01*
X1480500Y1066630D02*
X1503500Y1066630D01*
X1527500Y1066630D02*
X1551500Y1066630D01*
X1731500Y1066630D02*
X1758500Y1066630D01*
X211500Y1065630D02*
X235500Y1065630D01*
X403500Y1065630D02*
X773500Y1065630D01*
X1352500Y1065630D02*
X1375500Y1065630D01*
X1479500Y1065630D02*
X1503500Y1065630D01*
X1526500Y1065630D02*
X1550500Y1065630D01*
X1730500Y1065630D02*
X1757500Y1065630D01*
X211500Y1064630D02*
X235500Y1064630D01*
X406500Y1064630D02*
X767500Y1064630D01*
X1353500Y1064630D02*
X1376500Y1064630D01*
X1479500Y1064630D02*
X1503500Y1064630D01*
X1526500Y1064630D02*
X1550500Y1064630D01*
X1730500Y1064630D02*
X1756500Y1064630D01*
X211500Y1063630D02*
X235500Y1063630D01*
X408500Y1063630D02*
X761500Y1063630D01*
X1353500Y1063630D02*
X1376500Y1063630D01*
X1479500Y1063630D02*
X1503500Y1063630D01*
X1526500Y1063630D02*
X1550500Y1063630D01*
X1729500Y1063630D02*
X1756500Y1063630D01*
X212500Y1062630D02*
X236500Y1062630D01*
X411500Y1062630D02*
X755500Y1062630D01*
X1353500Y1062630D02*
X1376500Y1062630D01*
X1479500Y1062630D02*
X1502500Y1062630D01*
X1526500Y1062630D02*
X1549500Y1062630D01*
X1728500Y1062630D02*
X1755500Y1062630D01*
X212500Y1061630D02*
X236500Y1061630D01*
X414500Y1061630D02*
X750500Y1061630D01*
X1353500Y1061630D02*
X1376500Y1061630D01*
X1479500Y1061630D02*
X1502500Y1061630D01*
X1525500Y1061630D02*
X1549500Y1061630D01*
X1728500Y1061630D02*
X1755500Y1061630D01*
X212500Y1060630D02*
X236500Y1060630D01*
X416500Y1060630D02*
X743500Y1060630D01*
X1353500Y1060630D02*
X1376500Y1060630D01*
X1478500Y1060630D02*
X1502500Y1060630D01*
X1525500Y1060630D02*
X1549500Y1060630D01*
X1727500Y1060630D02*
X1754500Y1060630D01*
X213500Y1059630D02*
X237500Y1059630D01*
X419500Y1059630D02*
X737500Y1059630D01*
X1354500Y1059630D02*
X1376500Y1059630D01*
X1478500Y1059630D02*
X1502500Y1059630D01*
X1525500Y1059630D02*
X1549500Y1059630D01*
X1727500Y1059630D02*
X1753500Y1059630D01*
X213500Y1058630D02*
X237500Y1058630D01*
X422500Y1058630D02*
X731500Y1058630D01*
X1354500Y1058630D02*
X1377500Y1058630D01*
X1478500Y1058630D02*
X1501500Y1058630D01*
X1525500Y1058630D02*
X1548500Y1058630D01*
X1726500Y1058630D02*
X1753500Y1058630D01*
X213500Y1057630D02*
X237500Y1057630D01*
X426500Y1057630D02*
X725500Y1057630D01*
X1354500Y1057630D02*
X1377500Y1057630D01*
X1478500Y1057630D02*
X1501500Y1057630D01*
X1524500Y1057630D02*
X1548500Y1057630D01*
X1725500Y1057630D02*
X1752500Y1057630D01*
X213500Y1056630D02*
X237500Y1056630D01*
X429500Y1056630D02*
X718500Y1056630D01*
X1354500Y1056630D02*
X1377500Y1056630D01*
X1477500Y1056630D02*
X1501500Y1056630D01*
X1524500Y1056630D02*
X1548500Y1056630D01*
X1725500Y1056630D02*
X1752500Y1056630D01*
X214500Y1055630D02*
X238500Y1055630D01*
X433500Y1055630D02*
X711500Y1055630D01*
X1354500Y1055630D02*
X1377500Y1055630D01*
X1477500Y1055630D02*
X1501500Y1055630D01*
X1524500Y1055630D02*
X1548500Y1055630D01*
X1724500Y1055630D02*
X1751500Y1055630D01*
X214500Y1054630D02*
X238500Y1054630D01*
X436500Y1054630D02*
X704500Y1054630D01*
X1354500Y1054630D02*
X1377500Y1054630D01*
X1477500Y1054630D02*
X1501500Y1054630D01*
X1524500Y1054630D02*
X1547500Y1054630D01*
X1724500Y1054630D02*
X1750500Y1054630D01*
X214500Y1053630D02*
X238500Y1053630D01*
X440500Y1053630D02*
X697500Y1053630D01*
X1354500Y1053630D02*
X1377500Y1053630D01*
X1477500Y1053630D02*
X1500500Y1053630D01*
X1523500Y1053630D02*
X1547500Y1053630D01*
X1723500Y1053630D02*
X1750500Y1053630D01*
X215500Y1052630D02*
X239500Y1052630D01*
X444500Y1052630D02*
X690500Y1052630D01*
X1355500Y1052630D02*
X1377500Y1052630D01*
X1476500Y1052630D02*
X1500500Y1052630D01*
X1523500Y1052630D02*
X1547500Y1052630D01*
X1723500Y1052630D02*
X1749500Y1052630D01*
X215500Y1051630D02*
X239500Y1051630D01*
X449500Y1051630D02*
X682500Y1051630D01*
X1355500Y1051630D02*
X1377500Y1051630D01*
X1476500Y1051630D02*
X1500500Y1051630D01*
X1523500Y1051630D02*
X1547500Y1051630D01*
X1722500Y1051630D02*
X1749500Y1051630D01*
X215500Y1050630D02*
X239500Y1050630D01*
X454500Y1050630D02*
X674500Y1050630D01*
X1355500Y1050630D02*
X1378500Y1050630D01*
X1476500Y1050630D02*
X1500500Y1050630D01*
X1523500Y1050630D02*
X1546500Y1050630D01*
X1721500Y1050630D02*
X1748500Y1050630D01*
X216500Y1049630D02*
X240500Y1049630D01*
X459500Y1049630D02*
X666500Y1049630D01*
X1355500Y1049630D02*
X1378500Y1049630D01*
X1476500Y1049630D02*
X1499500Y1049630D01*
X1523500Y1049630D02*
X1546500Y1049630D01*
X1721500Y1049630D02*
X1748500Y1049630D01*
X216500Y1048630D02*
X240500Y1048630D01*
X465500Y1048630D02*
X657500Y1048630D01*
X1355500Y1048630D02*
X1378500Y1048630D01*
X1475500Y1048630D02*
X1499500Y1048630D01*
X1522500Y1048630D02*
X1546500Y1048630D01*
X1720500Y1048630D02*
X1747500Y1048630D01*
X216500Y1047630D02*
X240500Y1047630D01*
X471500Y1047630D02*
X647500Y1047630D01*
X1355500Y1047630D02*
X1378500Y1047630D01*
X1475500Y1047630D02*
X1499500Y1047630D01*
X1522500Y1047630D02*
X1546500Y1047630D01*
X1720500Y1047630D02*
X1746500Y1047630D01*
X217500Y1046630D02*
X241500Y1046630D01*
X478500Y1046630D02*
X638500Y1046630D01*
X1355500Y1046630D02*
X1378500Y1046630D01*
X1475500Y1046630D02*
X1499500Y1046630D01*
X1522500Y1046630D02*
X1545500Y1046630D01*
X1719500Y1046630D02*
X1746500Y1046630D01*
X217500Y1045630D02*
X241500Y1045630D01*
X486500Y1045630D02*
X626500Y1045630D01*
X1356500Y1045630D02*
X1378500Y1045630D01*
X1475500Y1045630D02*
X1498500Y1045630D01*
X1522500Y1045630D02*
X1545500Y1045630D01*
X1718500Y1045630D02*
X1745500Y1045630D01*
X217500Y1044630D02*
X241500Y1044630D01*
X495500Y1044630D02*
X614500Y1044630D01*
X1356500Y1044630D02*
X1378500Y1044630D01*
X1474500Y1044630D02*
X1498500Y1044630D01*
X1521500Y1044630D02*
X1545500Y1044630D01*
X1718500Y1044630D02*
X1745500Y1044630D01*
X217500Y1043630D02*
X242500Y1043630D01*
X507500Y1043630D02*
X598500Y1043630D01*
X1356500Y1043630D02*
X1378500Y1043630D01*
X1474500Y1043630D02*
X1498500Y1043630D01*
X1521500Y1043630D02*
X1545500Y1043630D01*
X1717500Y1043630D02*
X1744500Y1043630D01*
X218500Y1042630D02*
X242500Y1042630D01*
X527500Y1042630D02*
X577500Y1042630D01*
X1356500Y1042630D02*
X1379500Y1042630D01*
X1474500Y1042630D02*
X1498500Y1042630D01*
X1521500Y1042630D02*
X1545500Y1042630D01*
X1717500Y1042630D02*
X1743500Y1042630D01*
X218500Y1041630D02*
X242500Y1041630D01*
X1356500Y1041630D02*
X1379500Y1041630D01*
X1474500Y1041630D02*
X1497500Y1041630D01*
X1521500Y1041630D02*
X1544500Y1041630D01*
X1716500Y1041630D02*
X1743500Y1041630D01*
X218500Y1040630D02*
X243500Y1040630D01*
X1356500Y1040630D02*
X1379500Y1040630D01*
X1473500Y1040630D02*
X1497500Y1040630D01*
X1521500Y1040630D02*
X1544500Y1040630D01*
X1716500Y1040630D02*
X1742500Y1040630D01*
X219500Y1039630D02*
X243500Y1039630D01*
X1356500Y1039630D02*
X1379500Y1039630D01*
X1473500Y1039630D02*
X1497500Y1039630D01*
X1520500Y1039630D02*
X1544500Y1039630D01*
X1715500Y1039630D02*
X1742500Y1039630D01*
X219500Y1038630D02*
X243500Y1038630D01*
X1356500Y1038630D02*
X1379500Y1038630D01*
X1473500Y1038630D02*
X1497500Y1038630D01*
X1520500Y1038630D02*
X1544500Y1038630D01*
X1715500Y1038630D02*
X1741500Y1038630D01*
X219500Y1037630D02*
X244500Y1037630D01*
X1356500Y1037630D02*
X1379500Y1037630D01*
X1472500Y1037630D02*
X1496500Y1037630D01*
X1520500Y1037630D02*
X1544500Y1037630D01*
X1714500Y1037630D02*
X1741500Y1037630D01*
X220500Y1036630D02*
X244500Y1036630D01*
X1356500Y1036630D02*
X1379500Y1036630D01*
X1472500Y1036630D02*
X1496500Y1036630D01*
X1520500Y1036630D02*
X1543500Y1036630D01*
X1714500Y1036630D02*
X1740500Y1036630D01*
X220500Y1035630D02*
X245500Y1035630D01*
X1356500Y1035630D02*
X1379500Y1035630D01*
X1472500Y1035630D02*
X1496500Y1035630D01*
X1520500Y1035630D02*
X1543500Y1035630D01*
X1713500Y1035630D02*
X1739500Y1035630D01*
X221500Y1034630D02*
X245500Y1034630D01*
X1357500Y1034630D02*
X1379500Y1034630D01*
X1472500Y1034630D02*
X1495500Y1034630D01*
X1519500Y1034630D02*
X1543500Y1034630D01*
X1712500Y1034630D02*
X1739500Y1034630D01*
X221500Y1033630D02*
X245500Y1033630D01*
X1357500Y1033630D02*
X1379500Y1033630D01*
X1471500Y1033630D02*
X1495500Y1033630D01*
X1519500Y1033630D02*
X1543500Y1033630D01*
X1712500Y1033630D02*
X1738500Y1033630D01*
X221500Y1032630D02*
X246500Y1032630D01*
X1357500Y1032630D02*
X1379500Y1032630D01*
X1471500Y1032630D02*
X1495500Y1032630D01*
X1519500Y1032630D02*
X1542500Y1032630D01*
X1711500Y1032630D02*
X1738500Y1032630D01*
X222500Y1031630D02*
X246500Y1031630D01*
X1357500Y1031630D02*
X1379500Y1031630D01*
X1471500Y1031630D02*
X1495500Y1031630D01*
X1519500Y1031630D02*
X1542500Y1031630D01*
X1711500Y1031630D02*
X1737500Y1031630D01*
X222500Y1030630D02*
X246500Y1030630D01*
X1357500Y1030630D02*
X1380500Y1030630D01*
X1471500Y1030630D02*
X1494500Y1030630D01*
X1519500Y1030630D02*
X1542500Y1030630D01*
X1710500Y1030630D02*
X1737500Y1030630D01*
X222500Y1029630D02*
X247500Y1029630D01*
X1357500Y1029630D02*
X1380500Y1029630D01*
X1470500Y1029630D02*
X1494500Y1029630D01*
X1518500Y1029630D02*
X1542500Y1029630D01*
X1710500Y1029630D02*
X1736500Y1029630D01*
X223500Y1028630D02*
X247500Y1028630D01*
X1357500Y1028630D02*
X1380500Y1028630D01*
X1470500Y1028630D02*
X1494500Y1028630D01*
X1518500Y1028630D02*
X1542500Y1028630D01*
X1709500Y1028630D02*
X1735500Y1028630D01*
X223500Y1027630D02*
X248500Y1027630D01*
X1357500Y1027630D02*
X1380500Y1027630D01*
X1470500Y1027630D02*
X1494500Y1027630D01*
X1518500Y1027630D02*
X1541500Y1027630D01*
X1709500Y1027630D02*
X1735500Y1027630D01*
X223500Y1026630D02*
X248500Y1026630D01*
X1357500Y1026630D02*
X1380500Y1026630D01*
X1470500Y1026630D02*
X1493500Y1026630D01*
X1518500Y1026630D02*
X1541500Y1026630D01*
X1708500Y1026630D02*
X1734500Y1026630D01*
X224500Y1025630D02*
X248500Y1025630D01*
X1357500Y1025630D02*
X1380500Y1025630D01*
X1469500Y1025630D02*
X1493500Y1025630D01*
X1518500Y1025630D02*
X1541500Y1025630D01*
X1708500Y1025630D02*
X1734500Y1025630D01*
X224500Y1024630D02*
X249500Y1024630D01*
X1357500Y1024630D02*
X1380500Y1024630D01*
X1469500Y1024630D02*
X1493500Y1024630D01*
X1518500Y1024630D02*
X1541500Y1024630D01*
X1707500Y1024630D02*
X1733500Y1024630D01*
X224500Y1023630D02*
X249500Y1023630D01*
X1357500Y1023630D02*
X1380500Y1023630D01*
X1469500Y1023630D02*
X1493500Y1023630D01*
X1517500Y1023630D02*
X1541500Y1023630D01*
X1707500Y1023630D02*
X1733500Y1023630D01*
X225500Y1022630D02*
X250500Y1022630D01*
X1357500Y1022630D02*
X1380500Y1022630D01*
X1468500Y1022630D02*
X1492500Y1022630D01*
X1517500Y1022630D02*
X1541500Y1022630D01*
X1706500Y1022630D02*
X1732500Y1022630D01*
X225500Y1021630D02*
X250500Y1021630D01*
X1357500Y1021630D02*
X1380500Y1021630D01*
X1468500Y1021630D02*
X1492500Y1021630D01*
X1517500Y1021630D02*
X1540500Y1021630D01*
X1706500Y1021630D02*
X1732500Y1021630D01*
X226500Y1020630D02*
X250500Y1020630D01*
X1357500Y1020630D02*
X1380500Y1020630D01*
X1468500Y1020630D02*
X1492500Y1020630D01*
X1517500Y1020630D02*
X1540500Y1020630D01*
X1705500Y1020630D02*
X1731500Y1020630D01*
X226500Y1019630D02*
X251500Y1019630D01*
X1357500Y1019630D02*
X1380500Y1019630D01*
X1468500Y1019630D02*
X1491500Y1019630D01*
X1517500Y1019630D02*
X1540500Y1019630D01*
X1705500Y1019630D02*
X1731500Y1019630D01*
X226500Y1018630D02*
X251500Y1018630D01*
X1357500Y1018630D02*
X1380500Y1018630D01*
X1467500Y1018630D02*
X1491500Y1018630D01*
X1517500Y1018630D02*
X1540500Y1018630D01*
X1704500Y1018630D02*
X1730500Y1018630D01*
X227500Y1017630D02*
X252500Y1017630D01*
X1357500Y1017630D02*
X1380500Y1017630D01*
X1467500Y1017630D02*
X1491500Y1017630D01*
X1516500Y1017630D02*
X1540500Y1017630D01*
X1704500Y1017630D02*
X1730500Y1017630D01*
X227500Y1016630D02*
X252500Y1016630D01*
X1357500Y1016630D02*
X1380500Y1016630D01*
X1467500Y1016630D02*
X1491500Y1016630D01*
X1516500Y1016630D02*
X1539500Y1016630D01*
X1703500Y1016630D02*
X1729500Y1016630D01*
X228500Y1015630D02*
X252500Y1015630D01*
X1357500Y1015630D02*
X1380500Y1015630D01*
X1466500Y1015630D02*
X1490500Y1015630D01*
X1516500Y1015630D02*
X1539500Y1015630D01*
X1703500Y1015630D02*
X1729500Y1015630D01*
X228500Y1014630D02*
X253500Y1014630D01*
X1357500Y1014630D02*
X1380500Y1014630D01*
X1466500Y1014630D02*
X1490500Y1014630D01*
X1516500Y1014630D02*
X1539500Y1014630D01*
X1702500Y1014630D02*
X1728500Y1014630D01*
X228500Y1013630D02*
X253500Y1013630D01*
X1357500Y1013630D02*
X1380500Y1013630D01*
X1466500Y1013630D02*
X1490500Y1013630D01*
X1516500Y1013630D02*
X1539500Y1013630D01*
X1702500Y1013630D02*
X1728500Y1013630D01*
X229500Y1012630D02*
X254500Y1012630D01*
X1357500Y1012630D02*
X1380500Y1012630D01*
X1466500Y1012630D02*
X1489500Y1012630D01*
X1516500Y1012630D02*
X1539500Y1012630D01*
X1702500Y1012630D02*
X1727500Y1012630D01*
X229500Y1011630D02*
X254500Y1011630D01*
X1357500Y1011630D02*
X1380500Y1011630D01*
X1465500Y1011630D02*
X1489500Y1011630D01*
X1516500Y1011630D02*
X1539500Y1011630D01*
X1701500Y1011630D02*
X1727500Y1011630D01*
X230500Y1010630D02*
X255500Y1010630D01*
X1357500Y1010630D02*
X1380500Y1010630D01*
X1465500Y1010630D02*
X1489500Y1010630D01*
X1515500Y1010630D02*
X1539500Y1010630D01*
X1701500Y1010630D02*
X1726500Y1010630D01*
X230500Y1009630D02*
X255500Y1009630D01*
X1357500Y1009630D02*
X1380500Y1009630D01*
X1465500Y1009630D02*
X1489500Y1009630D01*
X1515500Y1009630D02*
X1538500Y1009630D01*
X1700500Y1009630D02*
X1726500Y1009630D01*
X230500Y1008630D02*
X256500Y1008630D01*
X1357500Y1008630D02*
X1380500Y1008630D01*
X1464500Y1008630D02*
X1488500Y1008630D01*
X1515500Y1008630D02*
X1538500Y1008630D01*
X1700500Y1008630D02*
X1725500Y1008630D01*
X231500Y1007630D02*
X256500Y1007630D01*
X1357500Y1007630D02*
X1380500Y1007630D01*
X1464500Y1007630D02*
X1488500Y1007630D01*
X1515500Y1007630D02*
X1538500Y1007630D01*
X1699500Y1007630D02*
X1725500Y1007630D01*
X231500Y1006630D02*
X256500Y1006630D01*
X1357500Y1006630D02*
X1380500Y1006630D01*
X1464500Y1006630D02*
X1488500Y1006630D01*
X1515500Y1006630D02*
X1538500Y1006630D01*
X1699500Y1006630D02*
X1724500Y1006630D01*
X232500Y1005630D02*
X257500Y1005630D01*
X1357500Y1005630D02*
X1380500Y1005630D01*
X1463500Y1005630D02*
X1487500Y1005630D01*
X1515500Y1005630D02*
X1538500Y1005630D01*
X1698500Y1005630D02*
X1724500Y1005630D01*
X232500Y1004630D02*
X257500Y1004630D01*
X1357500Y1004630D02*
X1380500Y1004630D01*
X1463500Y1004630D02*
X1487500Y1004630D01*
X1515500Y1004630D02*
X1538500Y1004630D01*
X1698500Y1004630D02*
X1723500Y1004630D01*
X232500Y1003630D02*
X258500Y1003630D01*
X1357500Y1003630D02*
X1380500Y1003630D01*
X1463500Y1003630D02*
X1487500Y1003630D01*
X1515500Y1003630D02*
X1538500Y1003630D01*
X1698500Y1003630D02*
X1723500Y1003630D01*
X233500Y1002630D02*
X258500Y1002630D01*
X1357500Y1002630D02*
X1380500Y1002630D01*
X1463500Y1002630D02*
X1487500Y1002630D01*
X1514500Y1002630D02*
X1537500Y1002630D01*
X1697500Y1002630D02*
X1722500Y1002630D01*
X233500Y1001630D02*
X259500Y1001630D01*
X1357500Y1001630D02*
X1380500Y1001630D01*
X1462500Y1001630D02*
X1486500Y1001630D01*
X1514500Y1001630D02*
X1537500Y1001630D01*
X1697500Y1001630D02*
X1722500Y1001630D01*
X234500Y1000630D02*
X259500Y1000630D01*
X1357500Y1000630D02*
X1379500Y1000630D01*
X1462500Y1000630D02*
X1486500Y1000630D01*
X1514500Y1000630D02*
X1537500Y1000630D01*
X1696500Y1000630D02*
X1721500Y1000630D01*
X234500Y999630D02*
X260500Y999630D01*
X1357500Y999630D02*
X1379500Y999630D01*
X1462500Y999630D02*
X1486500Y999630D01*
X1514500Y999630D02*
X1537500Y999630D01*
X1696500Y999630D02*
X1721500Y999630D01*
X235500Y998630D02*
X260500Y998630D01*
X1356500Y998630D02*
X1379500Y998630D01*
X1461500Y998630D02*
X1485500Y998630D01*
X1514500Y998630D02*
X1537500Y998630D01*
X1696500Y998630D02*
X1720500Y998630D01*
X235500Y997630D02*
X261500Y997630D01*
X1275500Y997630D02*
X1278500Y997630D01*
X1356500Y997630D02*
X1379500Y997630D01*
X1461500Y997630D02*
X1485500Y997630D01*
X1514500Y997630D02*
X1537500Y997630D01*
X1695500Y997630D02*
X1720500Y997630D01*
X236500Y996630D02*
X261500Y996630D01*
X809500Y996630D02*
X815500Y996630D01*
X1272500Y996630D02*
X1281500Y996630D01*
X1356500Y996630D02*
X1379500Y996630D01*
X1461500Y996630D02*
X1485500Y996630D01*
X1514500Y996630D02*
X1537500Y996630D01*
X1695500Y996630D02*
X1720500Y996630D01*
X236500Y995630D02*
X262500Y995630D01*
X806500Y995630D02*
X819500Y995630D01*
X1270500Y995630D02*
X1283500Y995630D01*
X1356500Y995630D02*
X1379500Y995630D01*
X1460500Y995630D02*
X1484500Y995630D01*
X1514500Y995630D02*
X1537500Y995630D01*
X1694500Y995630D02*
X1719500Y995630D01*
X237500Y994630D02*
X262500Y994630D01*
X805500Y994630D02*
X823500Y994630D01*
X1269500Y994630D02*
X1284500Y994630D01*
X1356500Y994630D02*
X1379500Y994630D01*
X1460500Y994630D02*
X1484500Y994630D01*
X1514500Y994630D02*
X1537500Y994630D01*
X1694500Y994630D02*
X1719500Y994630D01*
X237500Y993630D02*
X263500Y993630D01*
X803500Y993630D02*
X827500Y993630D01*
X1268500Y993630D02*
X1285500Y993630D01*
X1356500Y993630D02*
X1379500Y993630D01*
X1460500Y993630D02*
X1484500Y993630D01*
X1513500Y993630D02*
X1536500Y993630D01*
X1694500Y993630D02*
X1718500Y993630D01*
X237500Y992630D02*
X263500Y992630D01*
X802500Y992630D02*
X830500Y992630D01*
X1267500Y992630D02*
X1286500Y992630D01*
X1356500Y992630D02*
X1379500Y992630D01*
X1459500Y992630D02*
X1483500Y992630D01*
X1513500Y992630D02*
X1536500Y992630D01*
X1693500Y992630D02*
X1718500Y992630D01*
X238500Y991630D02*
X264500Y991630D01*
X802500Y991630D02*
X833500Y991630D01*
X1266500Y991630D02*
X1286500Y991630D01*
X1356500Y991630D02*
X1379500Y991630D01*
X1459500Y991630D02*
X1483500Y991630D01*
X1513500Y991630D02*
X1536500Y991630D01*
X1693500Y991630D02*
X1718500Y991630D01*
X238500Y990630D02*
X264500Y990630D01*
X801500Y990630D02*
X837500Y990630D01*
X1266500Y990630D02*
X1287500Y990630D01*
X1355500Y990630D02*
X1379500Y990630D01*
X1459500Y990630D02*
X1483500Y990630D01*
X1513500Y990630D02*
X1536500Y990630D01*
X1693500Y990630D02*
X1717500Y990630D01*
X239500Y989630D02*
X265500Y989630D01*
X801500Y989630D02*
X840500Y989630D01*
X1265500Y989630D02*
X1287500Y989630D01*
X1355500Y989630D02*
X1378500Y989630D01*
X1458500Y989630D02*
X1483500Y989630D01*
X1513500Y989630D02*
X1536500Y989630D01*
X1692500Y989630D02*
X1717500Y989630D01*
X239500Y988630D02*
X265500Y988630D01*
X800500Y988630D02*
X843500Y988630D01*
X1265500Y988630D02*
X1288500Y988630D01*
X1355500Y988630D02*
X1378500Y988630D01*
X1458500Y988630D02*
X1482500Y988630D01*
X1513500Y988630D02*
X1536500Y988630D01*
X1692500Y988630D02*
X1716500Y988630D01*
X240500Y987630D02*
X266500Y987630D01*
X800500Y987630D02*
X846500Y987630D01*
X1264500Y987630D02*
X1288500Y987630D01*
X1355500Y987630D02*
X1378500Y987630D01*
X1458500Y987630D02*
X1482500Y987630D01*
X1513500Y987630D02*
X1536500Y987630D01*
X1692500Y987630D02*
X1716500Y987630D01*
X240500Y986630D02*
X266500Y986630D01*
X799500Y986630D02*
X850500Y986630D01*
X1264500Y986630D02*
X1288500Y986630D01*
X1355500Y986630D02*
X1378500Y986630D01*
X1457500Y986630D02*
X1482500Y986630D01*
X1513500Y986630D02*
X1536500Y986630D01*
X1691500Y986630D02*
X1716500Y986630D01*
X241500Y985630D02*
X267500Y985630D01*
X799500Y985630D02*
X853500Y985630D01*
X1263500Y985630D02*
X1288500Y985630D01*
X1355500Y985630D02*
X1378500Y985630D01*
X1457500Y985630D02*
X1481500Y985630D01*
X1513500Y985630D02*
X1536500Y985630D01*
X1691500Y985630D02*
X1715500Y985630D01*
X241500Y984630D02*
X267500Y984630D01*
X799500Y984630D02*
X856500Y984630D01*
X1262500Y984630D02*
X1288500Y984630D01*
X1354500Y984630D02*
X1378500Y984630D01*
X1457500Y984630D02*
X1481500Y984630D01*
X1513500Y984630D02*
X1536500Y984630D01*
X1691500Y984630D02*
X1715500Y984630D01*
X242500Y983630D02*
X268500Y983630D01*
X799500Y983630D02*
X860500Y983630D01*
X1262500Y983630D02*
X1288500Y983630D01*
X1354500Y983630D02*
X1378500Y983630D01*
X1456500Y983630D02*
X1481500Y983630D01*
X1513500Y983630D02*
X1536500Y983630D01*
X1690500Y983630D02*
X1715500Y983630D01*
X242500Y982630D02*
X268500Y982630D01*
X799500Y982630D02*
X863500Y982630D01*
X1261500Y982630D02*
X1287500Y982630D01*
X1354500Y982630D02*
X1377500Y982630D01*
X1456500Y982630D02*
X1480500Y982630D01*
X1513500Y982630D02*
X1535500Y982630D01*
X1690500Y982630D02*
X1714500Y982630D01*
X243500Y981630D02*
X269500Y981630D01*
X799500Y981630D02*
X866500Y981630D01*
X1260500Y981630D02*
X1287500Y981630D01*
X1354500Y981630D02*
X1377500Y981630D01*
X1456500Y981630D02*
X1480500Y981630D01*
X1512500Y981630D02*
X1535500Y981630D01*
X1690500Y981630D02*
X1714500Y981630D01*
X243500Y980630D02*
X269500Y980630D01*
X800500Y980630D02*
X869500Y980630D01*
X1260500Y980630D02*
X1287500Y980630D01*
X1354500Y980630D02*
X1377500Y980630D01*
X1455500Y980630D02*
X1480500Y980630D01*
X1512500Y980630D02*
X1535500Y980630D01*
X1689500Y980630D02*
X1713500Y980630D01*
X244500Y979630D02*
X270500Y979630D01*
X800500Y979630D02*
X873500Y979630D01*
X1259500Y979630D02*
X1286500Y979630D01*
X1353500Y979630D02*
X1377500Y979630D01*
X1455500Y979630D02*
X1479500Y979630D01*
X1512500Y979630D02*
X1535500Y979630D01*
X1689500Y979630D02*
X1713500Y979630D01*
X244500Y978630D02*
X270500Y978630D01*
X801500Y978630D02*
X876500Y978630D01*
X1258500Y978630D02*
X1286500Y978630D01*
X1353500Y978630D02*
X1377500Y978630D01*
X1455500Y978630D02*
X1479500Y978630D01*
X1512500Y978630D02*
X1535500Y978630D01*
X1689500Y978630D02*
X1713500Y978630D01*
X245500Y977630D02*
X271500Y977630D01*
X801500Y977630D02*
X879500Y977630D01*
X1258500Y977630D02*
X1285500Y977630D01*
X1353500Y977630D02*
X1376500Y977630D01*
X1454500Y977630D02*
X1479500Y977630D01*
X1512500Y977630D02*
X1535500Y977630D01*
X1688500Y977630D02*
X1712500Y977630D01*
X245500Y976630D02*
X272500Y976630D01*
X802500Y976630D02*
X883500Y976630D01*
X1257500Y976630D02*
X1284500Y976630D01*
X1353500Y976630D02*
X1376500Y976630D01*
X1454500Y976630D02*
X1478500Y976630D01*
X1512500Y976630D02*
X1535500Y976630D01*
X1688500Y976630D02*
X1712500Y976630D01*
X246500Y975630D02*
X272500Y975630D01*
X803500Y975630D02*
X886500Y975630D01*
X1256500Y975630D02*
X1284500Y975630D01*
X1353500Y975630D02*
X1376500Y975630D01*
X1454500Y975630D02*
X1478500Y975630D01*
X1512500Y975630D02*
X1535500Y975630D01*
X1688500Y975630D02*
X1712500Y975630D01*
X246500Y974630D02*
X273500Y974630D01*
X805500Y974630D02*
X890500Y974630D01*
X1255500Y974630D02*
X1283500Y974630D01*
X1352500Y974630D02*
X1376500Y974630D01*
X1453500Y974630D02*
X1478500Y974630D01*
X1512500Y974630D02*
X1535500Y974630D01*
X1688500Y974630D02*
X1712500Y974630D01*
X247500Y973630D02*
X273500Y973630D01*
X807500Y973630D02*
X893500Y973630D01*
X1254500Y973630D02*
X1283500Y973630D01*
X1352500Y973630D02*
X1376500Y973630D01*
X1453500Y973630D02*
X1477500Y973630D01*
X1512500Y973630D02*
X1535500Y973630D01*
X1687500Y973630D02*
X1711500Y973630D01*
X247500Y972630D02*
X274500Y972630D01*
X813500Y972630D02*
X896500Y972630D01*
X1253500Y972630D02*
X1282500Y972630D01*
X1352500Y972630D02*
X1375500Y972630D01*
X1453500Y972630D02*
X1477500Y972630D01*
X1512500Y972630D02*
X1535500Y972630D01*
X1687500Y972630D02*
X1711500Y972630D01*
X248500Y971630D02*
X274500Y971630D01*
X817500Y971630D02*
X900500Y971630D01*
X1252500Y971630D02*
X1281500Y971630D01*
X1351500Y971630D02*
X1375500Y971630D01*
X1452500Y971630D02*
X1477500Y971630D01*
X1512500Y971630D02*
X1535500Y971630D01*
X1687500Y971630D02*
X1711500Y971630D01*
X248500Y970630D02*
X275500Y970630D01*
X821500Y970630D02*
X903500Y970630D01*
X1252500Y970630D02*
X1281500Y970630D01*
X1351500Y970630D02*
X1375500Y970630D01*
X1452500Y970630D02*
X1476500Y970630D01*
X1512500Y970630D02*
X1535500Y970630D01*
X1687500Y970630D02*
X1710500Y970630D01*
X249500Y969630D02*
X276500Y969630D01*
X824500Y969630D02*
X907500Y969630D01*
X1251500Y969630D02*
X1280500Y969630D01*
X1351500Y969630D02*
X1375500Y969630D01*
X1452500Y969630D02*
X1476500Y969630D01*
X1512500Y969630D02*
X1535500Y969630D01*
X1686500Y969630D02*
X1710500Y969630D01*
X250500Y968630D02*
X276500Y968630D01*
X828500Y968630D02*
X910500Y968630D01*
X1250500Y968630D02*
X1279500Y968630D01*
X1351500Y968630D02*
X1374500Y968630D01*
X1451500Y968630D02*
X1476500Y968630D01*
X1512500Y968630D02*
X1535500Y968630D01*
X1686500Y968630D02*
X1710500Y968630D01*
X250500Y967630D02*
X277500Y967630D01*
X831500Y967630D02*
X914500Y967630D01*
X1248500Y967630D02*
X1279500Y967630D01*
X1350500Y967630D02*
X1374500Y967630D01*
X1451500Y967630D02*
X1475500Y967630D01*
X1512500Y967630D02*
X1535500Y967630D01*
X1686500Y967630D02*
X1710500Y967630D01*
X251500Y966630D02*
X277500Y966630D01*
X834500Y966630D02*
X918500Y966630D01*
X1247500Y966630D02*
X1278500Y966630D01*
X1350500Y966630D02*
X1374500Y966630D01*
X1451500Y966630D02*
X1475500Y966630D01*
X1512500Y966630D02*
X1535500Y966630D01*
X1686500Y966630D02*
X1709500Y966630D01*
X251500Y965630D02*
X278500Y965630D01*
X837500Y965630D02*
X921500Y965630D01*
X1246500Y965630D02*
X1277500Y965630D01*
X1350500Y965630D02*
X1374500Y965630D01*
X1450500Y965630D02*
X1475500Y965630D01*
X1512500Y965630D02*
X1535500Y965630D01*
X1685500Y965630D02*
X1709500Y965630D01*
X252500Y964630D02*
X279500Y964630D01*
X841500Y964630D02*
X925500Y964630D01*
X1245500Y964630D02*
X1277500Y964630D01*
X1349500Y964630D02*
X1373500Y964630D01*
X1450500Y964630D02*
X1474500Y964630D01*
X1512500Y964630D02*
X1535500Y964630D01*
X1685500Y964630D02*
X1709500Y964630D01*
X252500Y963630D02*
X279500Y963630D01*
X844500Y963630D02*
X929500Y963630D01*
X1244500Y963630D02*
X1276500Y963630D01*
X1349500Y963630D02*
X1373500Y963630D01*
X1450500Y963630D02*
X1474500Y963630D01*
X1512500Y963630D02*
X1535500Y963630D01*
X1685500Y963630D02*
X1709500Y963630D01*
X253500Y962630D02*
X280500Y962630D01*
X847500Y962630D02*
X932500Y962630D01*
X1243500Y962630D02*
X1275500Y962630D01*
X1348500Y962630D02*
X1373500Y962630D01*
X1449500Y962630D02*
X1474500Y962630D01*
X1512500Y962630D02*
X1535500Y962630D01*
X1685500Y962630D02*
X1708500Y962630D01*
X253500Y961630D02*
X280500Y961630D01*
X850500Y961630D02*
X936500Y961630D01*
X1241500Y961630D02*
X1274500Y961630D01*
X1348500Y961630D02*
X1372500Y961630D01*
X1449500Y961630D02*
X1473500Y961630D01*
X1512500Y961630D02*
X1535500Y961630D01*
X1685500Y961630D02*
X1708500Y961630D01*
X254500Y960630D02*
X281500Y960630D01*
X854500Y960630D02*
X940500Y960630D01*
X1240500Y960630D02*
X1273500Y960630D01*
X1348500Y960630D02*
X1372500Y960630D01*
X1448500Y960630D02*
X1473500Y960630D01*
X1512500Y960630D02*
X1535500Y960630D01*
X1684500Y960630D02*
X1708500Y960630D01*
X255500Y959630D02*
X282500Y959630D01*
X857500Y959630D02*
X944500Y959630D01*
X1239500Y959630D02*
X1273500Y959630D01*
X1347500Y959630D02*
X1372500Y959630D01*
X1448500Y959630D02*
X1473500Y959630D01*
X1512500Y959630D02*
X1535500Y959630D01*
X1684500Y959630D02*
X1708500Y959630D01*
X255500Y958630D02*
X282500Y958630D01*
X860500Y958630D02*
X948500Y958630D01*
X1237500Y958630D02*
X1272500Y958630D01*
X1347500Y958630D02*
X1372500Y958630D01*
X1448500Y958630D02*
X1472500Y958630D01*
X1512500Y958630D02*
X1535500Y958630D01*
X1684500Y958630D02*
X1708500Y958630D01*
X256500Y957630D02*
X283500Y957630D01*
X863500Y957630D02*
X952500Y957630D01*
X1236500Y957630D02*
X1271500Y957630D01*
X1347500Y957630D02*
X1371500Y957630D01*
X1447500Y957630D02*
X1472500Y957630D01*
X1512500Y957630D02*
X1535500Y957630D01*
X1684500Y957630D02*
X1707500Y957630D01*
X256500Y956630D02*
X283500Y956630D01*
X867500Y956630D02*
X956500Y956630D01*
X1234500Y956630D02*
X1270500Y956630D01*
X1346500Y956630D02*
X1371500Y956630D01*
X1447500Y956630D02*
X1472500Y956630D01*
X1512500Y956630D02*
X1535500Y956630D01*
X1684500Y956630D02*
X1707500Y956630D01*
X257500Y955630D02*
X284500Y955630D01*
X870500Y955630D02*
X960500Y955630D01*
X1233500Y955630D02*
X1269500Y955630D01*
X1346500Y955630D02*
X1370500Y955630D01*
X1447500Y955630D02*
X1471500Y955630D01*
X1512500Y955630D02*
X1535500Y955630D01*
X1684500Y955630D02*
X1707500Y955630D01*
X258500Y954630D02*
X285500Y954630D01*
X873500Y954630D02*
X964500Y954630D01*
X1231500Y954630D02*
X1268500Y954630D01*
X1346500Y954630D02*
X1370500Y954630D01*
X1446500Y954630D02*
X1471500Y954630D01*
X1512500Y954630D02*
X1535500Y954630D01*
X1684500Y954630D02*
X1707500Y954630D01*
X258500Y953630D02*
X285500Y953630D01*
X877500Y953630D02*
X968500Y953630D01*
X1229500Y953630D02*
X1267500Y953630D01*
X1345500Y953630D02*
X1370500Y953630D01*
X1446500Y953630D02*
X1470500Y953630D01*
X1512500Y953630D02*
X1535500Y953630D01*
X1683500Y953630D02*
X1707500Y953630D01*
X259500Y952630D02*
X286500Y952630D01*
X880500Y952630D02*
X973500Y952630D01*
X1228500Y952630D02*
X1266500Y952630D01*
X1345500Y952630D02*
X1369500Y952630D01*
X1446500Y952630D02*
X1470500Y952630D01*
X1512500Y952630D02*
X1535500Y952630D01*
X1683500Y952630D02*
X1706500Y952630D01*
X259500Y951630D02*
X287500Y951630D01*
X884500Y951630D02*
X977500Y951630D01*
X1226500Y951630D02*
X1265500Y951630D01*
X1345500Y951630D02*
X1369500Y951630D01*
X1445500Y951630D02*
X1470500Y951630D01*
X1512500Y951630D02*
X1535500Y951630D01*
X1683500Y951630D02*
X1706500Y951630D01*
X260500Y950630D02*
X287500Y950630D01*
X887500Y950630D02*
X982500Y950630D01*
X1224500Y950630D02*
X1264500Y950630D01*
X1344500Y950630D02*
X1369500Y950630D01*
X1445500Y950630D02*
X1469500Y950630D01*
X1512500Y950630D02*
X1535500Y950630D01*
X1683500Y950630D02*
X1706500Y950630D01*
X261500Y949630D02*
X288500Y949630D01*
X890500Y949630D02*
X986500Y949630D01*
X1222500Y949630D02*
X1263500Y949630D01*
X1344500Y949630D02*
X1369500Y949630D01*
X1444500Y949630D02*
X1469500Y949630D01*
X1512500Y949630D02*
X1535500Y949630D01*
X1683500Y949630D02*
X1706500Y949630D01*
X261500Y948630D02*
X289500Y948630D01*
X894500Y948630D02*
X991500Y948630D01*
X1220500Y948630D02*
X1262500Y948630D01*
X1343500Y948630D02*
X1368500Y948630D01*
X1444500Y948630D02*
X1469500Y948630D01*
X1512500Y948630D02*
X1535500Y948630D01*
X1683500Y948630D02*
X1706500Y948630D01*
X262500Y947630D02*
X289500Y947630D01*
X897500Y947630D02*
X995500Y947630D01*
X1217500Y947630D02*
X1261500Y947630D01*
X1343500Y947630D02*
X1368500Y947630D01*
X1444500Y947630D02*
X1468500Y947630D01*
X1512500Y947630D02*
X1535500Y947630D01*
X1683500Y947630D02*
X1706500Y947630D01*
X263500Y946630D02*
X290500Y946630D01*
X901500Y946630D02*
X1000500Y946630D01*
X1215500Y946630D02*
X1260500Y946630D01*
X1342500Y946630D02*
X1367500Y946630D01*
X1443500Y946630D02*
X1468500Y946630D01*
X1512500Y946630D02*
X1535500Y946630D01*
X1683500Y946630D02*
X1706500Y946630D01*
X263500Y945630D02*
X291500Y945630D01*
X904500Y945630D02*
X1005500Y945630D01*
X1212500Y945630D02*
X1259500Y945630D01*
X1342500Y945630D02*
X1367500Y945630D01*
X1443500Y945630D02*
X1467500Y945630D01*
X1512500Y945630D02*
X1535500Y945630D01*
X1683500Y945630D02*
X1705500Y945630D01*
X264500Y944630D02*
X292500Y944630D01*
X908500Y944630D02*
X1011500Y944630D01*
X1210500Y944630D02*
X1257500Y944630D01*
X1341500Y944630D02*
X1367500Y944630D01*
X1442500Y944630D02*
X1467500Y944630D01*
X1512500Y944630D02*
X1535500Y944630D01*
X1682500Y944630D02*
X1705500Y944630D01*
X264500Y943630D02*
X292500Y943630D01*
X912500Y943630D02*
X1016500Y943630D01*
X1207500Y943630D02*
X1256500Y943630D01*
X1341500Y943630D02*
X1366500Y943630D01*
X1442500Y943630D02*
X1467500Y943630D01*
X1512500Y943630D02*
X1535500Y943630D01*
X1682500Y943630D02*
X1705500Y943630D01*
X265500Y942630D02*
X293500Y942630D01*
X916500Y942630D02*
X1021500Y942630D01*
X1204500Y942630D02*
X1255500Y942630D01*
X1340500Y942630D02*
X1366500Y942630D01*
X1442500Y942630D02*
X1466500Y942630D01*
X1512500Y942630D02*
X1535500Y942630D01*
X1682500Y942630D02*
X1705500Y942630D01*
X266500Y941630D02*
X294500Y941630D01*
X919500Y941630D02*
X1027500Y941630D01*
X1201500Y941630D02*
X1254500Y941630D01*
X1340500Y941630D02*
X1365500Y941630D01*
X1441500Y941630D02*
X1466500Y941630D01*
X1512500Y941630D02*
X1535500Y941630D01*
X1682500Y941630D02*
X1705500Y941630D01*
X266500Y940630D02*
X294500Y940630D01*
X923500Y940630D02*
X1033500Y940630D01*
X1197500Y940630D02*
X1252500Y940630D01*
X1339500Y940630D02*
X1365500Y940630D01*
X1441500Y940630D02*
X1466500Y940630D01*
X1512500Y940630D02*
X1535500Y940630D01*
X1682500Y940630D02*
X1705500Y940630D01*
X267500Y939630D02*
X295500Y939630D01*
X927500Y939630D02*
X1039500Y939630D01*
X1194500Y939630D02*
X1251500Y939630D01*
X1338500Y939630D02*
X1364500Y939630D01*
X1440500Y939630D02*
X1465500Y939630D01*
X1512500Y939630D02*
X1535500Y939630D01*
X1682500Y939630D02*
X1705500Y939630D01*
X268500Y938630D02*
X296500Y938630D01*
X930500Y938630D02*
X1046500Y938630D01*
X1190500Y938630D02*
X1249500Y938630D01*
X1338500Y938630D02*
X1364500Y938630D01*
X1440500Y938630D02*
X1465500Y938630D01*
X1512500Y938630D02*
X1535500Y938630D01*
X1682500Y938630D02*
X1705500Y938630D01*
X268500Y937630D02*
X297500Y937630D01*
X934500Y937630D02*
X1053500Y937630D01*
X1185500Y937630D02*
X1248500Y937630D01*
X1337500Y937630D02*
X1364500Y937630D01*
X1440500Y937630D02*
X1464500Y937630D01*
X1512500Y937630D02*
X1535500Y937630D01*
X1682500Y937630D02*
X1705500Y937630D01*
X269500Y936630D02*
X297500Y936630D01*
X938500Y936630D02*
X1061500Y936630D01*
X1180500Y936630D02*
X1246500Y936630D01*
X1337500Y936630D02*
X1363500Y936630D01*
X1439500Y936630D02*
X1464500Y936630D01*
X1512500Y936630D02*
X1535500Y936630D01*
X1682500Y936630D02*
X1705500Y936630D01*
X270500Y935630D02*
X298500Y935630D01*
X942500Y935630D02*
X1069500Y935630D01*
X1174500Y935630D02*
X1245500Y935630D01*
X1336500Y935630D02*
X1363500Y935630D01*
X1439500Y935630D02*
X1464500Y935630D01*
X1513500Y935630D02*
X1536500Y935630D01*
X1682500Y935630D02*
X1705500Y935630D01*
X270500Y934630D02*
X299500Y934630D01*
X946500Y934630D02*
X1078500Y934630D01*
X1167500Y934630D02*
X1243500Y934630D01*
X1335500Y934630D02*
X1362500Y934630D01*
X1438500Y934630D02*
X1463500Y934630D01*
X1513500Y934630D02*
X1536500Y934630D01*
X1682500Y934630D02*
X1705500Y934630D01*
X271500Y933630D02*
X299500Y933630D01*
X950500Y933630D02*
X1090500Y933630D01*
X1158500Y933630D02*
X1242500Y933630D01*
X1334500Y933630D02*
X1361500Y933630D01*
X1438500Y933630D02*
X1463500Y933630D01*
X1513500Y933630D02*
X1536500Y933630D01*
X1682500Y933630D02*
X1705500Y933630D01*
X272500Y932630D02*
X300500Y932630D01*
X954500Y932630D02*
X1107500Y932630D01*
X1144500Y932630D02*
X1240500Y932630D01*
X1334500Y932630D02*
X1361500Y932630D01*
X1438500Y932630D02*
X1462500Y932630D01*
X1513500Y932630D02*
X1536500Y932630D01*
X1682500Y932630D02*
X1705500Y932630D01*
X272500Y931630D02*
X301500Y931630D01*
X958500Y931630D02*
X1238500Y931630D01*
X1333500Y931630D02*
X1360500Y931630D01*
X1437500Y931630D02*
X1462500Y931630D01*
X1513500Y931630D02*
X1536500Y931630D01*
X1682500Y931630D02*
X1705500Y931630D01*
X273500Y930630D02*
X302500Y930630D01*
X962500Y930630D02*
X1236500Y930630D01*
X1332500Y930630D02*
X1360500Y930630D01*
X1437500Y930630D02*
X1462500Y930630D01*
X1513500Y930630D02*
X1536500Y930630D01*
X1682500Y930630D02*
X1705500Y930630D01*
X274500Y929630D02*
X303500Y929630D01*
X967500Y929630D02*
X1234500Y929630D01*
X1331500Y929630D02*
X1359500Y929630D01*
X1436500Y929630D02*
X1461500Y929630D01*
X1513500Y929630D02*
X1536500Y929630D01*
X1682500Y929630D02*
X1705500Y929630D01*
X275500Y928630D02*
X303500Y928630D01*
X971500Y928630D02*
X1232500Y928630D01*
X1330500Y928630D02*
X1359500Y928630D01*
X1436500Y928630D02*
X1461500Y928630D01*
X1513500Y928630D02*
X1536500Y928630D01*
X1682500Y928630D02*
X1705500Y928630D01*
X275500Y927630D02*
X304500Y927630D01*
X975500Y927630D02*
X1230500Y927630D01*
X1329500Y927630D02*
X1358500Y927630D01*
X1436500Y927630D02*
X1460500Y927630D01*
X1513500Y927630D02*
X1536500Y927630D01*
X1682500Y927630D02*
X1705500Y927630D01*
X276500Y926630D02*
X305500Y926630D01*
X980500Y926630D02*
X1228500Y926630D01*
X1329500Y926630D02*
X1357500Y926630D01*
X1435500Y926630D02*
X1460500Y926630D01*
X1513500Y926630D02*
X1536500Y926630D01*
X1682500Y926630D02*
X1705500Y926630D01*
X277500Y925630D02*
X306500Y925630D01*
X985500Y925630D02*
X1226500Y925630D01*
X1328500Y925630D02*
X1357500Y925630D01*
X1435500Y925630D02*
X1460500Y925630D01*
X1513500Y925630D02*
X1537500Y925630D01*
X1682500Y925630D02*
X1705500Y925630D01*
X278500Y924630D02*
X307500Y924630D01*
X989500Y924630D02*
X1223500Y924630D01*
X1327500Y924630D02*
X1356500Y924630D01*
X1434500Y924630D02*
X1459500Y924630D01*
X1513500Y924630D02*
X1537500Y924630D01*
X1682500Y924630D02*
X1705500Y924630D01*
X278500Y923630D02*
X307500Y923630D01*
X994500Y923630D02*
X1221500Y923630D01*
X1326500Y923630D02*
X1355500Y923630D01*
X1434500Y923630D02*
X1459500Y923630D01*
X1514500Y923630D02*
X1537500Y923630D01*
X1682500Y923630D02*
X1705500Y923630D01*
X279500Y922630D02*
X308500Y922630D01*
X999500Y922630D02*
X1218500Y922630D01*
X1325500Y922630D02*
X1355500Y922630D01*
X1433500Y922630D02*
X1458500Y922630D01*
X1514500Y922630D02*
X1537500Y922630D01*
X1682500Y922630D02*
X1705500Y922630D01*
X280500Y921630D02*
X309500Y921630D01*
X1004500Y921630D02*
X1216500Y921630D01*
X1324500Y921630D02*
X1354500Y921630D01*
X1433500Y921630D02*
X1458500Y921630D01*
X1514500Y921630D02*
X1537500Y921630D01*
X1683500Y921630D02*
X1705500Y921630D01*
X280500Y920630D02*
X310500Y920630D01*
X1009500Y920630D02*
X1213500Y920630D01*
X1323500Y920630D02*
X1353500Y920630D01*
X1433500Y920630D02*
X1458500Y920630D01*
X1514500Y920630D02*
X1537500Y920630D01*
X1683500Y920630D02*
X1705500Y920630D01*
X281500Y919630D02*
X311500Y919630D01*
X1015500Y919630D02*
X1210500Y919630D01*
X1322500Y919630D02*
X1352500Y919630D01*
X1432500Y919630D02*
X1457500Y919630D01*
X1514500Y919630D02*
X1537500Y919630D01*
X1683500Y919630D02*
X1705500Y919630D01*
X282500Y918630D02*
X311500Y918630D01*
X1020500Y918630D02*
X1206500Y918630D01*
X1321500Y918630D02*
X1352500Y918630D01*
X1432500Y918630D02*
X1457500Y918630D01*
X1514500Y918630D02*
X1537500Y918630D01*
X1683500Y918630D02*
X1706500Y918630D01*
X283500Y917630D02*
X312500Y917630D01*
X1026500Y917630D02*
X1203500Y917630D01*
X1319500Y917630D02*
X1351500Y917630D01*
X1431500Y917630D02*
X1456500Y917630D01*
X1514500Y917630D02*
X1538500Y917630D01*
X1683500Y917630D02*
X1706500Y917630D01*
X284500Y916630D02*
X313500Y916630D01*
X1032500Y916630D02*
X1199500Y916630D01*
X1318500Y916630D02*
X1350500Y916630D01*
X1431500Y916630D02*
X1456500Y916630D01*
X1514500Y916630D02*
X1538500Y916630D01*
X1683500Y916630D02*
X1706500Y916630D01*
X284500Y915630D02*
X314500Y915630D01*
X1039500Y915630D02*
X1195500Y915630D01*
X1317500Y915630D02*
X1349500Y915630D01*
X1430500Y915630D02*
X1456500Y915630D01*
X1515500Y915630D02*
X1538500Y915630D01*
X1683500Y915630D02*
X1706500Y915630D01*
X285500Y914630D02*
X315500Y914630D01*
X1045500Y914630D02*
X1191500Y914630D01*
X1316500Y914630D02*
X1349500Y914630D01*
X1430500Y914630D02*
X1455500Y914630D01*
X1515500Y914630D02*
X1538500Y914630D01*
X1683500Y914630D02*
X1706500Y914630D01*
X286500Y913630D02*
X316500Y913630D01*
X1052500Y913630D02*
X1186500Y913630D01*
X1315500Y913630D02*
X1348500Y913630D01*
X1430500Y913630D02*
X1455500Y913630D01*
X1515500Y913630D02*
X1538500Y913630D01*
X1683500Y913630D02*
X1706500Y913630D01*
X287500Y912630D02*
X317500Y912630D01*
X1060500Y912630D02*
X1181500Y912630D01*
X1313500Y912630D02*
X1347500Y912630D01*
X1429500Y912630D02*
X1454500Y912630D01*
X1515500Y912630D02*
X1538500Y912630D01*
X1684500Y912630D02*
X1706500Y912630D01*
X287500Y911630D02*
X317500Y911630D01*
X1069500Y911630D02*
X1175500Y911630D01*
X1312500Y911630D02*
X1346500Y911630D01*
X1429500Y911630D02*
X1454500Y911630D01*
X1515500Y911630D02*
X1538500Y911630D01*
X1684500Y911630D02*
X1707500Y911630D01*
X288500Y910630D02*
X318500Y910630D01*
X1079500Y910630D02*
X1167500Y910630D01*
X1311500Y910630D02*
X1345500Y910630D01*
X1428500Y910630D02*
X1453500Y910630D01*
X1515500Y910630D02*
X1539500Y910630D01*
X1684500Y910630D02*
X1707500Y910630D01*
X289500Y909630D02*
X319500Y909630D01*
X1091500Y909630D02*
X1158500Y909630D01*
X1309500Y909630D02*
X1344500Y909630D01*
X1428500Y909630D02*
X1453500Y909630D01*
X1516500Y909630D02*
X1539500Y909630D01*
X1684500Y909630D02*
X1707500Y909630D01*
X290500Y908630D02*
X320500Y908630D01*
X1108500Y908630D02*
X1144500Y908630D01*
X1308500Y908630D02*
X1343500Y908630D01*
X1427500Y908630D02*
X1453500Y908630D01*
X1516500Y908630D02*
X1539500Y908630D01*
X1684500Y908630D02*
X1707500Y908630D01*
X291500Y907630D02*
X321500Y907630D01*
X1307500Y907630D02*
X1342500Y907630D01*
X1427500Y907630D02*
X1452500Y907630D01*
X1516500Y907630D02*
X1539500Y907630D01*
X1684500Y907630D02*
X1707500Y907630D01*
X291500Y906630D02*
X322500Y906630D01*
X1305500Y906630D02*
X1341500Y906630D01*
X1426500Y906630D02*
X1452500Y906630D01*
X1516500Y906630D02*
X1539500Y906630D01*
X1684500Y906630D02*
X1708500Y906630D01*
X292500Y905630D02*
X323500Y905630D01*
X1304500Y905630D02*
X1340500Y905630D01*
X1426500Y905630D02*
X1451500Y905630D01*
X1516500Y905630D02*
X1540500Y905630D01*
X1685500Y905630D02*
X1708500Y905630D01*
X293500Y904630D02*
X324500Y904630D01*
X1302500Y904630D02*
X1339500Y904630D01*
X1425500Y904630D02*
X1451500Y904630D01*
X1516500Y904630D02*
X1540500Y904630D01*
X1685500Y904630D02*
X1708500Y904630D01*
X294500Y903630D02*
X325500Y903630D01*
X1300500Y903630D02*
X1338500Y903630D01*
X1425500Y903630D02*
X1450500Y903630D01*
X1517500Y903630D02*
X1540500Y903630D01*
X1685500Y903630D02*
X1708500Y903630D01*
X295500Y902630D02*
X326500Y902630D01*
X1299500Y902630D02*
X1337500Y902630D01*
X1425500Y902630D02*
X1450500Y902630D01*
X1517500Y902630D02*
X1540500Y902630D01*
X1685500Y902630D02*
X1709500Y902630D01*
X296500Y901630D02*
X327500Y901630D01*
X1297500Y901630D02*
X1336500Y901630D01*
X1424500Y901630D02*
X1449500Y901630D01*
X1517500Y901630D02*
X1540500Y901630D01*
X1685500Y901630D02*
X1709500Y901630D01*
X297500Y900630D02*
X328500Y900630D01*
X1295500Y900630D02*
X1335500Y900630D01*
X1424500Y900630D02*
X1449500Y900630D01*
X1517500Y900630D02*
X1541500Y900630D01*
X1686500Y900630D02*
X1709500Y900630D01*
X297500Y899630D02*
X329500Y899630D01*
X1294500Y899630D02*
X1334500Y899630D01*
X1423500Y899630D02*
X1449500Y899630D01*
X1517500Y899630D02*
X1541500Y899630D01*
X1686500Y899630D02*
X1710500Y899630D01*
X298500Y898630D02*
X330500Y898630D01*
X1292500Y898630D02*
X1333500Y898630D01*
X1423500Y898630D02*
X1448500Y898630D01*
X1518500Y898630D02*
X1541500Y898630D01*
X1686500Y898630D02*
X1710500Y898630D01*
X299500Y897630D02*
X331500Y897630D01*
X1290500Y897630D02*
X1332500Y897630D01*
X1422500Y897630D02*
X1448500Y897630D01*
X1518500Y897630D02*
X1541500Y897630D01*
X1686500Y897630D02*
X1710500Y897630D01*
X300500Y896630D02*
X332500Y896630D01*
X1288500Y896630D02*
X1331500Y896630D01*
X1422500Y896630D02*
X1447500Y896630D01*
X1518500Y896630D02*
X1541500Y896630D01*
X1687500Y896630D02*
X1710500Y896630D01*
X301500Y895630D02*
X333500Y895630D01*
X1286500Y895630D02*
X1329500Y895630D01*
X1421500Y895630D02*
X1447500Y895630D01*
X1518500Y895630D02*
X1542500Y895630D01*
X1687500Y895630D02*
X1711500Y895630D01*
X302500Y894630D02*
X333500Y894630D01*
X1284500Y894630D02*
X1328500Y894630D01*
X1421500Y894630D02*
X1446500Y894630D01*
X1518500Y894630D02*
X1542500Y894630D01*
X1687500Y894630D02*
X1711500Y894630D01*
X303500Y893630D02*
X334500Y893630D01*
X1282500Y893630D02*
X1327500Y893630D01*
X1420500Y893630D02*
X1446500Y893630D01*
X1519500Y893630D02*
X1542500Y893630D01*
X1687500Y893630D02*
X1711500Y893630D01*
X304500Y892630D02*
X335500Y892630D01*
X1280500Y892630D02*
X1326500Y892630D01*
X1420500Y892630D02*
X1445500Y892630D01*
X1519500Y892630D02*
X1542500Y892630D01*
X1688500Y892630D02*
X1712500Y892630D01*
X305500Y891630D02*
X336500Y891630D01*
X1278500Y891630D02*
X1324500Y891630D01*
X1419500Y891630D02*
X1445500Y891630D01*
X1519500Y891630D02*
X1543500Y891630D01*
X1688500Y891630D02*
X1712500Y891630D01*
X305500Y890630D02*
X338500Y890630D01*
X1276500Y890630D02*
X1323500Y890630D01*
X1419500Y890630D02*
X1444500Y890630D01*
X1519500Y890630D02*
X1543500Y890630D01*
X1688500Y890630D02*
X1713500Y890630D01*
X306500Y889630D02*
X339500Y889630D01*
X1273500Y889630D02*
X1322500Y889630D01*
X1418500Y889630D02*
X1444500Y889630D01*
X1520500Y889630D02*
X1543500Y889630D01*
X1689500Y889630D02*
X1713500Y889630D01*
X307500Y888630D02*
X340500Y888630D01*
X1271500Y888630D02*
X1320500Y888630D01*
X1418500Y888630D02*
X1444500Y888630D01*
X1520500Y888630D02*
X1543500Y888630D01*
X1689500Y888630D02*
X1713500Y888630D01*
X308500Y887630D02*
X341500Y887630D01*
X1269500Y887630D02*
X1319500Y887630D01*
X1417500Y887630D02*
X1443500Y887630D01*
X1520500Y887630D02*
X1544500Y887630D01*
X1689500Y887630D02*
X1714500Y887630D01*
X309500Y886630D02*
X342500Y886630D01*
X1266500Y886630D02*
X1317500Y886630D01*
X1417500Y886630D02*
X1443500Y886630D01*
X1520500Y886630D02*
X1544500Y886630D01*
X1690500Y886630D02*
X1714500Y886630D01*
X310500Y885630D02*
X343500Y885630D01*
X1264500Y885630D02*
X1316500Y885630D01*
X1416500Y885630D02*
X1442500Y885630D01*
X1520500Y885630D02*
X1544500Y885630D01*
X1690500Y885630D02*
X1714500Y885630D01*
X311500Y884630D02*
X344500Y884630D01*
X1261500Y884630D02*
X1314500Y884630D01*
X1416500Y884630D02*
X1442500Y884630D01*
X1521500Y884630D02*
X1545500Y884630D01*
X1690500Y884630D02*
X1715500Y884630D01*
X312500Y883630D02*
X345500Y883630D01*
X1258500Y883630D02*
X1313500Y883630D01*
X1415500Y883630D02*
X1441500Y883630D01*
X1521500Y883630D02*
X1545500Y883630D01*
X1691500Y883630D02*
X1715500Y883630D01*
X313500Y882630D02*
X346500Y882630D01*
X1255500Y882630D02*
X1311500Y882630D01*
X1415500Y882630D02*
X1441500Y882630D01*
X1521500Y882630D02*
X1545500Y882630D01*
X1691500Y882630D02*
X1716500Y882630D01*
X314500Y881630D02*
X347500Y881630D01*
X1252500Y881630D02*
X1309500Y881630D01*
X1414500Y881630D02*
X1440500Y881630D01*
X1522500Y881630D02*
X1545500Y881630D01*
X1691500Y881630D02*
X1716500Y881630D01*
X315500Y880630D02*
X348500Y880630D01*
X1249500Y880630D02*
X1308500Y880630D01*
X1414500Y880630D02*
X1440500Y880630D01*
X1522500Y880630D02*
X1546500Y880630D01*
X1692500Y880630D02*
X1717500Y880630D01*
X316500Y879630D02*
X349500Y879630D01*
X1246500Y879630D02*
X1306500Y879630D01*
X1413500Y879630D02*
X1439500Y879630D01*
X1522500Y879630D02*
X1546500Y879630D01*
X1692500Y879630D02*
X1717500Y879630D01*
X317500Y878630D02*
X351500Y878630D01*
X1243500Y878630D02*
X1304500Y878630D01*
X1413500Y878630D02*
X1439500Y878630D01*
X1522500Y878630D02*
X1546500Y878630D01*
X1692500Y878630D02*
X1718500Y878630D01*
X318500Y877630D02*
X352500Y877630D01*
X1239500Y877630D02*
X1302500Y877630D01*
X1412500Y877630D02*
X1438500Y877630D01*
X1523500Y877630D02*
X1547500Y877630D01*
X1693500Y877630D02*
X1718500Y877630D01*
X319500Y876630D02*
X353500Y876630D01*
X1235500Y876630D02*
X1301500Y876630D01*
X1412500Y876630D02*
X1438500Y876630D01*
X1523500Y876630D02*
X1547500Y876630D01*
X1693500Y876630D02*
X1718500Y876630D01*
X320500Y875630D02*
X354500Y875630D01*
X1232500Y875630D02*
X1299500Y875630D01*
X1411500Y875630D02*
X1437500Y875630D01*
X1523500Y875630D02*
X1547500Y875630D01*
X1694500Y875630D02*
X1719500Y875630D01*
X321500Y874630D02*
X355500Y874630D01*
X1228500Y874630D02*
X1297500Y874630D01*
X1411500Y874630D02*
X1437500Y874630D01*
X1524500Y874630D02*
X1548500Y874630D01*
X1694500Y874630D02*
X1719500Y874630D01*
X322500Y873630D02*
X356500Y873630D01*
X1224500Y873630D02*
X1295500Y873630D01*
X1410500Y873630D02*
X1436500Y873630D01*
X1524500Y873630D02*
X1548500Y873630D01*
X1695500Y873630D02*
X1720500Y873630D01*
X323500Y872630D02*
X358500Y872630D01*
X1219500Y872630D02*
X1293500Y872630D01*
X1410500Y872630D02*
X1436500Y872630D01*
X1524500Y872630D02*
X1548500Y872630D01*
X1695500Y872630D02*
X1720500Y872630D01*
X324500Y871630D02*
X359500Y871630D01*
X1215500Y871630D02*
X1291500Y871630D01*
X1409500Y871630D02*
X1435500Y871630D01*
X1525500Y871630D02*
X1549500Y871630D01*
X1695500Y871630D02*
X1721500Y871630D01*
X325500Y870630D02*
X360500Y870630D01*
X1210500Y870630D02*
X1289500Y870630D01*
X1409500Y870630D02*
X1435500Y870630D01*
X1525500Y870630D02*
X1549500Y870630D01*
X1696500Y870630D02*
X1721500Y870630D01*
X326500Y869630D02*
X361500Y869630D01*
X1205500Y869630D02*
X1286500Y869630D01*
X1408500Y869630D02*
X1434500Y869630D01*
X1525500Y869630D02*
X1549500Y869630D01*
X1696500Y869630D02*
X1721500Y869630D01*
X327500Y868630D02*
X363500Y868630D01*
X1199500Y868630D02*
X1284500Y868630D01*
X1408500Y868630D02*
X1434500Y868630D01*
X1526500Y868630D02*
X1550500Y868630D01*
X1697500Y868630D02*
X1722500Y868630D01*
X328500Y867630D02*
X364500Y867630D01*
X1193500Y867630D02*
X1282500Y867630D01*
X1407500Y867630D02*
X1433500Y867630D01*
X1526500Y867630D02*
X1550500Y867630D01*
X1697500Y867630D02*
X1722500Y867630D01*
X329500Y866630D02*
X365500Y866630D01*
X1185500Y866630D02*
X1280500Y866630D01*
X1406500Y866630D02*
X1433500Y866630D01*
X1526500Y866630D02*
X1551500Y866630D01*
X1698500Y866630D02*
X1723500Y866630D01*
X331500Y865630D02*
X366500Y865630D01*
X1178500Y865630D02*
X1277500Y865630D01*
X1406500Y865630D02*
X1432500Y865630D01*
X1527500Y865630D02*
X1551500Y865630D01*
X1698500Y865630D02*
X1723500Y865630D01*
X332500Y864630D02*
X368500Y864630D01*
X1168500Y864630D02*
X1275500Y864630D01*
X1405500Y864630D02*
X1432500Y864630D01*
X1527500Y864630D02*
X1551500Y864630D01*
X1699500Y864630D02*
X1723500Y864630D01*
X333500Y863630D02*
X369500Y863630D01*
X1106500Y863630D02*
X1117500Y863630D01*
X1156500Y863630D02*
X1272500Y863630D01*
X1405500Y863630D02*
X1431500Y863630D01*
X1527500Y863630D02*
X1552500Y863630D01*
X1699500Y863630D02*
X1724500Y863630D01*
X334500Y862630D02*
X370500Y862630D01*
X1104500Y862630D02*
X1269500Y862630D01*
X1404500Y862630D02*
X1431500Y862630D01*
X1528500Y862630D02*
X1552500Y862630D01*
X1699500Y862630D02*
X1724500Y862630D01*
X335500Y861630D02*
X371500Y861630D01*
X1103500Y861630D02*
X1267500Y861630D01*
X1404500Y861630D02*
X1430500Y861630D01*
X1528500Y861630D02*
X1552500Y861630D01*
X1700500Y861630D02*
X1724500Y861630D01*
X336500Y860630D02*
X373500Y860630D01*
X1102500Y860630D02*
X1264500Y860630D01*
X1403500Y860630D02*
X1429500Y860630D01*
X1528500Y860630D02*
X1553500Y860630D01*
X1700500Y860630D02*
X1725500Y860630D01*
X337500Y859630D02*
X374500Y859630D01*
X1101500Y859630D02*
X1261500Y859630D01*
X1403500Y859630D02*
X1429500Y859630D01*
X1529500Y859630D02*
X1553500Y859630D01*
X1701500Y859630D02*
X1725500Y859630D01*
X338500Y858630D02*
X376500Y858630D01*
X1100500Y858630D02*
X1258500Y858630D01*
X1402500Y858630D02*
X1428500Y858630D01*
X1529500Y858630D02*
X1554500Y858630D01*
X1701500Y858630D02*
X1725500Y858630D01*
X340500Y857630D02*
X377500Y857630D01*
X1100500Y857630D02*
X1255500Y857630D01*
X1401500Y857630D02*
X1428500Y857630D01*
X1530500Y857630D02*
X1554500Y857630D01*
X1701500Y857630D02*
X1726500Y857630D01*
X341500Y856630D02*
X378500Y856630D01*
X1100500Y856630D02*
X1252500Y856630D01*
X1401500Y856630D02*
X1427500Y856630D01*
X1530500Y856630D02*
X1555500Y856630D01*
X1702500Y856630D02*
X1726500Y856630D01*
X342500Y855630D02*
X380500Y855630D01*
X1099500Y855630D02*
X1248500Y855630D01*
X1400500Y855630D02*
X1427500Y855630D01*
X1530500Y855630D02*
X1555500Y855630D01*
X1702500Y855630D02*
X1726500Y855630D01*
X343500Y854630D02*
X381500Y854630D01*
X1099500Y854630D02*
X1245500Y854630D01*
X1400500Y854630D02*
X1426500Y854630D01*
X1531500Y854630D02*
X1555500Y854630D01*
X1702500Y854630D02*
X1727500Y854630D01*
X344500Y853630D02*
X382500Y853630D01*
X1099500Y853630D02*
X1241500Y853630D01*
X1399500Y853630D02*
X1426500Y853630D01*
X1531500Y853630D02*
X1556500Y853630D01*
X1703500Y853630D02*
X1727500Y853630D01*
X346500Y852630D02*
X384500Y852630D01*
X1099500Y852630D02*
X1238500Y852630D01*
X1399500Y852630D02*
X1425500Y852630D01*
X1532500Y852630D02*
X1556500Y852630D01*
X1703500Y852630D02*
X1727500Y852630D01*
X347500Y851630D02*
X385500Y851630D01*
X1099500Y851630D02*
X1234500Y851630D01*
X1398500Y851630D02*
X1425500Y851630D01*
X1532500Y851630D02*
X1557500Y851630D01*
X1703500Y851630D02*
X1728500Y851630D01*
X348500Y850630D02*
X387500Y850630D01*
X1099500Y850630D02*
X1230500Y850630D01*
X1397500Y850630D02*
X1424500Y850630D01*
X1532500Y850630D02*
X1557500Y850630D01*
X1704500Y850630D02*
X1728500Y850630D01*
X349500Y849630D02*
X388500Y849630D01*
X1099500Y849630D02*
X1225500Y849630D01*
X1397500Y849630D02*
X1423500Y849630D01*
X1533500Y849630D02*
X1558500Y849630D01*
X1704500Y849630D02*
X1728500Y849630D01*
X351500Y848630D02*
X390500Y848630D01*
X1099500Y848630D02*
X1221500Y848630D01*
X1396500Y848630D02*
X1423500Y848630D01*
X1533500Y848630D02*
X1558500Y848630D01*
X1704500Y848630D02*
X1728500Y848630D01*
X352500Y847630D02*
X391500Y847630D01*
X1100500Y847630D02*
X1216500Y847630D01*
X1396500Y847630D02*
X1422500Y847630D01*
X1534500Y847630D02*
X1559500Y847630D01*
X1705500Y847630D02*
X1729500Y847630D01*
X353500Y846630D02*
X393500Y846630D01*
X1100500Y846630D02*
X1211500Y846630D01*
X1395500Y846630D02*
X1422500Y846630D01*
X1534500Y846630D02*
X1559500Y846630D01*
X1705500Y846630D02*
X1729500Y846630D01*
X354500Y845630D02*
X394500Y845630D01*
X1101500Y845630D02*
X1206500Y845630D01*
X1394500Y845630D02*
X1421500Y845630D01*
X1535500Y845630D02*
X1560500Y845630D01*
X1705500Y845630D02*
X1729500Y845630D01*
X356500Y844630D02*
X396500Y844630D01*
X1102500Y844630D02*
X1200500Y844630D01*
X1394500Y844630D02*
X1421500Y844630D01*
X1535500Y844630D02*
X1560500Y844630D01*
X1706500Y844630D02*
X1730500Y844630D01*
X357500Y843630D02*
X397500Y843630D01*
X1103500Y843630D02*
X1193500Y843630D01*
X1393500Y843630D02*
X1420500Y843630D01*
X1535500Y843630D02*
X1561500Y843630D01*
X1706500Y843630D02*
X1730500Y843630D01*
X358500Y842630D02*
X399500Y842630D01*
X1104500Y842630D02*
X1186500Y842630D01*
X1393500Y842630D02*
X1419500Y842630D01*
X1536500Y842630D02*
X1561500Y842630D01*
X1706500Y842630D02*
X1730500Y842630D01*
X360500Y841630D02*
X401500Y841630D01*
X1106500Y841630D02*
X1178500Y841630D01*
X1392500Y841630D02*
X1419500Y841630D01*
X1536500Y841630D02*
X1562500Y841630D01*
X1706500Y841630D02*
X1730500Y841630D01*
X361500Y840630D02*
X402500Y840630D01*
X1110500Y840630D02*
X1168500Y840630D01*
X1391500Y840630D02*
X1418500Y840630D01*
X1537500Y840630D02*
X1562500Y840630D01*
X1707500Y840630D02*
X1731500Y840630D01*
X362500Y839630D02*
X404500Y839630D01*
X1117500Y839630D02*
X1156500Y839630D01*
X1391500Y839630D02*
X1418500Y839630D01*
X1537500Y839630D02*
X1563500Y839630D01*
X1707500Y839630D02*
X1731500Y839630D01*
X364500Y838630D02*
X406500Y838630D01*
X1390500Y838630D02*
X1417500Y838630D01*
X1538500Y838630D02*
X1563500Y838630D01*
X1707500Y838630D02*
X1731500Y838630D01*
X365500Y837630D02*
X407500Y837630D01*
X1389500Y837630D02*
X1417500Y837630D01*
X1538500Y837630D02*
X1564500Y837630D01*
X1708500Y837630D02*
X1731500Y837630D01*
X366500Y836630D02*
X409500Y836630D01*
X1389500Y836630D02*
X1416500Y836630D01*
X1539500Y836630D02*
X1565500Y836630D01*
X1708500Y836630D02*
X1732500Y836630D01*
X368500Y835630D02*
X410500Y835630D01*
X1388500Y835630D02*
X1415500Y835630D01*
X1539500Y835630D02*
X1565500Y835630D01*
X1708500Y835630D02*
X1732500Y835630D01*
X369500Y834630D02*
X412500Y834630D01*
X1388500Y834630D02*
X1415500Y834630D01*
X1540500Y834630D02*
X1566500Y834630D01*
X1708500Y834630D02*
X1732500Y834630D01*
X370500Y833630D02*
X414500Y833630D01*
X1387500Y833630D02*
X1414500Y833630D01*
X1540500Y833630D02*
X1566500Y833630D01*
X1709500Y833630D02*
X1732500Y833630D01*
X372500Y832630D02*
X416500Y832630D01*
X1386500Y832630D02*
X1414500Y832630D01*
X1541500Y832630D02*
X1567500Y832630D01*
X1709500Y832630D02*
X1732500Y832630D01*
X373500Y831630D02*
X418500Y831630D01*
X1386500Y831630D02*
X1413500Y831630D01*
X1541500Y831630D02*
X1568500Y831630D01*
X1709500Y831630D02*
X1733500Y831630D01*
X375500Y830630D02*
X419500Y830630D01*
X1385500Y830630D02*
X1412500Y830630D01*
X1542500Y830630D02*
X1568500Y830630D01*
X1709500Y830630D02*
X1733500Y830630D01*
X376500Y829630D02*
X421500Y829630D01*
X1384500Y829630D02*
X1412500Y829630D01*
X1543500Y829630D02*
X1569500Y829630D01*
X1710500Y829630D02*
X1733500Y829630D01*
X378500Y828630D02*
X423500Y828630D01*
X1384500Y828630D02*
X1411500Y828630D01*
X1543500Y828630D02*
X1569500Y828630D01*
X1710500Y828630D02*
X1733500Y828630D01*
X379500Y827630D02*
X425500Y827630D01*
X1383500Y827630D02*
X1410500Y827630D01*
X1544500Y827630D02*
X1570500Y827630D01*
X1710500Y827630D02*
X1733500Y827630D01*
X381500Y826630D02*
X427500Y826630D01*
X1382500Y826630D02*
X1410500Y826630D01*
X1544500Y826630D02*
X1571500Y826630D01*
X1710500Y826630D02*
X1733500Y826630D01*
X382500Y825630D02*
X428500Y825630D01*
X1382500Y825630D02*
X1409500Y825630D01*
X1545500Y825630D02*
X1571500Y825630D01*
X1710500Y825630D02*
X1734500Y825630D01*
X384500Y824630D02*
X430500Y824630D01*
X1381500Y824630D02*
X1409500Y824630D01*
X1545500Y824630D02*
X1572500Y824630D01*
X1711500Y824630D02*
X1734500Y824630D01*
X385500Y823630D02*
X432500Y823630D01*
X1380500Y823630D02*
X1408500Y823630D01*
X1546500Y823630D02*
X1573500Y823630D01*
X1711500Y823630D02*
X1734500Y823630D01*
X387500Y822630D02*
X434500Y822630D01*
X1380500Y822630D02*
X1407500Y822630D01*
X1546500Y822630D02*
X1573500Y822630D01*
X1711500Y822630D02*
X1734500Y822630D01*
X388500Y821630D02*
X436500Y821630D01*
X1379500Y821630D02*
X1407500Y821630D01*
X1547500Y821630D02*
X1574500Y821630D01*
X1711500Y821630D02*
X1734500Y821630D01*
X390500Y820630D02*
X438500Y820630D01*
X1378500Y820630D02*
X1406500Y820630D01*
X1548500Y820630D02*
X1575500Y820630D01*
X1711500Y820630D02*
X1734500Y820630D01*
X392500Y819630D02*
X440500Y819630D01*
X1378500Y819630D02*
X1405500Y819630D01*
X1548500Y819630D02*
X1575500Y819630D01*
X1711500Y819630D02*
X1735500Y819630D01*
X393500Y818630D02*
X442500Y818630D01*
X1377500Y818630D02*
X1405500Y818630D01*
X1549500Y818630D02*
X1576500Y818630D01*
X1712500Y818630D02*
X1735500Y818630D01*
X395500Y817630D02*
X444500Y817630D01*
X1376500Y817630D02*
X1404500Y817630D01*
X1549500Y817630D02*
X1577500Y817630D01*
X1712500Y817630D02*
X1735500Y817630D01*
X397500Y816630D02*
X447500Y816630D01*
X1376500Y816630D02*
X1403500Y816630D01*
X1550500Y816630D02*
X1578500Y816630D01*
X1712500Y816630D02*
X1735500Y816630D01*
X398500Y815630D02*
X449500Y815630D01*
X1375500Y815630D02*
X1403500Y815630D01*
X1551500Y815630D02*
X1578500Y815630D01*
X1712500Y815630D02*
X1735500Y815630D01*
X400500Y814630D02*
X451500Y814630D01*
X1374500Y814630D02*
X1402500Y814630D01*
X1551500Y814630D02*
X1579500Y814630D01*
X1712500Y814630D02*
X1735500Y814630D01*
X402500Y813630D02*
X453500Y813630D01*
X1373500Y813630D02*
X1401500Y813630D01*
X1552500Y813630D02*
X1580500Y813630D01*
X1712500Y813630D02*
X1735500Y813630D01*
X403500Y812630D02*
X455500Y812630D01*
X1373500Y812630D02*
X1401500Y812630D01*
X1553500Y812630D02*
X1581500Y812630D01*
X1712500Y812630D02*
X1735500Y812630D01*
X405500Y811630D02*
X457500Y811630D01*
X1372500Y811630D02*
X1400500Y811630D01*
X1553500Y811630D02*
X1581500Y811630D01*
X1712500Y811630D02*
X1735500Y811630D01*
X407500Y810630D02*
X460500Y810630D01*
X1371500Y810630D02*
X1399500Y810630D01*
X1554500Y810630D02*
X1582500Y810630D01*
X1712500Y810630D02*
X1736500Y810630D01*
X409500Y809630D02*
X462500Y809630D01*
X1371500Y809630D02*
X1399500Y809630D01*
X1555500Y809630D02*
X1583500Y809630D01*
X1713500Y809630D02*
X1736500Y809630D01*
X411500Y808630D02*
X465500Y808630D01*
X1370500Y808630D02*
X1398500Y808630D01*
X1555500Y808630D02*
X1584500Y808630D01*
X1713500Y808630D02*
X1736500Y808630D01*
X412500Y807630D02*
X467500Y807630D01*
X1369500Y807630D02*
X1397500Y807630D01*
X1556500Y807630D02*
X1585500Y807630D01*
X1713500Y807630D02*
X1736500Y807630D01*
X414500Y806630D02*
X469500Y806630D01*
X1368500Y806630D02*
X1397500Y806630D01*
X1557500Y806630D02*
X1585500Y806630D01*
X1713500Y806630D02*
X1736500Y806630D01*
X416500Y805630D02*
X472500Y805630D01*
X1368500Y805630D02*
X1396500Y805630D01*
X1557500Y805630D02*
X1586500Y805630D01*
X1713500Y805630D02*
X1736500Y805630D01*
X418500Y804630D02*
X474500Y804630D01*
X1367500Y804630D02*
X1395500Y804630D01*
X1558500Y804630D02*
X1587500Y804630D01*
X1713500Y804630D02*
X1736500Y804630D01*
X420500Y803630D02*
X477500Y803630D01*
X1366500Y803630D02*
X1395500Y803630D01*
X1559500Y803630D02*
X1588500Y803630D01*
X1713500Y803630D02*
X1736500Y803630D01*
X422500Y802630D02*
X479500Y802630D01*
X1365500Y802630D02*
X1394500Y802630D01*
X1560500Y802630D02*
X1589500Y802630D01*
X1713500Y802630D02*
X1736500Y802630D01*
X424500Y801630D02*
X482500Y801630D01*
X1364500Y801630D02*
X1393500Y801630D01*
X1560500Y801630D02*
X1590500Y801630D01*
X1713500Y801630D02*
X1736500Y801630D01*
X426500Y800630D02*
X485500Y800630D01*
X1364500Y800630D02*
X1392500Y800630D01*
X1561500Y800630D02*
X1591500Y800630D01*
X1713500Y800630D02*
X1736500Y800630D01*
X428500Y799630D02*
X488500Y799630D01*
X1363500Y799630D02*
X1392500Y799630D01*
X1562500Y799630D02*
X1591500Y799630D01*
X1713500Y799630D02*
X1736500Y799630D01*
X430500Y798630D02*
X490500Y798630D01*
X1362500Y798630D02*
X1391500Y798630D01*
X1562500Y798630D02*
X1592500Y798630D01*
X1713500Y798630D02*
X1736500Y798630D01*
X432500Y797630D02*
X493500Y797630D01*
X1361500Y797630D02*
X1390500Y797630D01*
X1563500Y797630D02*
X1593500Y797630D01*
X1713500Y797630D02*
X1736500Y797630D01*
X434500Y796630D02*
X496500Y796630D01*
X1361500Y796630D02*
X1389500Y796630D01*
X1564500Y796630D02*
X1594500Y796630D01*
X1713500Y796630D02*
X1736500Y796630D01*
X436500Y795630D02*
X499500Y795630D01*
X1360500Y795630D02*
X1389500Y795630D01*
X1565500Y795630D02*
X1595500Y795630D01*
X1713500Y795630D02*
X1736500Y795630D01*
X438500Y794630D02*
X502500Y794630D01*
X1359500Y794630D02*
X1388500Y794630D01*
X1566500Y794630D02*
X1596500Y794630D01*
X1713500Y794630D02*
X1736500Y794630D01*
X440500Y793630D02*
X505500Y793630D01*
X1358500Y793630D02*
X1387500Y793630D01*
X1566500Y793630D02*
X1597500Y793630D01*
X1713500Y793630D02*
X1736500Y793630D01*
X442500Y792630D02*
X508500Y792630D01*
X1358500Y792630D02*
X1387500Y792630D01*
X1567500Y792630D02*
X1598500Y792630D01*
X1713500Y792630D02*
X1736500Y792630D01*
X445500Y791630D02*
X511500Y791630D01*
X1357500Y791630D02*
X1386500Y791630D01*
X1568500Y791630D02*
X1599500Y791630D01*
X1713500Y791630D02*
X1736500Y791630D01*
X447500Y790630D02*
X514500Y790630D01*
X1356500Y790630D02*
X1385500Y790630D01*
X1569500Y790630D02*
X1600500Y790630D01*
X1713500Y790630D02*
X1736500Y790630D01*
X449500Y789630D02*
X518500Y789630D01*
X1355500Y789630D02*
X1384500Y789630D01*
X1570500Y789630D02*
X1601500Y789630D01*
X1713500Y789630D02*
X1736500Y789630D01*
X451500Y788630D02*
X521500Y788630D01*
X1354500Y788630D02*
X1383500Y788630D01*
X1570500Y788630D02*
X1602500Y788630D01*
X1713500Y788630D02*
X1736500Y788630D01*
X454500Y787630D02*
X525500Y787630D01*
X1353500Y787630D02*
X1383500Y787630D01*
X1571500Y787630D02*
X1603500Y787630D01*
X1713500Y787630D02*
X1736500Y787630D01*
X456500Y786630D02*
X528500Y786630D01*
X1352500Y786630D02*
X1382500Y786630D01*
X1572500Y786630D02*
X1604500Y786630D01*
X1713500Y786630D02*
X1736500Y786630D01*
X459500Y785630D02*
X532500Y785630D01*
X1352500Y785630D02*
X1381500Y785630D01*
X1573500Y785630D02*
X1605500Y785630D01*
X1713500Y785630D02*
X1736500Y785630D01*
X461500Y784630D02*
X535500Y784630D01*
X1351500Y784630D02*
X1380500Y784630D01*
X1519500Y784630D02*
X1544500Y784630D01*
X1574500Y784630D02*
X1606500Y784630D01*
X1713500Y784630D02*
X1736500Y784630D01*
X463500Y783630D02*
X539500Y783630D01*
X1350500Y783630D02*
X1380500Y783630D01*
X1506500Y783630D02*
X1558500Y783630D01*
X1575500Y783630D02*
X1607500Y783630D01*
X1713500Y783630D02*
X1736500Y783630D01*
X466500Y782630D02*
X543500Y782630D01*
X1349500Y782630D02*
X1379500Y782630D01*
X1498500Y782630D02*
X1569500Y782630D01*
X1576500Y782630D02*
X1608500Y782630D01*
X1713500Y782630D02*
X1736500Y782630D01*
X468500Y781630D02*
X547500Y781630D01*
X1348500Y781630D02*
X1378500Y781630D01*
X1492500Y781630D02*
X1609500Y781630D01*
X1712500Y781630D02*
X1736500Y781630D01*
X471500Y780630D02*
X551500Y780630D01*
X1347500Y780630D02*
X1377500Y780630D01*
X1486500Y780630D02*
X1610500Y780630D01*
X1712500Y780630D02*
X1735500Y780630D01*
X474500Y779630D02*
X556500Y779630D01*
X1347500Y779630D02*
X1376500Y779630D01*
X1482500Y779630D02*
X1612500Y779630D01*
X1712500Y779630D02*
X1735500Y779630D01*
X476500Y778630D02*
X560500Y778630D01*
X1346500Y778630D02*
X1376500Y778630D01*
X1478500Y778630D02*
X1613500Y778630D01*
X1712500Y778630D02*
X1735500Y778630D01*
X479500Y777630D02*
X565500Y777630D01*
X1345500Y777630D02*
X1375500Y777630D01*
X1474500Y777630D02*
X1614500Y777630D01*
X1712500Y777630D02*
X1735500Y777630D01*
X482500Y776630D02*
X569500Y776630D01*
X1344500Y776630D02*
X1374500Y776630D01*
X1471500Y776630D02*
X1615500Y776630D01*
X1712500Y776630D02*
X1735500Y776630D01*
X484500Y775630D02*
X574500Y775630D01*
X1343500Y775630D02*
X1373500Y775630D01*
X1468500Y775630D02*
X1616500Y775630D01*
X1712500Y775630D02*
X1735500Y775630D01*
X487500Y774630D02*
X579500Y774630D01*
X1342500Y774630D02*
X1372500Y774630D01*
X1465500Y774630D02*
X1617500Y774630D01*
X1712500Y774630D02*
X1735500Y774630D01*
X490500Y773630D02*
X585500Y773630D01*
X1341500Y773630D02*
X1371500Y773630D01*
X1462500Y773630D02*
X1619500Y773630D01*
X1711500Y773630D02*
X1734500Y773630D01*
X493500Y772630D02*
X590500Y772630D01*
X1340500Y772630D02*
X1371500Y772630D01*
X1460500Y772630D02*
X1620500Y772630D01*
X1711500Y772630D02*
X1734500Y772630D01*
X496500Y771630D02*
X596500Y771630D01*
X1339500Y771630D02*
X1370500Y771630D01*
X1457500Y771630D02*
X1621500Y771630D01*
X1711500Y771630D02*
X1734500Y771630D01*
X499500Y770630D02*
X602500Y770630D01*
X1338500Y770630D02*
X1369500Y770630D01*
X1455500Y770630D02*
X1622500Y770630D01*
X1711500Y770630D02*
X1734500Y770630D01*
X502500Y769630D02*
X609500Y769630D01*
X1337500Y769630D02*
X1368500Y769630D01*
X1453500Y769630D02*
X1623500Y769630D01*
X1711500Y769630D02*
X1734500Y769630D01*
X505500Y768630D02*
X616500Y768630D01*
X1336500Y768630D02*
X1367500Y768630D01*
X1451500Y768630D02*
X1623500Y768630D01*
X1710500Y768630D02*
X1734500Y768630D01*
X509500Y767630D02*
X623500Y767630D01*
X1335500Y767630D02*
X1366500Y767630D01*
X1449500Y767630D02*
X1624500Y767630D01*
X1710500Y767630D02*
X1733500Y767630D01*
X512500Y766630D02*
X631500Y766630D01*
X1335500Y766630D02*
X1366500Y766630D01*
X1447500Y766630D02*
X1624500Y766630D01*
X1710500Y766630D02*
X1733500Y766630D01*
X516500Y765630D02*
X640500Y765630D01*
X1333500Y765630D02*
X1365500Y765630D01*
X1446500Y765630D02*
X1625500Y765630D01*
X1710500Y765630D02*
X1733500Y765630D01*
X519500Y764630D02*
X650500Y764630D01*
X1332500Y764630D02*
X1364500Y764630D01*
X1444500Y764630D02*
X1625500Y764630D01*
X1709500Y764630D02*
X1733500Y764630D01*
X522500Y763630D02*
X661500Y763630D01*
X1331500Y763630D02*
X1363500Y763630D01*
X1442500Y763630D02*
X1625500Y763630D01*
X1709500Y763630D02*
X1733500Y763630D01*
X526500Y762630D02*
X673500Y762630D01*
X1330500Y762630D02*
X1362500Y762630D01*
X1441500Y762630D02*
X1625500Y762630D01*
X1709500Y762630D02*
X1732500Y762630D01*
X530500Y761630D02*
X690500Y761630D01*
X798500Y761630D02*
X813500Y761630D01*
X1329500Y761630D02*
X1361500Y761630D01*
X1440500Y761630D02*
X1625500Y761630D01*
X1709500Y761630D02*
X1732500Y761630D01*
X534500Y760630D02*
X716500Y760630D01*
X770500Y760630D02*
X815500Y760630D01*
X1328500Y760630D02*
X1360500Y760630D01*
X1438500Y760630D02*
X1518500Y760630D01*
X1545500Y760630D02*
X1625500Y760630D01*
X1708500Y760630D02*
X1732500Y760630D01*
X538500Y759630D02*
X817500Y759630D01*
X1327500Y759630D02*
X1359500Y759630D01*
X1437500Y759630D02*
X1506500Y759630D01*
X1558500Y759630D02*
X1625500Y759630D01*
X1708500Y759630D02*
X1732500Y759630D01*
X541500Y758630D02*
X819500Y758630D01*
X1326500Y758630D02*
X1358500Y758630D01*
X1435500Y758630D02*
X1498500Y758630D01*
X1569500Y758630D02*
X1624500Y758630D01*
X1708500Y758630D02*
X1731500Y758630D01*
X545500Y757630D02*
X821500Y757630D01*
X1325500Y757630D02*
X1357500Y757630D01*
X1434500Y757630D02*
X1492500Y757630D01*
X1576500Y757630D02*
X1624500Y757630D01*
X1707500Y757630D02*
X1731500Y757630D01*
X550500Y756630D02*
X823500Y756630D01*
X1324500Y756630D02*
X1356500Y756630D01*
X1433500Y756630D02*
X1487500Y756630D01*
X1583500Y756630D02*
X1623500Y756630D01*
X1707500Y756630D02*
X1731500Y756630D01*
X554500Y755630D02*
X824500Y755630D01*
X1323500Y755630D02*
X1356500Y755630D01*
X1432500Y755630D02*
X1483500Y755630D01*
X1589500Y755630D02*
X1623500Y755630D01*
X1707500Y755630D02*
X1731500Y755630D01*
X559500Y754630D02*
X826500Y754630D01*
X1322500Y754630D02*
X1355500Y754630D01*
X1431500Y754630D02*
X1479500Y754630D01*
X1595500Y754630D02*
X1622500Y754630D01*
X1706500Y754630D02*
X1730500Y754630D01*
X563500Y753630D02*
X828500Y753630D01*
X1321500Y753630D02*
X1354500Y753630D01*
X1430500Y753630D02*
X1476500Y753630D01*
X1600500Y753630D02*
X1621500Y753630D01*
X1706500Y753630D02*
X1730500Y753630D01*
X568500Y752630D02*
X830500Y752630D01*
X1320500Y752630D02*
X1353500Y752630D01*
X1428500Y752630D02*
X1473500Y752630D01*
X1604500Y752630D02*
X1619500Y752630D01*
X1705500Y752630D02*
X1730500Y752630D01*
X573500Y751630D02*
X832500Y751630D01*
X1319500Y751630D02*
X1352500Y751630D01*
X1427500Y751630D02*
X1471500Y751630D01*
X1609500Y751630D02*
X1617500Y751630D01*
X1705500Y751630D02*
X1729500Y751630D01*
X578500Y750630D02*
X834500Y750630D01*
X1318500Y750630D02*
X1351500Y750630D01*
X1427500Y750630D02*
X1468500Y750630D01*
X1705500Y750630D02*
X1729500Y750630D01*
X584500Y749630D02*
X836500Y749630D01*
X1317500Y749630D02*
X1350500Y749630D01*
X1426500Y749630D02*
X1466500Y749630D01*
X1704500Y749630D02*
X1729500Y749630D01*
X589500Y748630D02*
X838500Y748630D01*
X1316500Y748630D02*
X1349500Y748630D01*
X1425500Y748630D02*
X1464500Y748630D01*
X1704500Y748630D02*
X1728500Y748630D01*
X595500Y747630D02*
X840500Y747630D01*
X1314500Y747630D02*
X1348500Y747630D01*
X1424500Y747630D02*
X1462500Y747630D01*
X1703500Y747630D02*
X1728500Y747630D01*
X602500Y746630D02*
X842500Y746630D01*
X1313500Y746630D02*
X1347500Y746630D01*
X1423500Y746630D02*
X1460500Y746630D01*
X1703500Y746630D02*
X1728500Y746630D01*
X608500Y745630D02*
X844500Y745630D01*
X1312500Y745630D02*
X1346500Y745630D01*
X1422500Y745630D02*
X1458500Y745630D01*
X1702500Y745630D02*
X1727500Y745630D01*
X615500Y744630D02*
X846500Y744630D01*
X1311500Y744630D02*
X1345500Y744630D01*
X1421500Y744630D02*
X1456500Y744630D01*
X1702500Y744630D02*
X1727500Y744630D01*
X623500Y743630D02*
X848500Y743630D01*
X1310500Y743630D02*
X1344500Y743630D01*
X1420500Y743630D02*
X1455500Y743630D01*
X1701500Y743630D02*
X1726500Y743630D01*
X631500Y742630D02*
X850500Y742630D01*
X1309500Y742630D02*
X1343500Y742630D01*
X1420500Y742630D02*
X1453500Y742630D01*
X1701500Y742630D02*
X1726500Y742630D01*
X639500Y741630D02*
X852500Y741630D01*
X1307500Y741630D02*
X1342500Y741630D01*
X1419500Y741630D02*
X1452500Y741630D01*
X1700500Y741630D02*
X1726500Y741630D01*
X650500Y740630D02*
X854500Y740630D01*
X1306500Y740630D02*
X1341500Y740630D01*
X1418500Y740630D02*
X1450500Y740630D01*
X1700500Y740630D02*
X1725500Y740630D01*
X661500Y739630D02*
X856500Y739630D01*
X1305500Y739630D02*
X1340500Y739630D01*
X1417500Y739630D02*
X1449500Y739630D01*
X1699500Y739630D02*
X1725500Y739630D01*
X674500Y738630D02*
X858500Y738630D01*
X1304500Y738630D02*
X1339500Y738630D01*
X1417500Y738630D02*
X1448500Y738630D01*
X1698500Y738630D02*
X1724500Y738630D01*
X691500Y737630D02*
X798500Y737630D01*
X808500Y737630D02*
X860500Y737630D01*
X1302500Y737630D02*
X1338500Y737630D01*
X1416500Y737630D02*
X1447500Y737630D01*
X1698500Y737630D02*
X1724500Y737630D01*
X718500Y736630D02*
X768500Y736630D01*
X810500Y736630D02*
X862500Y736630D01*
X1301500Y736630D02*
X1337500Y736630D01*
X1415500Y736630D02*
X1445500Y736630D01*
X1697500Y736630D02*
X1723500Y736630D01*
X812500Y735630D02*
X864500Y735630D01*
X1300500Y735630D02*
X1335500Y735630D01*
X1415500Y735630D02*
X1444500Y735630D01*
X1697500Y735630D02*
X1723500Y735630D01*
X814500Y734630D02*
X866500Y734630D01*
X1299500Y734630D02*
X1334500Y734630D01*
X1414500Y734630D02*
X1443500Y734630D01*
X1696500Y734630D02*
X1722500Y734630D01*
X816500Y733630D02*
X868500Y733630D01*
X1297500Y733630D02*
X1333500Y733630D01*
X1414500Y733630D02*
X1442500Y733630D01*
X1695500Y733630D02*
X1722500Y733630D01*
X818500Y732630D02*
X870500Y732630D01*
X1296500Y732630D02*
X1332500Y732630D01*
X1413500Y732630D02*
X1441500Y732630D01*
X1694500Y732630D02*
X1721500Y732630D01*
X819500Y731630D02*
X873500Y731630D01*
X1295500Y731630D02*
X1331500Y731630D01*
X1413500Y731630D02*
X1441500Y731630D01*
X1694500Y731630D02*
X1721500Y731630D01*
X821500Y730630D02*
X875500Y730630D01*
X1293500Y730630D02*
X1330500Y730630D01*
X1412500Y730630D02*
X1440500Y730630D01*
X1693500Y730630D02*
X1720500Y730630D01*
X823500Y729630D02*
X877500Y729630D01*
X1292500Y729630D02*
X1329500Y729630D01*
X1412500Y729630D02*
X1439500Y729630D01*
X1692500Y729630D02*
X1720500Y729630D01*
X825500Y728630D02*
X879500Y728630D01*
X1291500Y728630D02*
X1328500Y728630D01*
X1411500Y728630D02*
X1438500Y728630D01*
X1692500Y728630D02*
X1719500Y728630D01*
X827500Y727630D02*
X881500Y727630D01*
X1289500Y727630D02*
X1326500Y727630D01*
X1411500Y727630D02*
X1437500Y727630D01*
X1691500Y727630D02*
X1719500Y727630D01*
X829500Y726630D02*
X884500Y726630D01*
X1288500Y726630D02*
X1325500Y726630D01*
X1410500Y726630D02*
X1437500Y726630D01*
X1690500Y726630D02*
X1718500Y726630D01*
X831500Y725630D02*
X886500Y725630D01*
X1286500Y725630D02*
X1324500Y725630D01*
X1410500Y725630D02*
X1436500Y725630D01*
X1689500Y725630D02*
X1717500Y725630D01*
X833500Y724630D02*
X888500Y724630D01*
X1285500Y724630D02*
X1323500Y724630D01*
X1409500Y724630D02*
X1435500Y724630D01*
X1688500Y724630D02*
X1717500Y724630D01*
X835500Y723630D02*
X890500Y723630D01*
X1284500Y723630D02*
X1322500Y723630D01*
X1409500Y723630D02*
X1435500Y723630D01*
X1687500Y723630D02*
X1716500Y723630D01*
X837500Y722630D02*
X893500Y722630D01*
X1282500Y722630D02*
X1320500Y722630D01*
X1408500Y722630D02*
X1434500Y722630D01*
X1686500Y722630D02*
X1716500Y722630D01*
X839500Y721630D02*
X895500Y721630D01*
X1281500Y721630D02*
X1319500Y721630D01*
X1408500Y721630D02*
X1434500Y721630D01*
X1686500Y721630D02*
X1715500Y721630D01*
X841500Y720630D02*
X897500Y720630D01*
X1279500Y720630D02*
X1318500Y720630D01*
X1408500Y720630D02*
X1433500Y720630D01*
X1685500Y720630D02*
X1714500Y720630D01*
X843500Y719630D02*
X900500Y719630D01*
X1277500Y719630D02*
X1317500Y719630D01*
X1407500Y719630D02*
X1432500Y719630D01*
X1684500Y719630D02*
X1714500Y719630D01*
X845500Y718630D02*
X902500Y718630D01*
X1276500Y718630D02*
X1315500Y718630D01*
X1407500Y718630D02*
X1432500Y718630D01*
X1683500Y718630D02*
X1713500Y718630D01*
X847500Y717630D02*
X904500Y717630D01*
X1274500Y717630D02*
X1314500Y717630D01*
X1407500Y717630D02*
X1431500Y717630D01*
X1682500Y717630D02*
X1712500Y717630D01*
X849500Y716630D02*
X907500Y716630D01*
X1273500Y716630D02*
X1313500Y716630D01*
X1406500Y716630D02*
X1431500Y716630D01*
X1681500Y716630D02*
X1711500Y716630D01*
X851500Y715630D02*
X909500Y715630D01*
X1271500Y715630D02*
X1312500Y715630D01*
X1406500Y715630D02*
X1430500Y715630D01*
X1680500Y715630D02*
X1711500Y715630D01*
X853500Y714630D02*
X912500Y714630D01*
X1270500Y714630D02*
X1310500Y714630D01*
X1406500Y714630D02*
X1430500Y714630D01*
X1679500Y714630D02*
X1710500Y714630D01*
X855500Y713630D02*
X914500Y713630D01*
X1268500Y713630D02*
X1309500Y713630D01*
X1405500Y713630D02*
X1430500Y713630D01*
X1677500Y713630D02*
X1709500Y713630D01*
X858500Y712630D02*
X917500Y712630D01*
X1266500Y712630D02*
X1308500Y712630D01*
X1405500Y712630D02*
X1429500Y712630D01*
X1676500Y712630D02*
X1708500Y712630D01*
X860500Y711630D02*
X919500Y711630D01*
X1265500Y711630D02*
X1307500Y711630D01*
X1405500Y711630D02*
X1429500Y711630D01*
X1675500Y711630D02*
X1708500Y711630D01*
X862500Y710630D02*
X922500Y710630D01*
X1263500Y710630D02*
X1305500Y710630D01*
X1405500Y710630D02*
X1428500Y710630D01*
X1674500Y710630D02*
X1707500Y710630D01*
X864500Y709630D02*
X924500Y709630D01*
X1261500Y709630D02*
X1304500Y709630D01*
X1404500Y709630D02*
X1428500Y709630D01*
X1673500Y709630D02*
X1706500Y709630D01*
X866500Y708630D02*
X927500Y708630D01*
X1259500Y708630D02*
X1302500Y708630D01*
X1404500Y708630D02*
X1428500Y708630D01*
X1671500Y708630D02*
X1705500Y708630D01*
X868500Y707630D02*
X929500Y707630D01*
X1257500Y707630D02*
X1301500Y707630D01*
X1404500Y707630D02*
X1428500Y707630D01*
X1670500Y707630D02*
X1704500Y707630D01*
X871500Y706630D02*
X932500Y706630D01*
X1256500Y706630D02*
X1300500Y706630D01*
X1404500Y706630D02*
X1427500Y706630D01*
X1669500Y706630D02*
X1703500Y706630D01*
X873500Y705630D02*
X935500Y705630D01*
X1254500Y705630D02*
X1298500Y705630D01*
X1403500Y705630D02*
X1427500Y705630D01*
X1667500Y705630D02*
X1702500Y705630D01*
X875500Y704630D02*
X938500Y704630D01*
X1252500Y704630D02*
X1297500Y704630D01*
X1403500Y704630D02*
X1427500Y704630D01*
X1666500Y704630D02*
X1701500Y704630D01*
X877500Y703630D02*
X940500Y703630D01*
X1250500Y703630D02*
X1295500Y703630D01*
X1403500Y703630D02*
X1426500Y703630D01*
X1664500Y703630D02*
X1700500Y703630D01*
X879500Y702630D02*
X943500Y702630D01*
X1248500Y702630D02*
X1294500Y702630D01*
X1403500Y702630D02*
X1426500Y702630D01*
X1663500Y702630D02*
X1699500Y702630D01*
X882500Y701630D02*
X946500Y701630D01*
X1246500Y701630D02*
X1292500Y701630D01*
X1403500Y701630D02*
X1426500Y701630D01*
X1661500Y701630D02*
X1698500Y701630D01*
X884500Y700630D02*
X949500Y700630D01*
X1244500Y700630D02*
X1291500Y700630D01*
X1403500Y700630D02*
X1426500Y700630D01*
X1660500Y700630D02*
X1697500Y700630D01*
X886500Y699630D02*
X952500Y699630D01*
X1241500Y699630D02*
X1289500Y699630D01*
X1402500Y699630D02*
X1426500Y699630D01*
X1658500Y699630D02*
X1696500Y699630D01*
X889500Y698630D02*
X955500Y698630D01*
X1239500Y698630D02*
X1288500Y698630D01*
X1402500Y698630D02*
X1425500Y698630D01*
X1656500Y698630D02*
X1695500Y698630D01*
X891500Y697630D02*
X958500Y697630D01*
X1237500Y697630D02*
X1286500Y697630D01*
X1402500Y697630D02*
X1425500Y697630D01*
X1655500Y697630D02*
X1694500Y697630D01*
X893500Y696630D02*
X961500Y696630D01*
X1235500Y696630D02*
X1285500Y696630D01*
X1402500Y696630D02*
X1425500Y696630D01*
X1653500Y696630D02*
X1693500Y696630D01*
X896500Y695630D02*
X964500Y695630D01*
X1232500Y695630D02*
X1283500Y695630D01*
X1402500Y695630D02*
X1425500Y695630D01*
X1651500Y695630D02*
X1692500Y695630D01*
X898500Y694630D02*
X967500Y694630D01*
X1230500Y694630D02*
X1281500Y694630D01*
X1402500Y694630D02*
X1425500Y694630D01*
X1649500Y694630D02*
X1691500Y694630D01*
X901500Y693630D02*
X971500Y693630D01*
X1228500Y693630D02*
X1280500Y693630D01*
X1402500Y693630D02*
X1425500Y693630D01*
X1647500Y693630D02*
X1690500Y693630D01*
X903500Y692630D02*
X974500Y692630D01*
X1225500Y692630D02*
X1278500Y692630D01*
X1402500Y692630D02*
X1425500Y692630D01*
X1645500Y692630D02*
X1688500Y692630D01*
X906500Y691630D02*
X977500Y691630D01*
X1223500Y691630D02*
X1276500Y691630D01*
X1402500Y691630D02*
X1424500Y691630D01*
X1643500Y691630D02*
X1687500Y691630D01*
X908500Y690630D02*
X981500Y690630D01*
X1220500Y690630D02*
X1275500Y690630D01*
X1402500Y690630D02*
X1424500Y690630D01*
X1641500Y690630D02*
X1686500Y690630D01*
X911500Y689630D02*
X984500Y689630D01*
X1217500Y689630D02*
X1273500Y689630D01*
X1403500Y689630D02*
X1424500Y689630D01*
X1639500Y689630D02*
X1685500Y689630D01*
X913500Y688630D02*
X988500Y688630D01*
X1214500Y688630D02*
X1271500Y688630D01*
X1403500Y688630D02*
X1423500Y688630D01*
X1636500Y688630D02*
X1683500Y688630D01*
X916500Y687630D02*
X992500Y687630D01*
X1211500Y687630D02*
X1269500Y687630D01*
X1404500Y687630D02*
X1423500Y687630D01*
X1633500Y687630D02*
X1682500Y687630D01*
X918500Y686630D02*
X996500Y686630D01*
X1208500Y686630D02*
X1268500Y686630D01*
X1404500Y686630D02*
X1422500Y686630D01*
X1631500Y686630D02*
X1681500Y686630D01*
X921500Y685630D02*
X1000500Y685630D01*
X1205500Y685630D02*
X1266500Y685630D01*
X1405500Y685630D02*
X1421500Y685630D01*
X1628500Y685630D02*
X1679500Y685630D01*
X924500Y684630D02*
X1004500Y684630D01*
X1202500Y684630D02*
X1264500Y684630D01*
X1406500Y684630D02*
X1420500Y684630D01*
X1626500Y684630D02*
X1678500Y684630D01*
X926500Y683630D02*
X1008500Y683630D01*
X1199500Y683630D02*
X1262500Y683630D01*
X1408500Y683630D02*
X1419500Y683630D01*
X1623500Y683630D02*
X1676500Y683630D01*
X929500Y682630D02*
X1012500Y682630D01*
X1195500Y682630D02*
X1260500Y682630D01*
X1410500Y682630D02*
X1417500Y682630D01*
X1620500Y682630D02*
X1675500Y682630D01*
X932500Y681630D02*
X1017500Y681630D01*
X1191500Y681630D02*
X1258500Y681630D01*
X1616500Y681630D02*
X1673500Y681630D01*
X935500Y680630D02*
X1022500Y680630D01*
X1187500Y680630D02*
X1256500Y680630D01*
X1613500Y680630D02*
X1672500Y680630D01*
X937500Y679630D02*
X1027500Y679630D01*
X1183500Y679630D02*
X1254500Y679630D01*
X1610500Y679630D02*
X1670500Y679630D01*
X940500Y678630D02*
X1032500Y678630D01*
X1179500Y678630D02*
X1252500Y678630D01*
X1608500Y678630D02*
X1668500Y678630D01*
X943500Y677630D02*
X1038500Y677630D01*
X1174500Y677630D02*
X1250500Y677630D01*
X1606500Y677630D02*
X1667500Y677630D01*
X946500Y676630D02*
X1044500Y676630D01*
X1169500Y676630D02*
X1248500Y676630D01*
X1605500Y676630D02*
X1665500Y676630D01*
X949500Y675630D02*
X1050500Y675630D01*
X1163500Y675630D02*
X1245500Y675630D01*
X1603500Y675630D02*
X1663500Y675630D01*
X952500Y674630D02*
X1058500Y674630D01*
X1156500Y674630D02*
X1243500Y674630D01*
X1602500Y674630D02*
X1661500Y674630D01*
X955500Y673630D02*
X1067500Y673630D01*
X1149500Y673630D02*
X1241500Y673630D01*
X1600500Y673630D02*
X1659500Y673630D01*
X959500Y672630D02*
X1077500Y672630D01*
X1139500Y672630D02*
X1238500Y672630D01*
X1599500Y672630D02*
X1657500Y672630D01*
X962500Y671630D02*
X1094500Y671630D01*
X1123500Y671630D02*
X1236500Y671630D01*
X1597500Y671630D02*
X1655500Y671630D01*
X965500Y670630D02*
X1234500Y670630D01*
X1596500Y670630D02*
X1653500Y670630D01*
X968500Y669630D02*
X1231500Y669630D01*
X1409500Y669630D02*
X1417500Y669630D01*
X1594500Y669630D02*
X1651500Y669630D01*
X972500Y668630D02*
X1228500Y668630D01*
X1407500Y668630D02*
X1419500Y668630D01*
X1593500Y668630D02*
X1649500Y668630D01*
X975500Y667630D02*
X1226500Y667630D01*
X1406500Y667630D02*
X1420500Y667630D01*
X1591500Y667630D02*
X1647500Y667630D01*
X979500Y666630D02*
X1223500Y666630D01*
X1405500Y666630D02*
X1422500Y666630D01*
X1589500Y666630D02*
X1644500Y666630D01*
X982500Y665630D02*
X1220500Y665630D01*
X1404500Y665630D02*
X1422500Y665630D01*
X1588500Y665630D02*
X1642500Y665630D01*
X986500Y664630D02*
X1217500Y664630D01*
X1403500Y664630D02*
X1423500Y664630D01*
X1586500Y664630D02*
X1640500Y664630D01*
X990500Y663630D02*
X1214500Y663630D01*
X1403500Y663630D02*
X1424500Y663630D01*
X1585500Y663630D02*
X1637500Y663630D01*
X994500Y662630D02*
X1211500Y662630D01*
X1402500Y662630D02*
X1424500Y662630D01*
X1583500Y662630D02*
X1634500Y662630D01*
X998500Y661630D02*
X1208500Y661630D01*
X1402500Y661630D02*
X1424500Y661630D01*
X1581500Y661630D02*
X1632500Y661630D01*
X1002500Y660630D02*
X1204500Y660630D01*
X1402500Y660630D02*
X1425500Y660630D01*
X1580500Y660630D02*
X1629500Y660630D01*
X1006500Y659630D02*
X1201500Y659630D01*
X1402500Y659630D02*
X1425500Y659630D01*
X1578500Y659630D02*
X1626500Y659630D01*
X1011500Y658630D02*
X1197500Y658630D01*
X1402500Y658630D02*
X1425500Y658630D01*
X1576500Y658630D02*
X1623500Y658630D01*
X1015500Y657630D02*
X1193500Y657630D01*
X1402500Y657630D02*
X1425500Y657630D01*
X1574500Y657630D02*
X1619500Y657630D01*
X1020500Y656630D02*
X1189500Y656630D01*
X1402500Y656630D02*
X1425500Y656630D01*
X1572500Y656630D02*
X1617500Y656630D01*
X1025500Y655630D02*
X1185500Y655630D01*
X1402500Y655630D02*
X1425500Y655630D01*
X1571500Y655630D02*
X1616500Y655630D01*
X1031500Y654630D02*
X1180500Y654630D01*
X1402500Y654630D02*
X1426500Y654630D01*
X1569500Y654630D02*
X1614500Y654630D01*
X1037500Y653630D02*
X1175500Y653630D01*
X1402500Y653630D02*
X1426500Y653630D01*
X1567500Y653630D02*
X1613500Y653630D01*
X1043500Y652630D02*
X1169500Y652630D01*
X1403500Y652630D02*
X1426500Y652630D01*
X1565500Y652630D02*
X1611500Y652630D01*
X1050500Y651630D02*
X1163500Y651630D01*
X1403500Y651630D02*
X1426500Y651630D01*
X1563500Y651630D02*
X1610500Y651630D01*
X1057500Y650630D02*
X1156500Y650630D01*
X1403500Y650630D02*
X1427500Y650630D01*
X1562500Y650630D02*
X1608500Y650630D01*
X1067500Y649630D02*
X1148500Y649630D01*
X1403500Y649630D02*
X1427500Y649630D01*
X1560500Y649630D02*
X1606500Y649630D01*
X1078500Y648630D02*
X1137500Y648630D01*
X1404500Y648630D02*
X1427500Y648630D01*
X1558500Y648630D02*
X1605500Y648630D01*
X1099500Y647630D02*
X1117500Y647630D01*
X1404500Y647630D02*
X1428500Y647630D01*
X1556500Y647630D02*
X1603500Y647630D01*
X1404500Y646630D02*
X1428500Y646630D01*
X1554500Y646630D02*
X1602500Y646630D01*
X1404500Y645630D02*
X1428500Y645630D01*
X1552500Y645630D02*
X1600500Y645630D01*
X1405500Y644630D02*
X1429500Y644630D01*
X1550500Y644630D02*
X1598500Y644630D01*
X1405500Y643630D02*
X1429500Y643630D01*
X1548500Y643630D02*
X1597500Y643630D01*
X1405500Y642630D02*
X1430500Y642630D01*
X1546500Y642630D02*
X1595500Y642630D01*
X1406500Y641630D02*
X1430500Y641630D01*
X1543500Y641630D02*
X1593500Y641630D01*
X1406500Y640630D02*
X1431500Y640630D01*
X1541500Y640630D02*
X1592500Y640630D01*
X1406500Y639630D02*
X1431500Y639630D01*
X1539500Y639630D02*
X1590500Y639630D01*
X1407500Y638630D02*
X1432500Y638630D01*
X1537500Y638630D02*
X1588500Y638630D01*
X1407500Y637630D02*
X1432500Y637630D01*
X1535500Y637630D02*
X1587500Y637630D01*
X1407500Y636630D02*
X1433500Y636630D01*
X1533500Y636630D02*
X1585500Y636630D01*
X1408500Y635630D02*
X1434500Y635630D01*
X1530500Y635630D02*
X1583500Y635630D01*
X1408500Y634630D02*
X1435500Y634630D01*
X1528500Y634630D02*
X1581500Y634630D01*
X1409500Y633630D02*
X1435500Y633630D01*
X1525500Y633630D02*
X1580500Y633630D01*
X1409500Y632630D02*
X1436500Y632630D01*
X1523500Y632630D02*
X1578500Y632630D01*
X1410500Y631630D02*
X1437500Y631630D01*
X1520500Y631630D02*
X1576500Y631630D01*
X1410500Y630630D02*
X1438500Y630630D01*
X1517500Y630630D02*
X1574500Y630630D01*
X1411500Y629630D02*
X1439500Y629630D01*
X1515500Y629630D02*
X1572500Y629630D01*
X1411500Y628630D02*
X1440500Y628630D01*
X1512500Y628630D02*
X1570500Y628630D01*
X1412500Y627630D02*
X1442500Y627630D01*
X1509500Y627630D02*
X1568500Y627630D01*
X1412500Y626630D02*
X1443500Y626630D01*
X1505500Y626630D02*
X1566500Y626630D01*
X1413500Y625630D02*
X1445500Y625630D01*
X1502500Y625630D02*
X1564500Y625630D01*
X1413500Y624630D02*
X1447500Y624630D01*
X1498500Y624630D02*
X1562500Y624630D01*
X1414500Y623630D02*
X1449500Y623630D01*
X1494500Y623630D02*
X1561500Y623630D01*
X1415500Y622630D02*
X1453500Y622630D01*
X1490500Y622630D02*
X1558500Y622630D01*
X1415500Y621630D02*
X1457500Y621630D01*
X1484500Y621630D02*
X1556500Y621630D01*
X1416500Y620630D02*
X1466500Y620630D01*
X1474500Y620630D02*
X1554500Y620630D01*
X1417500Y619630D02*
X1552500Y619630D01*
X1418500Y618630D02*
X1550500Y618630D01*
X1419500Y617630D02*
X1548500Y617630D01*
X1419500Y616630D02*
X1546500Y616630D01*
X1420500Y615630D02*
X1543500Y615630D01*
X1421500Y614630D02*
X1541500Y614630D01*
X1422500Y613630D02*
X1539500Y613630D01*
X1423500Y612630D02*
X1536500Y612630D01*
X1425500Y611630D02*
X1534500Y611630D01*
X1426500Y610630D02*
X1531500Y610630D01*
X1427500Y609630D02*
X1529500Y609630D01*
X1428500Y608630D02*
X1526500Y608630D01*
X1430500Y607630D02*
X1523500Y607630D01*
X1432500Y606630D02*
X1520500Y606630D01*
X1433500Y605630D02*
X1517500Y605630D01*
X1435500Y604630D02*
X1514500Y604630D01*
X1437500Y603630D02*
X1511500Y603630D01*
X1439500Y602630D02*
X1508500Y602630D01*
X1441500Y601630D02*
X1504500Y601630D01*
X1444500Y600630D02*
X1500500Y600630D01*
X1447500Y599630D02*
X1495500Y599630D01*
X1451500Y598630D02*
X1490500Y598630D01*
X1456500Y597630D02*
X1483500Y597630D01*
X658500Y309630D02*
X721500Y309630D01*
X635500Y308630D02*
X749500Y308630D01*
X621500Y307630D02*
X768500Y307630D01*
X609500Y306630D02*
X784500Y306630D01*
X600500Y305630D02*
X798500Y305630D01*
X592500Y304630D02*
X810500Y304630D01*
X584500Y303630D02*
X823500Y303630D01*
X578500Y302630D02*
X835500Y302630D01*
X572500Y301630D02*
X845500Y301630D01*
X567500Y300630D02*
X855500Y300630D01*
X562500Y299630D02*
X865500Y299630D01*
X557500Y298630D02*
X875500Y298630D01*
X552500Y297630D02*
X884500Y297630D01*
X548500Y296630D02*
X893500Y296630D01*
X544500Y295630D02*
X902500Y295630D01*
X541500Y294630D02*
X910500Y294630D01*
X537500Y293630D02*
X919500Y293630D01*
X534500Y292630D02*
X926500Y292630D01*
X531500Y291630D02*
X934500Y291630D01*
X528500Y290630D02*
X942500Y290630D01*
X525500Y289630D02*
X950500Y289630D01*
X522500Y288630D02*
X958500Y288630D01*
X519500Y287630D02*
X965500Y287630D01*
X517500Y286630D02*
X972500Y286630D01*
X515500Y285630D02*
X657500Y285630D01*
X723500Y285630D02*
X979500Y285630D01*
X512500Y284630D02*
X635500Y284630D01*
X750500Y284630D02*
X986500Y284630D01*
X510500Y283630D02*
X621500Y283630D01*
X769500Y283630D02*
X993500Y283630D01*
X508500Y282630D02*
X610500Y282630D01*
X785500Y282630D02*
X1000500Y282630D01*
X506500Y281630D02*
X600500Y281630D01*
X798500Y281630D02*
X1007500Y281630D01*
X504500Y280630D02*
X592500Y280630D01*
X811500Y280630D02*
X1013500Y280630D01*
X502500Y279630D02*
X585500Y279630D01*
X823500Y279630D02*
X1020500Y279630D01*
X500500Y278630D02*
X579500Y278630D01*
X835500Y278630D02*
X1027500Y278630D01*
X498500Y277630D02*
X573500Y277630D01*
X845500Y277630D02*
X1033500Y277630D01*
X497500Y276630D02*
X568500Y276630D01*
X855500Y276630D02*
X1040500Y276630D01*
X495500Y275630D02*
X563500Y275630D01*
X865500Y275630D02*
X1046500Y275630D01*
X494500Y274630D02*
X558500Y274630D01*
X875500Y274630D02*
X1052500Y274630D01*
X492500Y273630D02*
X554500Y273630D01*
X884500Y273630D02*
X1058500Y273630D01*
X490500Y272630D02*
X550500Y272630D01*
X892500Y272630D02*
X1065500Y272630D01*
X489500Y271630D02*
X546500Y271630D01*
X901500Y271630D02*
X1071500Y271630D01*
X488500Y270630D02*
X543500Y270630D01*
X910500Y270630D02*
X1077500Y270630D01*
X486500Y269630D02*
X540500Y269630D01*
X918500Y269630D02*
X1083500Y269630D01*
X485500Y268630D02*
X536500Y268630D01*
X926500Y268630D02*
X1089500Y268630D01*
X484500Y267630D02*
X533500Y267630D01*
X934500Y267630D02*
X1095500Y267630D01*
X482500Y266630D02*
X531500Y266630D01*
X942500Y266630D02*
X1100500Y266630D01*
X481500Y265630D02*
X528500Y265630D01*
X949500Y265630D02*
X1106500Y265630D01*
X480500Y264630D02*
X525500Y264630D01*
X957500Y264630D02*
X1112500Y264630D01*
X479500Y263630D02*
X523500Y263630D01*
X964500Y263630D02*
X1118500Y263630D01*
X478500Y262630D02*
X521500Y262630D01*
X971500Y262630D02*
X1123500Y262630D01*
X477500Y261630D02*
X519500Y261630D01*
X978500Y261630D02*
X1129500Y261630D01*
X476500Y260630D02*
X516500Y260630D01*
X986500Y260630D02*
X1135500Y260630D01*
X475500Y259630D02*
X514500Y259630D01*
X993500Y259630D02*
X1140500Y259630D01*
X474500Y258630D02*
X513500Y258630D01*
X999500Y258630D02*
X1146500Y258630D01*
X473500Y257630D02*
X511500Y257630D01*
X1006500Y257630D02*
X1151500Y257630D01*
X472500Y256630D02*
X509500Y256630D01*
X1013500Y256630D02*
X1157500Y256630D01*
X471500Y255630D02*
X507500Y255630D01*
X1019500Y255630D02*
X1162500Y255630D01*
X471500Y254630D02*
X506500Y254630D01*
X1026500Y254630D02*
X1167500Y254630D01*
X470500Y253630D02*
X504500Y253630D01*
X1032500Y253630D02*
X1173500Y253630D01*
X469500Y252630D02*
X502500Y252630D01*
X1039500Y252630D02*
X1178500Y252630D01*
X468500Y251630D02*
X501500Y251630D01*
X1045500Y251630D02*
X1183500Y251630D01*
X468500Y250630D02*
X500500Y250630D01*
X1051500Y250630D02*
X1189500Y250630D01*
X467500Y249630D02*
X499500Y249630D01*
X1057500Y249630D02*
X1194500Y249630D01*
X466500Y248630D02*
X497500Y248630D01*
X1064500Y248630D02*
X1199500Y248630D01*
X466500Y247630D02*
X496500Y247630D01*
X1070500Y247630D02*
X1205500Y247630D01*
X465500Y246630D02*
X495500Y246630D01*
X1076500Y246630D02*
X1210500Y246630D01*
X465500Y245630D02*
X494500Y245630D01*
X1082500Y245630D02*
X1215500Y245630D01*
X464500Y244630D02*
X493500Y244630D01*
X1088500Y244630D02*
X1220500Y244630D01*
X464500Y243630D02*
X492500Y243630D01*
X1094500Y243630D02*
X1223500Y243630D01*
X463500Y242630D02*
X491500Y242630D01*
X1100500Y242630D02*
X1230500Y242630D01*
X463500Y241630D02*
X490500Y241630D01*
X1105500Y241630D02*
X1235500Y241630D01*
X462500Y240630D02*
X489500Y240630D01*
X1111500Y240630D02*
X1240500Y240630D01*
X462500Y239630D02*
X488500Y239630D01*
X1117500Y239630D02*
X1245500Y239630D01*
X461500Y238630D02*
X488500Y238630D01*
X1122500Y238630D02*
X1250500Y238630D01*
X461500Y237630D02*
X487500Y237630D01*
X1128500Y237630D02*
X1255500Y237630D01*
X461500Y236630D02*
X486500Y236630D01*
X1134500Y236630D02*
X1260500Y236630D01*
X460500Y235630D02*
X485500Y235630D01*
X1139500Y235630D02*
X1265500Y235630D01*
X460500Y234630D02*
X485500Y234630D01*
X1145500Y234630D02*
X1270500Y234630D01*
X459500Y233630D02*
X484500Y233630D01*
X1150500Y233630D02*
X1274500Y233630D01*
X459500Y232630D02*
X484500Y232630D01*
X1155500Y232630D02*
X1279500Y232630D01*
X459500Y231630D02*
X483500Y231630D01*
X1161500Y231630D02*
X1284500Y231630D01*
X458500Y230630D02*
X483500Y230630D01*
X1166500Y230630D02*
X1289500Y230630D01*
X458500Y229630D02*
X482500Y229630D01*
X1171500Y229630D02*
X1294500Y229630D01*
X458500Y228630D02*
X482500Y228630D01*
X1177500Y228630D02*
X1298500Y228630D01*
X458500Y227630D02*
X482500Y227630D01*
X1182500Y227630D02*
X1303500Y227630D01*
X457500Y226630D02*
X481500Y226630D01*
X1187500Y226630D02*
X1308500Y226630D01*
X457500Y225630D02*
X481500Y225630D01*
X1193500Y225630D02*
X1312500Y225630D01*
X457500Y224630D02*
X481500Y224630D01*
X1198500Y224630D02*
X1317500Y224630D01*
X457500Y223630D02*
X480500Y223630D01*
X1203500Y223630D02*
X1321500Y223630D01*
X457500Y222630D02*
X480500Y222630D01*
X1209500Y222630D02*
X1326500Y222630D01*
X457500Y221630D02*
X480500Y221630D01*
X1214500Y221630D02*
X1330500Y221630D01*
X456500Y220630D02*
X480500Y220630D01*
X1219500Y220630D02*
X1335500Y220630D01*
X456500Y219630D02*
X479500Y219630D01*
X1224500Y219630D02*
X1339500Y219630D01*
X456500Y218630D02*
X479500Y218630D01*
X1229500Y218630D02*
X1343500Y218630D01*
X456500Y217630D02*
X479500Y217630D01*
X1234500Y217630D02*
X1346500Y217630D01*
X457500Y216630D02*
X479500Y216630D01*
X1239500Y216630D02*
X1347500Y216630D01*
X457500Y215630D02*
X479500Y215630D01*
X1244500Y215630D02*
X1348500Y215630D01*
X457500Y214630D02*
X478500Y214630D01*
X1249500Y214630D02*
X1349500Y214630D01*
X458500Y213630D02*
X478500Y213630D01*
X1254500Y213630D02*
X1350500Y213630D01*
X458500Y212630D02*
X477500Y212630D01*
X1259500Y212630D02*
X1350500Y212630D01*
X459500Y211630D02*
X477500Y211630D01*
X1264500Y211630D02*
X1351500Y211630D01*
X460500Y210630D02*
X476500Y210630D01*
X1268500Y210630D02*
X1351500Y210630D01*
X461500Y209630D02*
X475500Y209630D01*
X1273500Y209630D02*
X1351500Y209630D01*
X462500Y208630D02*
X473500Y208630D01*
X1278500Y208630D02*
X1352500Y208630D01*
X464500Y207630D02*
X471500Y207630D01*
X1283500Y207630D02*
X1352500Y207630D01*
X1287500Y206630D02*
X1352500Y206630D01*
X1292500Y205630D02*
X1351500Y205630D01*
X1297500Y204630D02*
X1351500Y204630D01*
X1302500Y203630D02*
X1351500Y203630D01*
X1306500Y202630D02*
X1351500Y202630D01*
X1311500Y201630D02*
X1350500Y201630D01*
X1315500Y200630D02*
X1350500Y200630D01*
X1320500Y199630D02*
X1349500Y199630D01*
X1324500Y198630D02*
X1348500Y198630D01*
X1329500Y197630D02*
X1347500Y197630D01*
X1333500Y196630D02*
X1345500Y196630D01*
X1338500Y195630D02*
X1342500Y195630D01*
D02*
G04 End of Copper1*
M02*