; NON-PLATED HOLES START AT T1
; THROUGH (PLATED) HOLES START AT T100
M48
INCH
T1C0.033464
T100C0.035000
T101C0.031496
T102C0.041333
T103C0.031497
T104C0.036000
T105C0.042000
T106C0.048622
T107C0.040000
T108C0.088356
T109C0.047244
T110C0.041361
T111C0.048617
T112C0.090000
%
T1
X018091Y006681
X018091Y010540
T100
X008110Y011846
X008110Y014065
X008110Y010846
X011110Y012846
X008103Y007500
X006739Y012370
X011108Y008525
X008108Y008525
X011103Y007500
X011110Y009846
X011110Y014065
X011110Y010846
X008110Y012846
X011110Y011846
X006739Y015370
X008110Y009846
T101
X010565Y015274
X008565Y015274
T102
X004056Y012471
X016184Y012454
X003056Y012471
X017184Y012454
T103
X009640Y004862
X009640Y005846
T104
X009070Y016710
X010055Y016710
X009070Y017490
X010055Y017490
T105
X012813Y017450
X012770Y012838
X012770Y009858
X012813Y014470
T106
X016140Y007626
X016140Y010538
X018091Y008610
X016140Y006681
T107
X014589Y003942
X017149Y002162
X014589Y002162
X017149Y003942
X004682Y002188
X004682Y003968
X002122Y003968
X002122Y002188
T108
X014243Y015407
X001115Y015424
X004998Y015424
X018126Y015407
T109
X013407Y002071
X000947Y002074
X005868Y004043
X013407Y004040
X018328Y002071
X000947Y004043
X005868Y002074
X018328Y004040
T110
X015184Y012454
X002056Y012471
T111
X016140Y009593
T112
X007192Y018560
X011932Y018560
T00
M30
