G04 MADE WITH FRITZING*
G04 WWW.FRITZING.ORG*
G04 DOUBLE SIDED*
G04 HOLES PLATED*
G04 CONTOUR ON CENTER OF CONTOUR VECTOR*
%FSLAX26Y26*%
%MOIN*%
%ADD10C,0.084000*%
%ADD11C,0.085000*%
%ADD12C,0.072992*%
%ADD13C,0.076000*%
%ADD14C,0.120000*%
%ADD15C,0.092000*%
%ADD16C,0.095000*%
%ADD17C,0.084667*%
%ADD18C,0.084695*%
%ADD19C,0.134033*%
%ADD20C,0.091700*%
%ADD21C,0.091705*%
%ADD22C,0.043464*%
%ADD23R,0.060000X0.035000*%
%ADD24R,0.072992X0.072992*%
%ADD25R,0.092000X0.092000*%
%ADD26R,0.085000X0.085000*%
G04 MASK1*
%FSLAX26Y26*%
%MOIN*%
D10*
X1714920Y394280D03*
X1458920Y394280D03*
X1714920Y216280D03*
X1458920Y216280D03*
X1714920Y394280D03*
X1458920Y394280D03*
X1714920Y216280D03*
X1458920Y216280D03*
X1714920Y394280D03*
X1458920Y394280D03*
X1714920Y216280D03*
X1458920Y216280D03*
X468289Y396810D03*
X212289Y396810D03*
X468289Y218810D03*
X212289Y218810D03*
X468289Y396810D03*
X212289Y396810D03*
X468289Y218810D03*
X212289Y218810D03*
X468289Y396810D03*
X212289Y396810D03*
X468289Y218810D03*
X212289Y218810D03*
D11*
X1110360Y750050D03*
X810360Y750050D03*
D12*
X964030Y584630D03*
X964030Y486200D03*
X964030Y584630D03*
X964030Y486200D03*
D10*
X856512Y1527417D03*
X1056510Y1527417D03*
X856512Y1527417D03*
X1056510Y1527417D03*
D13*
X907077Y1671066D03*
X1005500Y1671066D03*
X1005500Y1749066D03*
X907077Y1749066D03*
D14*
X719290Y1856066D03*
X1193290Y1856066D03*
D13*
X907077Y1671066D03*
X1005500Y1671066D03*
X1005500Y1749066D03*
X907077Y1749066D03*
D14*
X719290Y1856066D03*
X1193290Y1856066D03*
D11*
X1111040Y1406565D03*
X811040Y1406565D03*
X673967Y1537032D03*
X673967Y1237032D03*
D15*
X1281340Y1745095D03*
X1281340Y1447095D03*
X1277060Y1283850D03*
X1277060Y985850D03*
D11*
X811078Y1284683D03*
X1111080Y1284683D03*
X811078Y1184683D03*
X1111080Y1184683D03*
X811078Y1084683D03*
X1111080Y1084683D03*
X811078Y984683D03*
X1111080Y984683D03*
X1110870Y852590D03*
X810870Y852590D03*
D16*
X1832850Y404010D03*
X1832850Y207160D03*
X1340720Y207160D03*
X1340720Y404010D03*
X1832850Y404010D03*
X1832850Y207160D03*
X1340720Y207160D03*
X1340720Y404010D03*
X1832850Y404010D03*
X1832850Y207160D03*
X1340720Y207160D03*
X1340720Y404010D03*
X586882Y404340D03*
X586882Y207490D03*
X94756Y207490D03*
X94756Y404340D03*
X586882Y404340D03*
X586882Y207490D03*
X94756Y207490D03*
X94756Y404340D03*
X586882Y404340D03*
X586882Y207490D03*
X94756Y207490D03*
X94756Y404340D03*
D17*
X1718480Y1245476D03*
X1618480Y1245462D03*
D18*
X1518470Y1245476D03*
D19*
X1812630Y1540754D03*
X1424330Y1540754D03*
D17*
X1718480Y1245476D03*
X1618480Y1245462D03*
D18*
X1518470Y1245476D03*
D19*
X1812630Y1540754D03*
X1424330Y1540754D03*
D17*
X405654Y1247150D03*
X305654Y1247136D03*
D18*
X205640Y1247150D03*
D19*
X499806Y1542428D03*
X111501Y1542428D03*
D17*
X405654Y1247150D03*
X305654Y1247136D03*
D18*
X205640Y1247150D03*
D19*
X499806Y1542428D03*
X111501Y1542428D03*
D20*
X1809150Y861000D03*
X1614060Y762600D03*
X1614060Y668100D03*
D21*
X1614050Y959300D03*
D20*
X1614050Y1053800D03*
D22*
X1809150Y668100D03*
X1809150Y1054000D03*
D23*
X1413820Y658460D03*
X1413820Y693890D03*
D24*
X964030Y584628D03*
X964030Y584628D03*
D25*
X1281340Y1746095D03*
X1277060Y1284850D03*
D26*
X811078Y1284683D03*
G04 End of Mask1*
M02*